<?xml version="1.0" encoding="UTF-8" standalone="no"?>
<svg width="517px" height="79px" viewBox="0 0 517 79" version="1.1" xmlns="http://www.w3.org/2000/svg" xmlns:xlink="http://www.w3.org/1999/xlink">
    <!-- Generator: Sketch 3.7.2 (28276) - http://www.bohemiancoding.com/sketch -->
    <title>Slice 1</title>
    <desc>Created with Sketch.</desc>
    <defs></defs>
    <g id="Page-1" stroke="none" stroke-width="1" fill="none" fill-rule="evenodd">
        <g id="REDAXO_LOGO_RZ_2009">
            <path d="M402.493,20.791 C401.548,20.791 386.757,20.8 386.757,20.8 C380.24,20.8 376.414,26.708 375.005,40.34 C373.437,55.516 377.856,59.116 384.416,58.971 C384.416,58.971 396.45,58.925 398.097,58.925 C405.177,58.925 408.717,55.079 410.243,40.391 C411.724,25.113 409.609,20.791 402.493,20.791 L402.493,20.791 Z M402.939,1.204 C420.39,1.204 432.355,14.38 429.788,39.968 C427.235,65.402 417.877,78.547 399.322,78.511 L383.9,78.557 C362.159,78.493 353.236,61.561 355.594,38.047 C357.828,15.775 368.834,1.213 385.358,1.213 L402.939,1.204 L402.939,1.204 Z" id="Fill-1" fill="#4A605A"></path>
            <path d="M240.227,36.669 L272.724,36.669 L273.383,30.282 C274.105,24.202 271.818,20.839 265.37,20.814 L250.418,20.814 C244.369,21.018 241.544,23.664 240.677,32.204 L240.227,36.669 L240.227,36.669 Z M270.949,53.867 L238.493,53.867 L236.054,78.064 L216.577,78.064 L221.395,30.26 C223.389,12.717 233.481,1.554 250.367,1.554 L265.387,1.554 C282.642,1.613 294.527,13.754 292.664,32.237 L287.935,78.064 L268.452,78.064 L270.949,53.867 L270.949,53.867 Z" id="Fill-2" fill="#4A605A"></path>
            <path d="M188.4,20.923 L169.846,20.923 L166.046,58.621 L184.75,58.621 C190.779,58.621 195.918,52.094 197.251,38.052 C198.22,27.849 194.086,20.923 188.4,20.923 L188.4,20.923 Z M189.172,1.554 C229.392,1.554 222.856,78 185.171,78 L144.615,78.001 L152.332,1.554 L189.172,1.554 L189.172,1.554 Z" id="Fill-3" fill="#9FC268"></path>
            <path d="M145.915,20.844 L109.295,20.837 C104.562,20.837 101.225,23.515 99.6,30.417 L138.372,30.417 L136.639,47.615 L97.751,47.615 C98.053,55.563 100.651,58.169 107.308,58.195 C112.899,58.218 131.013,58.485 142.113,58.54 L140.12,78.002 L106.699,78.002 C86.995,78.002 76.096,62.638 78.603,38.137 C81.25,12.267 91.61,1.546 109.272,1.546 L147.844,1.554 L145.915,20.844" id="Fill-4" fill="#9FC268"></path>
            <path d="M24.29,35.497 L46.984,35.497 C52.699,35.497 56.681,32.645 56.681,27.93 C56.681,24.356 53.921,20.946 48.94,20.946 C45.081,20.946 34.226,20.888 25.766,20.844 L24.29,35.497 L24.29,35.497 Z M61.015,51.959 L72.565,78.002 L51.365,78.002 L41.11,54.877 L22.336,54.877 L20.005,78.002 L0.528,78.002 L8.221,1.56 L48.456,1.542 C66.536,1.542 77.223,15.571 76.117,28.135 C75.244,38.038 71.613,46.174 61.015,51.959 L61.015,51.959 Z" id="Fill-5" fill="#9FC268"></path>
            <polyline id="Fill-6" fill="#4A605A" points="312.273 1.735 326.456 25.127 341.451 1.735 365.706 1.735 338.24 43.161 362.058 77.935 339.245 77.935 327.714 59.796 315.64 77.935 290.528 77.935 315.388 41.487 290.562 1.735 312.273 1.735"></polyline>
            <path d="M457.248,57.726 L446.516,57.724 C443.939,57.724 442.429,58.64 441.721,64.731 C441.092,70.138 442.819,71.523 445.394,71.523 C447.403,71.523 452.021,71.564 455.854,71.543 L455.139,78.63 C451.23,78.65 446.835,78.604 444.909,78.604 C437.524,78.604 433.91,72.969 434.672,64.021 C435.377,55.744 439.011,50.639 445.859,50.639 L457.962,50.642 L457.248,57.726" id="Fill-7" fill="#9FC268"></path>
            <path d="M515.397,57.618 L503.788,57.623 C500.811,57.623 500.964,61.189 503.338,61.189 L508.243,61.196 C520.015,61.196 519.199,78.546 507.315,78.546 L493.305,78.522 L494.02,71.437 L507.57,71.461 C510.297,71.461 510.268,67.664 507.991,67.664 L503.338,67.66 C491.489,67.66 492.093,50.539 504.248,50.539 L516.112,50.533 L515.397,57.618" id="Fill-8" fill="#9FC268"></path>
            <path d="M479.715,57.716 L477.606,78.645 L470.485,78.645 L472.595,57.716 L467.63,57.67 L465.678,78.645 L458.563,78.645 L461.182,50.492 L481.8,50.632 C488.108,50.653 492.453,55.135 491.771,61.892 L490.043,78.645 L482.921,78.645 L484.723,61.177 C484.979,58.642 483.965,57.727 481.794,57.716 L479.715,57.716" id="Fill-9" fill="#9FC268"></path>
            <path d="M452.05,0.968 C459.991,0.968 466.427,7.405 466.427,15.38 C466.427,23.319 459.99,29.755 452.05,29.755 C444.114,29.755 437.675,23.319 437.675,15.38 C437.675,7.405 444.113,0.968 452.05,0.968 L452.05,0.968 Z M444.464,23.157 C448.625,27.42 455.477,27.424 459.674,23.157 C463.947,18.848 463.947,11.875 459.674,7.566 C455.477,3.3 448.625,3.303 444.464,7.566 C442.401,9.631 441.241,12.435 441.241,15.38 C441.241,18.285 442.4,21.089 444.464,23.157 L444.464,23.157 Z M454.592,16.652 L458.567,23.921 L453.678,23.921 L450.598,17.822 L449.851,23.921 L445.686,23.921 L447.827,6.543 L453.049,6.543 C457.327,6.543 459.566,9.083 458.312,13.048 C457.759,14.9 456.447,16.112 454.592,16.652 L454.592,16.652 Z M451.646,14.04 C453.111,14.04 453.905,13.441 454.213,12.456 C454.726,11.005 454.119,10.109 452.421,10.109 L451.549,10.109 L451.069,14.04 L451.646,14.04 L451.646,14.04 Z" id="Fill-10" fill="#4A605A"></path>
        </g>
    </g>
</svg>