<?xml version="1.0" encoding="UTF-8"?>
<svg xmlns="http://www.w3.org/2000/svg" xmlns:xlink="http://www.w3.org/1999/xlink" width="517px" height="114px" viewBox="0 0 517 114" version="1.1">
<g id="surface1">
<path style=" stroke:none;fill-rule:nonzero;fill:rgb(22.352941%,60%,83.529412%);fill-opacity:1;" d="M 75.46875 47.304688 C 75.46875 51.5625 71.871094 54.207031 66.65625 54.207031 L 45.945312 54.207031 L 47.339844 40.839844 C 55.050781 40.914062 64.894531 40.914062 68.417969 40.914062 C 72.972656 40.914062 75.46875 44.070312 75.46875 47.304688 M 93.171875 47.523438 C 94.199219 36.066406 84.429688 23.285156 67.976562 23.285156 L 31.328125 23.285156 L 24.351562 92.917969 L 42.125 92.917969 L 44.253906 71.835938 L 61.292969 71.835938 L 70.621094 92.917969 L 89.9375 92.917969 L 79.4375 69.191406 C 89.058594 63.90625 92.363281 56.484375 93.171875 47.523438 M 156.703125 40.839844 L 158.464844 23.285156 L 123.355469 23.285156 C 107.273438 23.285156 97.871094 33.054688 95.445312 56.632812 C 93.171875 78.960938 103.085938 92.917969 121.007812 92.917969 L 151.414062 92.917969 L 153.25 75.214844 C 143.113281 75.144531 126.664062 74.921875 121.519531 74.921875 C 115.425781 74.921875 113.074219 72.5 112.78125 65.300781 L 148.183594 65.300781 L 149.726562 49.65625 L 114.398438 49.65625 C 115.867188 43.335938 118.949219 40.914062 123.210938 40.914062 Z M 203.488281 56.558594 C 202.238281 69.339844 197.613281 75.289062 192.105469 75.289062 L 175.0625 75.289062 L 178.515625 40.988281 L 195.410156 40.988281 C 200.625 40.914062 204.371094 47.230469 203.488281 56.558594 M 196.144531 23.285156 L 162.578125 23.285156 L 155.527344 92.917969 L 192.472656 92.917969 C 226.769531 92.917969 232.71875 23.285156 196.144531 23.285156 M 440.28125 74.480469 L 440.941406 68.019531 L 429.925781 68.019531 C 423.683594 68.019531 420.378906 72.644531 419.714844 80.210938 C 419.054688 88.363281 422.289062 93.507812 429.042969 93.507812 C 430.808594 93.507812 434.773438 93.578125 438.371094 93.507812 L 439.03125 87.042969 C 435.507812 87.042969 431.320312 87.042969 429.484375 87.042969 C 427.132812 87.042969 425.59375 85.792969 426.105469 80.871094 C 426.765625 75.289062 428.164062 74.480469 430.441406 74.480469 Z M 471.71875 78.226562 C 472.304688 72.058594 468.410156 68.019531 462.609375 67.945312 L 443.808594 67.796875 L 441.457031 93.433594 L 447.921875 93.433594 L 449.683594 74.335938 L 454.238281 74.410156 L 452.328125 93.507812 L 458.789062 93.507812 L 460.699219 74.410156 L 462.609375 74.410156 C 464.59375 74.410156 465.472656 75.214844 465.253906 77.566406 L 463.636719 93.507812 L 470.101562 93.507812 Z M 493.238281 74.335938 L 493.898438 67.871094 L 483.101562 67.871094 C 472.011719 67.871094 471.496094 83.441406 482.292969 83.441406 L 486.554688 83.441406 C 488.609375 83.441406 488.683594 86.894531 486.1875 86.894531 L 473.847656 86.894531 L 473.1875 93.359375 L 485.964844 93.359375 C 496.761719 93.359375 497.496094 77.566406 486.847656 77.566406 L 482.367188 77.566406 C 480.238281 77.566406 480.089844 74.335938 482.808594 74.335938 Z M 493.238281 74.335938 "/>
<path style=" stroke:none;fill-rule:nonzero;fill:rgb(21.176471%,25.098039%,32.54902%);fill-opacity:1;" d="M 272.820312 49.433594 L 272.234375 55.238281 L 242.636719 55.238281 L 243.074219 51.195312 C 243.882812 43.410156 246.453125 40.988281 251.964844 40.839844 L 265.476562 40.839844 C 271.351562 40.839844 273.484375 43.925781 272.820312 49.433594 M 265.550781 23.285156 L 251.890625 23.285156 C 236.539062 23.285156 227.285156 33.421875 225.523438 49.433594 L 221.117188 92.992188 L 238.890625 92.992188 L 241.09375 70.957031 L 270.617188 70.957031 L 268.34375 92.992188 L 286.042969 92.992188 L 290.375 51.269531 C 292.066406 34.375 281.269531 23.359375 265.550781 23.285156 M 331.875 61.1875 L 356.917969 23.433594 L 334.8125 23.433594 L 321.152344 44.734375 L 308.222656 23.433594 L 288.464844 23.433594 L 311.089844 59.644531 L 288.464844 92.84375 L 311.308594 92.84375 L 322.324219 76.316406 L 332.828125 92.84375 L 353.613281 92.84375 Z M 397.460938 58.6875 C 396.066406 72.058594 392.835938 75.582031 386.371094 75.582031 C 384.902344 75.582031 373.886719 75.65625 373.886719 75.65625 C 367.9375 75.804688 363.898438 72.5 365.292969 58.6875 C 366.539062 46.277344 370.066406 40.914062 376.015625 40.914062 C 376.015625 40.914062 389.457031 40.914062 390.335938 40.914062 C 396.875 40.839844 398.785156 44.734375 397.460938 58.6875 M 415.234375 58.25 C 417.585938 34.964844 406.644531 22.917969 390.777344 22.917969 L 374.765625 22.917969 C 359.710938 22.917969 349.722656 36.210938 347.664062 56.484375 C 345.535156 77.933594 353.613281 93.359375 373.445312 93.359375 L 387.472656 93.285156 C 404.367188 93.433594 412.886719 81.460938 415.234375 58.25 M 437.492188 33.199219 C 437.195312 34.082031 436.460938 34.671875 435.140625 34.671875 L 434.625 34.671875 L 435.066406 31.070312 L 435.875 31.070312 C 437.417969 31.070312 437.929688 31.878906 437.492188 33.199219 M 441.238281 33.789062 C 442.410156 30.1875 440.355469 27.839844 436.460938 27.839844 L 431.6875 27.839844 L 429.707031 43.632812 L 433.523438 43.632812 L 434.1875 38.050781 L 436.976562 43.632812 L 441.457031 43.632812 L 437.859375 37.019531 C 439.546875 36.578125 440.722656 35.40625 441.238281 33.789062 M 442.484375 42.96875 C 438.664062 46.863281 432.421875 46.863281 428.605469 42.96875 C 426.695312 41.0625 425.664062 38.5625 425.664062 35.917969 C 425.664062 33.199219 426.695312 30.703125 428.605469 28.792969 C 432.421875 24.902344 438.664062 24.902344 442.484375 28.792969 C 446.378906 32.6875 446.378906 39.003906 442.484375 42.96875 M 448.582031 35.84375 C 448.582031 28.574219 442.707031 22.695312 435.507812 22.695312 C 428.308594 22.695312 422.433594 28.574219 422.433594 35.84375 C 422.433594 43.042969 428.308594 48.921875 435.507812 48.921875 C 442.777344 48.992188 448.582031 43.117188 448.582031 35.84375 "/>
</g>
</svg>
