<?xml version="1.0" standalone="no"?>
<!DOCTYPE svg PUBLIC "-//W3C//DTD SVG 1.1//EN" "http://www.w3.org/Graphics/SVG/1.1/DTD/svg11.dtd">
<svg xmlns="http://www.w3.org/2000/svg">
<defs >
<font id="Outfit" horiz-adv-x="559" ><font-face
    font-family="Outfit Thin"
    units-per-em="1000"
    panose-1="0 0 0 0 0 0 0 0 0 0"
    ascent="1000"
    descent="-260"
    alphabetic="0" />
<glyph unicode=" " horiz-adv-x="190" />
<glyph unicode="!" horiz-adv-x="286" d="M84 258L59 726H224L199 258H84ZM141 -11Q102 -11 76 16T50 81Q50 121 76 147T141 174Q181 174 206 148T232 81Q232 43 207 16T141 -11Z" />
<glyph unicode="&quot;" horiz-adv-x="456" d="M284 429L256 726H404L376 429H284ZM81 429L53 726H201L172 429H81Z" />
<glyph unicode="#" horiz-adv-x="662" d="M320 0L437 706H562L444 0H320ZM35 202V311H594V202H35ZM95 0L212 706H336L219 0H95ZM69 411V519H627V411H69Z" />
<glyph unicode="$" horiz-adv-x="603" d="M290 -11Q208 -11 147 17T36 104L135 205Q168 165 208 143T300 120Q349 120 376 138T403 191Q403 220 386 238T339 269T275 294T206 321T142 360T95 419T77 509Q77 574 108 621T195 692T321 717Q390 717 450 691T548 620L449
519Q418 552 387 569T318 587Q275 587 251 571T227 524Q227 497 245 481T292 452T356 428T426 400T490 360T538 298T556 205Q556 104 486 47T290 -11ZM257 -101V807H367V-101H257Z" />
<glyph unicode="%" horiz-adv-x="685" d="M181 422Q140 422 107 441T53 494T33 570Q33 611 53 644T106 696T180 716Q223 716 256 697T310 644T330 570Q330 528 310 495T257 442T181 422ZM181 526Q200 526 212 538T224 569Q224 588 212 600T181 612Q163 612 151
600T139 569Q139 550 151 538T181 526ZM503 -10Q462 -10 429 10T375 63T355 138Q355 180 375 212T428 265T502 285Q545 285 578 265T632 213T652 138Q652 97 632 63T579 10T503 -10ZM503 94Q522 94 534 106T546 138Q546 156 534 168T503 181Q485 181 473 169T461
138Q461 118 473 106T503 94ZM61 0L484 706H624L201 0H61Z" />
<glyph unicode="&amp;" horiz-adv-x="691" d="M509 0L185 356Q147 398 130 435T113 518Q113 572 140 617T215 690T326 718Q375 718 413 704T479 667T522 619L420 522Q400 549 379 563T328 577Q298 577 279 560T259 516Q259 494 268 477T296 439L688 0H509ZM277
-11Q205 -11 152 17T69 95T39 206Q39 272 74 323T179 407L244 308Q214 294 199 271T184 216Q184 190 195 171T229 140T281 129Q315 129 339 143T381 184L484 78Q467 56 436 36T364 2T277 -11Z" />
<glyph unicode="&apos;" horiz-adv-x="250" d="M79 429L51 726H199L171 429H79Z" />
<glyph unicode="(" horiz-adv-x="310" d="M211 -127Q154 -78 114 -9T53 142T32 314Q32 404 53 486T114 637T211 755L295 674Q231 612 197 521T163 314Q163 199 197 108T295 -47L211 -127Z" />
<glyph unicode=")" horiz-adv-x="310" d="M99 -127L15 -47Q79 16 113 107T147 314Q147 430 113 521T15 674L99 755Q156 706 196 637T257 486T278 314Q278 224 257 142T196 -9T99 -127Z" />
<glyph unicode="*" horiz-adv-x="490" d="M212 310L211 467L88 378L32 487L175 536L56 624L143 712L230 591L278 736L388 679L299 554L453 553L433 431L288 479L335 330L212 310Z" />
<glyph unicode="+" horiz-adv-x="563" d="M49 271V398H514V271H49ZM217 579H347V92H217V579Z" />
<glyph unicode="," horiz-adv-x="283" d="M54 -120L127 16L172 29Q165 14 155 5T132 -5Q103 -5 79 19T55 79Q55 118 81 146T147 174Q184 174 211 147T239 79Q239 63 233 42T209 -13L128 -161L54 -120Z" />
<glyph unicode="-" horiz-adv-x="462" d="M54 188V322H408V188H54Z" />
<glyph unicode="." horiz-adv-x="300" d="M150 -11Q111 -11 85 16T59 81Q59 121 85 147T150 174Q190 174 215 148T241 81Q241 43 216 16T150 -11Z" />
<glyph unicode="/" horiz-adv-x="384" d="M3 -55L248 755H381L136 -55H3Z" />
<glyph unicode="0" horiz-adv-x="666" d="M334 -11Q249 -11 180 35T72 163T32 354Q32 463 71 544T178 671T332 717Q419 717 487 672T594 544T634 353Q634 244 595 162T488 35T334 -11ZM333 128Q377 128 409 153T458 229T476 353Q476 427 459 477T409 552T332 578Q289
578 257 553T207 478T190 354Q190 280 207 230T256 154T333 128Z" />
<glyph unicode="1" horiz-adv-x="378" d="M156 0V706H312V0H156ZM20 573V706H302V573H20Z" />
<glyph unicode="2" horiz-adv-x="564" d="M24 88L295 368Q320 393 335 414T357 453T364 491Q364 532 338 555T268 579Q226 579 193 557T128 483L23 574Q65 645 130 681T279 717Q352 717 405 690T488 613T518 496Q518 454 507 419T472 349T406 273L218 86L24 88ZM24
0V88L157 134H532V0H24Z" />
<glyph unicode="3" d="M253 -11Q180 -11 119 14T16 88L117 189Q136 161 172 144T250 126Q287 126 314 139T356 176T372 233Q372 266 357 289T312 326T241 339Q222 339 202 337T167 329L236 416Q264 424 289 429T337 435Q391 435 434 410T502 338T528 227Q528 157
494 103T398 19T253 -11ZM167 329V416L339 618L515 619L336 415L167 329ZM60 573V706H515V619L392 573H60Z" />
<glyph unicode="4" horiz-adv-x="609" d="M21 245L253 706H424L187 245H21ZM21 157V245L73 290H587V157H21ZM354 0V437H508V0H354Z" />
<glyph unicode="5" horiz-adv-x="560" d="M254 -11Q181 -11 118 14T12 88L114 189Q133 161 169 144T249 126Q287 126 315 139T359 178T375 238Q375 273 359 298T315 336T250 350Q214 350 184 341T129 312L142 412Q165 430 186 441T232 459T291 465Q369 465 422
433T503 348T531 231Q531 161 497 106T400 20T254 -11ZM129 312L61 375L95 706H237L200 378L129 312ZM116 573L95 706H492V573H116Z" />
<glyph unicode="6" horiz-adv-x="573" d="M287 -11Q213 -11 154 22T60 110T25 235Q25 325 88 417L287 706H464L243 398L184 393Q198 417 213 434T253 461T314 471Q380 471 432 441T517 358T549 237Q549 168 514 112T420 22T287 -11ZM287 126Q318 126 343 141T382
182T396 240Q396 273 382 298T343 338T287 353Q255 353 231 339T192 299T178 240Q178 208 192 182T230 141T287 126Z" />
<glyph unicode="7" horiz-adv-x="527" d="M114 0L354 618H507L276 0H114ZM20 573V706H507V618L455 573H20Z" />
<glyph unicode="8" horiz-adv-x="562" d="M281 -11Q205 -11 149 16T61 90T29 197Q29 247 48 287T103 354T186 391L183 359Q143 368 115 392T72 452T57 525Q57 581 85 624T165 693T281 718Q347 718 397 693T476 625T505 525Q505 487 491 452T448 393T380 359L376
391Q424 381 459 354T514 287T533 197Q533 137 502 90T415 16T281 -11ZM281 123Q311 123 334 135T370 170T384 219Q384 247 371 268T334 302T281 315Q251 315 228 303T192 269T179 219Q179 192 192 170T228 136T281 123ZM281 429Q316 429 338 451T361 508Q361 543
339 565T281 588Q247 588 224 566T201 509Q201 475 224 452T281 429Z" />
<glyph unicode="9" horiz-adv-x="573" d="M109 0L331 309L389 313Q376 290 361 273T322 246T259 236Q195 236 142 266T57 349T25 469Q25 539 60 595T154 684T287 717Q361 717 420 685T513 597T548 471Q548 381 486 290L287 0H109ZM287 353Q318 353 343 368T382
408T396 466Q396 499 382 525T343 565T287 580Q255 580 231 566T192 525T177 466Q177 434 191 409T231 368T287 353Z" />
<glyph unicode=":" horiz-adv-x="290" d="M145 -11Q106 -11 80 16T54 81Q54 121 80 147T145 174Q185 174 210 148T236 81Q236 43 211 16T145 -11ZM145 285Q106 285 80 312T54 377Q54 417 80 443T145 470Q185 470 210 444T236 377Q236 339 211 312T145 285Z" />
<glyph unicode=";" horiz-adv-x="280" d="M50 -120L123 16L169 29Q161 14 151 5T128 -5Q100 -5 76 19T52 79Q52 118 78 146T144 174Q181 174 208 147T236 79Q236 63 230 42T205 -13L125 -161L50 -120ZM142 285Q102 285 77 312T51 377Q51 417 76 443T142 470Q181
470 206 444T232 377Q232 339 207 312T142 285Z" />
<glyph unicode="&lt;" horiz-adv-x="570" d="M513 87L46 283V388L513 584V445L159 305V365L513 225V87Z" />
<glyph unicode="=" horiz-adv-x="563" d="M49 389V516H514V389H49ZM49 149V276H514V149H49Z" />
<glyph unicode="&gt;" horiz-adv-x="570" d="M57 445V584L524 388V283L57 87V225L411 365V305L57 445Z" />
<glyph unicode="?" horiz-adv-x="499" d="M200 255L192 447H235Q260 447 278 456T307 481T318 521Q318 543 308 559T280 584T238 593Q201 593 171 572T121 513L23 605Q53 664 110 700T245 737Q310 737 360 710T438 637T466 532Q466 473 442 431T377 363T284 325L329
384L320 255H200ZM260 -11Q220 -11 195 16T169 81Q169 121 194 147T260 174Q299 174 324 148T350 81Q350 43 325 16T260 -11Z" />
<glyph unicode="@" horiz-adv-x="756" d="M362 77Q324 77 291 97T238 151T218 228Q218 271 238 306T291 361T362 382Q409 382 437 361T466 288V169Q466 120 438 99T362 77ZM369 170Q395 170 409 187T424 229Q424 254 410 270T369 287Q345 287 330 271T315 229Q315
203 330 187T369 170ZM437 81V161L449 232L437 303V374H531V81H437ZM534 45L607 -30Q562 -70 505 -90T382 -111Q310 -111 248 -85T138 -14T65 94T38 228Q38 300 65 362T139 470T251 542T388 568Q486 568 560 526T676 409T718 235Q718 188 709 150T679 81L563 83Q579
102 589 126T604 178T609 239Q609 312 583 362T508 437T391 463Q321 463 268 435T184 355T154 227Q154 154 182 102T262 22T381 -6Q428 -6 465 7T534 45ZM485 167H679V81H485V167Z" />
<glyph unicode="A" horiz-adv-x="729" d="M15 0L295 706H437L714 0H548L336 586H393L178 0H15ZM174 128V256H559V128H174Z" />
<glyph unicode="B" horiz-adv-x="641" d="M188 0V122H354Q400 122 426 149T452 215Q452 242 440 263T407 296T354 308H188V427H341Q380 427 404 446T428 506Q428 545 404 564T341 584H188V706H371Q439 706 486 681T559 614T584 521Q584 456 542 411T418 349L422
402Q511 385 559 333T608 205Q608 147 580 101T498 27T369 0H188ZM68 0V706H223V0H68Z" />
<glyph unicode="C" horiz-adv-x="689" d="M403 -11Q324 -11 257 16T139 94T60 210T32 354Q32 431 60 497T138 613T255 689T402 717Q486 717 551 690T666 616L561 510Q533 540 494 557T402 574Q356 574 318 559T252 514T209 444T193 354Q193 304 208 263T251 193T317
148T402 132Q456 132 496 149T565 196L671 90Q620 43 555 16T403 -11Z" />
<glyph unicode="D" horiz-adv-x="754" d="M174 0V138H349Q413 138 461 163T535 238T561 354Q561 421 535 469T461 543T349 569H169V706H351Q431 706 498 681T616 608T694 496T722 353Q722 276 695 211T617 99T500 26T353 0H174ZM68 0V706H225V0H68Z" />
<glyph unicode="E" horiz-adv-x="615" d="M68 0V706H225V0H68ZM188 0V136H575V0H188ZM188 295V426H540V295H188ZM188 571V706H570V571H188Z" />
<glyph unicode="F" horiz-adv-x="590" d="M68 0V706H225V0H68ZM188 277V412H541V277H188ZM188 571V706H557V571H188Z" />
<glyph unicode="G" horiz-adv-x="785" d="M401 -11Q324 -11 257 17T139 94T61 210T32 354Q32 431 61 497T141 612T262 689T410 717Q501 717 575 684T699 593L592 486Q558 530 512 552T408 574Q346 574 297 547T221 470T193 354Q193 288 220 238T294 160T402 132Q464
132 507 155T574 223T598 332L702 262L387 267V400H758V377Q758 250 713 164T587 33T401 -11Z" />
<glyph unicode="H" horiz-adv-x="730" d="M68 0V706H225V0H68ZM505 0V706H663V0H505ZM162 295V431H557V295H162Z" />
<glyph unicode="I" horiz-adv-x="293" d="M68 0V706H225V0H68Z" />
<glyph unicode="J" horiz-adv-x="532" d="M215 -11Q148 -11 99 13T14 82L119 183Q137 158 161 145T217 132Q247 132 269 144T304 180T317 239V706H475V248Q475 169 443 111T353 21T215 -11Z" />
<glyph unicode="K" horiz-adv-x="705" d="M495 0L209 368L486 706H680L368 339V403L690 0H495ZM68 0V706H225V0H68Z" />
<glyph unicode="L" horiz-adv-x="561" d="M68 0V706H225V0H68ZM189 0V138H538V0H189Z" />
<glyph unicode="M" horiz-adv-x="858" d="M68 0V706H180L458 273H401L678 706H791V0H634V441L662 434L481 152H377L197 434L224 441V0H68Z" />
<glyph unicode="N" horiz-adv-x="738" d="M68 0V706H178L225 565V0H68ZM555 0L139 533L178 706L594 173L555 0ZM555 0L513 141V706H670V0H555Z" />
<glyph unicode="O" horiz-adv-x="806" d="M405 -12Q325 -12 258 16T139 94T60 210T32 354Q32 432 60 498T138 613T255 690T403 718Q482 718 549 691T667 614T746 498T774 353Q774 276 746 210T668 94T551 16T405 -12ZM403 131Q466 131 513 159T587 237T613 354Q613
404 598 444T555 514T489 559T403 575Q340 575 293 548T219 471T193 354Q193 304 208 263T250 193T317 147T403 131Z" />
<glyph unicode="P" horiz-adv-x="628" d="M188 257V379H340Q369 379 393 391T431 426T445 482Q445 514 431 537T393 572T340 584H188V706H363Q430 706 484 679T569 602T601 482Q601 413 570 363T484 285T363 257H188ZM68 0V706H225V0H68Z" />
<glyph unicode="Q" horiz-adv-x="819" d="M405 -12Q326 -12 258 16T140 94T61 210T32 354Q32 432 60 498T138 613T256 690T403 718Q483 718 550 691T668 614T747 498T775 353Q775 276 747 210T669 94T551 16T405 -12ZM403 131Q467 131 514 159T587 237T614 354Q614
404 599 444T556 514T490 559T403 575Q340 575 293 548T220 471T193 354Q193 304 208 263T251 193T317 147T403 131ZM720 -56L390 274L481 365L811 35L720 -56Z" />
<glyph unicode="R" horiz-adv-x="652" d="M188 291V407H337Q384 407 409 431T435 496Q435 534 410 559T338 584H188V706H356Q426 706 479 680T562 606T592 498Q592 436 562 390T478 317T351 291H188ZM68 0V706H225V0H68ZM452 0L232 304L376 343L638 0H452Z" />
<glyph unicode="S" horiz-adv-x="583" d="M280 -11Q193 -11 131 17T16 104L118 205Q152 166 193 145T290 123Q340 123 367 141T395 191Q395 220 377 238T330 269T265 294T194 321T130 360T82 419T64 509Q64 574 95 621T183 692T312 717Q386 717 447 691T549 620L447
519Q415 552 383 568T309 584Q268 584 244 569T220 524Q220 497 238 481T285 452T350 428T421 400T485 360T533 298T551 205Q551 104 479 47T280 -11Z" />
<glyph unicode="T" horiz-adv-x="639" d="M241 0V696H398V0H241ZM20 569V706H619V569H20Z" />
<glyph unicode="U" horiz-adv-x="702" d="M352 -11Q265 -11 199 26T95 128T57 278V706H215V269Q215 227 233 196T282 149T352 132Q392 132 422 148T469 195T487 268V706H645V277Q645 193 608 128T505 26T352 -11Z" />
<glyph unicode="V" horiz-adv-x="713" d="M288 0L16 706H184L391 135H322L532 706H698L423 0H288Z" />
<glyph unicode="W" horiz-adv-x="1002" d="M244 0L17 706H173L339 163H278L440 706H563L725 163H665L830 706H985L758 0H635L472 543H530L367 0H244Z" />
<glyph unicode="X" horiz-adv-x="715" d="M516 0L319 315H300L28 706H215L409 410H428L700 0H516ZM15 0L276 378L397 310L194 0H15ZM434 333L313 401L509 706H688L434 333Z" />
<glyph unicode="Y" horiz-adv-x="687" d="M285 263L13 706H195L404 348H287L496 706H674L400 263H285ZM266 0V335H423V0H266Z" />
<glyph unicode="Z" horiz-adv-x="608" d="M30 110L385 597H575L219 110H30ZM30 0V110L134 135H566V0H30ZM50 571V706H575V597L469 571H50Z" />
<glyph unicode="[" horiz-adv-x="349" d="M65 -96V726H188V-96H65ZM126 -96V16H317V-96H126ZM126 614V726H317V614H126Z" />
<glyph unicode="\" horiz-adv-x="384" d="M248 -55L3 755H136L381 -55H248Z" />
<glyph unicode="]" horiz-adv-x="349" d="M161 -96V726H284V-96H161ZM32 -96V16H223V-96H32ZM32 614V726H223V614H32Z" />
<glyph unicode="^" horiz-adv-x="466" d="M315 452L205 661H262L152 452H34L186 726H280L433 452H315Z" />
<glyph unicode="_" horiz-adv-x="505" d="M0 -159V-39H505V-159H0Z" />
<glyph unicode="`" horiz-adv-x="323" d="M233 516L40 620L124 738L283 589L233 516Z" />
<glyph unicode="a" horiz-adv-x="595" d="M257 -10Q190 -10 138 23T55 113T24 243Q24 316 54 373T137 463T257 496Q306 496 345 477T410 425T438 348V138Q435 95 411 62T346 9T257 -10ZM288 128Q337 128 367 160T397 243Q397 277 384 303T346 343T289 358Q257
358 233 344T194 303T179 243Q179 210 193 184T232 143T288 128ZM391 0V131L414 249L391 367V486H541V0H391Z" />
<glyph unicode="b" horiz-adv-x="595" d="M334 -10Q285 -10 244 10T177 65T147 143V348Q151 391 177 424T244 477T334 496Q403 496 456 463T540 373T571 243Q571 170 541 113T457 23T334 -10ZM307 128Q339 128 363 143T402 184T416 243Q416 277 402 303T364 343T307
358Q275 358 250 344T212 303T198 243Q198 209 212 183T250 143T307 128ZM54 0V726H207V367L182 249L205 131V0H54Z" />
<glyph unicode="c" horiz-adv-x="496" d="M289 -11Q214 -11 153 22T57 113T22 243Q22 316 57 373T154 464T291 497Q348 497 395 478T480 419L382 321Q365 340 343 349T291 358Q258 358 233 344T193 304T178 244Q178 210 192 184T233 143T291 128Q321 128 344 138T385
168L482 70Q444 30 396 10T289 -11Z" />
<glyph unicode="d" horiz-adv-x="595" d="M261 -10Q192 -10 139 23T55 113T24 243Q24 316 54 373T138 463T261 496Q311 496 351 477T418 425T448 348V143Q445 100 419 66T352 11T261 -10ZM288 128Q321 128 345 142T383 183T397 243Q397 277 384 302T346 343T289
358Q257 358 233 343T194 302T179 243Q179 210 193 184T232 143T288 128ZM541 0H391V131L414 249L388 367V726H541V0Z" />
<glyph unicode="e" horiz-adv-x="548" d="M294 -11Q215 -11 154 21T57 112T22 243Q22 316 56 373T150 464T283 497Q355 497 410 466T496 380T528 254Q528 241 527 227T521 193L102 192V297L456 298L390 254Q389 296 377 323T342 365T284 380Q248 380 222 364T181
317T166 244Q166 201 181 171T225 124T293 107Q329 107 358 119T409 157L493 73Q457 31 406 10T294 -11Z" />
<glyph unicode="f" horiz-adv-x="436" d="M116 0V528Q116 587 142 634T217 709T331 737Q381 737 418 721T484 675L388 579Q378 589 366 594T336 600Q305 600 287 582T269 533V0H116ZM9 356V486H409V356H9Z" />
<glyph unicode="g" horiz-adv-x="584" d="M260 -218Q180 -218 120 -191T24 -113L118 -19Q144 -50 176 -66T255 -82Q312 -82 344 -54T377 25V149L403 255L380 361V486H530V29Q530 -46 495 -101T399 -187T260 -218ZM253 15Q186 15 134 47T52 134T22 256Q22 324 52
378T134 464T253 496Q303 496 342 478T406 426T434 348V163Q431 120 407 87T342 34T253 15ZM282 151Q314 151 337 165T373 202T386 256Q386 286 374 310T338 348T282 362Q251 362 227 348T190 310T177 256Q177 228 190 204T226 165T282 151Z" />
<glyph unicode="h" horiz-adv-x="572" d="M375 0V277Q375 315 352 338T292 362Q267 362 248 352T218 322T207 277L148 306Q148 363 172 406T239 472T338 496Q395 496 438 473T504 408T528 311V0H375ZM54 0V726H207V0H54Z" />
<glyph unicode="i" horiz-adv-x="261" d="M54 0V486H207V0H54ZM131 553Q95 553 72 577T48 637Q48 673 71 697T131 721Q167 721 190 697T213 637Q213 602 190 578T131 553Z" />
<glyph unicode="j" horiz-adv-x="273" d="M26 -218Q-27 -218 -64 -201T-129 -151L-34 -56Q-23 -69 -12 -74T15 -80Q37 -80 51 -67T66 -27V486H219V-25Q219 -84 194 -127T126 -194T26 -218ZM144 553Q108 553 85 577T61 637Q61 673 84 697T144 721Q180 721 203 697T226
637Q226 602 203 578T144 553Z" />
<glyph unicode="k" horiz-adv-x="546" d="M365 0L195 252L364 486H535L331 223L336 286L545 0H365ZM54 0V726H207V0H54Z" />
<glyph unicode="l" horiz-adv-x="261" d="M54 0V726H207V0H54Z" />
<glyph unicode="m" horiz-adv-x="873" d="M54 0V486H207V0H54ZM365 0V284Q365 321 343 341T287 362Q264 362 246 353T218 326T207 284L148 310Q148 368 173 409T241 473T338 496Q389 496 429 473T494 409T518 311V0H365ZM676 0V284Q676 321 654 341T598 362Q575
362 557 353T529 326T518 284L430 296Q432 358 459 402T532 471T635 496Q691 496 734 473T803 406T829 301V0H676Z" />
<glyph unicode="n" horiz-adv-x="572" d="M375 0V277Q375 315 352 338T292 362Q267 362 248 352T218 322T207 277L148 306Q148 363 173 406T242 472T343 496Q397 496 438 471T504 403T528 311V0H375ZM54 0V486H207V0H54Z" />
<glyph unicode="o" horiz-adv-x="576" d="M288 -11Q213 -11 153 22T57 114T22 244Q22 316 57 373T152 463T288 497Q364 497 424 464T519 374T554 244Q554 172 519 114T424 23T288 -11ZM288 128Q321 128 346 142T384 183T398 244Q398 278 384 303T346 343T288 358Q256
358 231 344T192 303T178 243Q178 210 192 184T231 143T288 128Z" />
<glyph unicode="p" horiz-adv-x="595" d="M334 -10Q285 -10 244 9T177 61T147 138V343Q151 386 177 421T244 476T334 496Q403 496 456 463T540 373T571 243Q571 170 541 113T457 23T334 -10ZM306 128Q339 128 363 143T402 184T416 243Q416 277 402 303T364 343T307
358Q275 358 251 344T212 303T198 243Q198 210 211 184T250 143T306 128ZM54 -205V486H207V361L182 243L205 125V-205H54Z" />
<glyph unicode="q" horiz-adv-x="595" d="M257 -10Q190 -10 138 23T55 113T24 243Q24 316 54 373T137 463T257 496Q306 496 345 477T410 425T438 348V138Q435 95 411 62T346 9T257 -10ZM288 128Q337 128 367 160T397 243Q397 277 384 303T346 343T289 358Q257
358 233 344T194 303T179 243Q179 210 193 184T232 143T288 128ZM391 -205V125L414 243L391 361V486H541V-205H391Z" />
<glyph unicode="r" horiz-adv-x="444" d="M54 0V486H207V0H54ZM207 267L143 317Q162 402 207 449T332 496Q367 496 393 486T440 453L349 338Q339 349 324 355T290 361Q252 361 230 338T207 267Z" />
<glyph unicode="s" horiz-adv-x="458" d="M231 -12Q188 -12 147 -1T70 30T9 78L96 166Q120 140 153 126T225 111Q252 111 266 119T281 141Q281 159 264 168T219 185T162 202T105 227T61 271T44 344Q44 391 68 425T136 480T239 500Q301 500 353 479T439 415L352
327Q329 354 301 365T245 376Q219 376 206 369T193 347Q193 332 210 323T254 307T311 290T368 263T412 218T429 143Q429 72 376 30T231 -12Z" />
<glyph unicode="t" horiz-adv-x="399" d="M123 0V687H276V0H123ZM13 356V486H386V356H13Z" />
<glyph unicode="u" horiz-adv-x="539" d="M270 -11Q203 -11 152 16T71 92T42 204V486H195V206Q195 181 203 163T229 135T270 125Q304 125 324 146T344 206V486H497V205Q497 141 468 93T388 17T270 -11Z" />
<glyph unicode="v" horiz-adv-x="537" d="M207 0L1 486H166L306 81H234L374 486H536L330 1L207 0Z" />
<glyph unicode="w" horiz-adv-x="785" d="M173 0L5 486H155L259 133L215 132L330 486H454L570 132L525 133L630 486H780L612 0H487L374 336H412L297 0H173Z" />
<glyph unicode="x" horiz-adv-x="536" d="M355 0L238 189L205 210L14 486H193L302 309L334 289L532 0H355ZM5 0L204 283L291 185L172 0H5ZM333 211L246 309L356 486H522L333 211Z" />
<glyph unicode="y" horiz-adv-x="534" d="M204 -2L4 486H169L296 99H235L365 486H530L322 -2H204ZM79 -205L225 110L322 -2L236 -205H79Z" />
<glyph unicode="z" horiz-adv-x="481" d="M23 90L267 397H453L209 90H23ZM23 0V90L132 128H447V0H23ZM41 358V486H453V397L345 358H41Z" />
<glyph unicode="{" horiz-adv-x="342" d="M249 -96Q162 -96 118 -51T81 84L92 205Q95 236 85 249T46 262H18V372H46Q74 372 84 385T92 429L81 546Q72 635 117 680T249 726H310V614H272Q230 614 216 597T206 545L214 446Q218 404 211 375T178 327T104 296V334Q152
324 177 306T210 258T214 187L206 85Q203 51 216 34T272 16H310V-96H249Z" />
<glyph unicode="|" horiz-adv-x="300" d="M81 -130V776H219V-130H81Z" />
<glyph unicode="}" horiz-adv-x="342" d="M88 -96H27V16H65Q107 16 120 33T131 85L123 187Q119 229 126 258T159 305T233 334V296Q185 308 160 327T127 375T123 446L131 545Q135 580 121 597T65 614H27V726H88Q175 726 220 681T256 546L245 429Q242 398 252 385T291
372H319V262H291Q263 262 253 249T245 205L256 84Q265 -6 220 -51T88 -96Z" />
<glyph unicode="~" horiz-adv-x="577" d="M373 264Q341 264 319 272T279 290T244 309T203 317Q178 317 158 306T117 272L38 352Q74 399 113 422T201 445Q232 445 254 437T294 419T330 401T371 393Q397 393 418 403T459 437L539 357Q503 310 463 287T373 264Z" />
<glyph unicode="&#xa0;" horiz-adv-x="190" />
<glyph unicode="&#xa1;" horiz-adv-x="287" d="M61 -205L86 228H201L226 -205H61ZM144 312Q104 312 79 339T53 404Q53 444 78 470T144 496Q183 496 208 470T234 404Q234 366 209 339T144 312Z" />
<glyph unicode="&#xa2;" horiz-adv-x="516" d="M298 99Q223 99 162 132T66 223T31 353Q31 426 66 483T163 574T300 607Q357 607 404 588T489 529L391 431Q374 450 352 459T300 468Q267 468 242 454T202 414T187 354Q187 320 201 294T242 253T300 238Q330 238 353
248T394 278L491 180Q453 140 405 120T298 99ZM233 10V696H343V10H233Z" />
<glyph unicode="&#xa3;" horiz-adv-x="629" d="M150 0V491Q150 562 180 615T265 697T388 726Q457 726 507 699T587 629L488 530Q469 558 449 572T395 586Q369 586 349 575T318 543T307 493V0H150ZM55 0V138H568V0H55ZM55 289V404H482V289H55Z" />
<glyph unicode="&#xa4;" horiz-adv-x="601" d="M301 147Q238 147 188 174T108 247T79 353Q79 412 108 458T187 532T300 559Q364 559 414 532T493 459T522 353Q522 295 493 248T415 174T301 147ZM300 276Q323 276 340 285T366 312T376 353Q376 377 366 394T340
420T300 430Q279 430 262 420T235 393T225 352Q225 330 234 313T261 286T300 276ZM443 418L365 496L471 601L548 523L443 418ZM130 105L52 183L157 288L235 210L130 105ZM365 210L443 288L548 183L471 105L365 210ZM52 523L130 601L235 496L157 418L52 523Z" />
<glyph unicode="&#xa5;" horiz-adv-x="672" d="M278 258L46 706H217L381 336H294L458 706H626L392 258H278ZM258 0V325H416V0H258ZM233 478L259 383H65V478H233ZM65 223V318H607V223H65ZM427 383L463 478H607V383H427Z" />
<glyph unicode="&#xa6;" horiz-adv-x="300" d="M81 396V776H219V396H81ZM81 -130V250H219V-130H81Z" />
<glyph unicode="&#xa7;" horiz-adv-x="538" d="M276 144L271 242Q304 242 322 254T340 289Q340 314 321 328T272 351T208 371T144 401T95 452T75 538Q75 591 100 631T173 694T284 716Q350 716 406 691T498 617L409 526Q384 558 352 572T288 587Q257 587 241 575T225
543Q225 521 244 508T293 486T356 465T420 435T469 385T488 304Q488 257 461 221T387 164T276 144ZM254 -121Q189 -121 133 -96T41 -22L130 69Q154 37 186 23T250 8Q282 8 298 20T314 52Q314 74 295 87T246 109T182 130T118 160T69 210T50 291Q50 339 77 375T152
431T263 451L267 353Q235 353 217 341T198 306Q198 281 217 267T267 244T331 224T395 194T444 143T463 57Q463 4 438 -36T366 -98T254 -121Z" />
<glyph unicode="&#xa8;" horiz-adv-x="495" d="M138 548Q102 548 79 572T55 632Q55 668 78 692T138 716Q174 716 197 692T220 632Q220 597 197 573T138 548ZM358 548Q322 548 299 572T275 632Q275 668 298 692T358 716Q394 716 417 692T440 632Q440 597 417 573T358 548Z" />
<glyph unicode="&#xa9;" horiz-adv-x="811" d="M406 -10Q327 -10 261 18T147 96T72 212T45 355Q45 432 71 498T145 613T259 690T404 718Q484 718 550 690T665 613T739 498T766 354Q766 278 740 212T665 95T551 18T406 -10ZM404 44Q495 44 563 85T671 197T710 356Q710
442 672 512T564 623T404 664Q314 664 246 624T139 513T101 356Q101 268 139 197T246 85T404 44ZM418 150Q357 150 308 176T229 249T200 354Q200 413 229 459T308 532T420 559Q466 559 504 544T572 498L486 411Q474 424 458 430T420 437Q397 437 378 427T349 398T338
355Q338 330 349 312T379 283T420 272Q443 272 459 279T488 301L575 214Q542 181 503 166T418 150Z" />
<glyph unicode="&#xaa;" horiz-adv-x="361" d="M153 407Q113 407 81 426T31 480T13 559Q13 603 31 637T81 692T153 712Q195 712 225 689T259 632V487Q255 453 226 430T153 407ZM175 499Q201 499 217 516T233 560Q233 586 217 603T176 620Q150 620 134 603T117
560Q117 533 133 516T175 499ZM229 413V491L244 563L229 634V706H331V413H229Z" />
<glyph unicode="&#xab;" horiz-adv-x="510" d="M126 72L24 245L126 418H268L161 245L268 72H126ZM345 72L243 245L345 418H488L381 245L488 72H345Z" />
<glyph unicode="&#xac;" horiz-adv-x="563" d="M49 326V453H514V326H49ZM384 429H514V172H384V429Z" />
<glyph unicode="&#xad;" horiz-adv-x="462" d="M54 188V322H408V188H54Z" />
<glyph unicode="&#xae;" horiz-adv-x="546" d="M273 267Q208 267 158 297T80 378T51 493Q51 556 79 606T157 686T272 716Q338 716 388 686T467 606T496 493Q496 429 468 378T389 297T273 267ZM272 310Q326 310 366 334T429 399T452 493Q452 544 429 584T366 649T272
674Q220 674 180 650T118 585T95 493Q95 441 117 400T180 334T272 310ZM235 476V513H283Q297 513 305 520T314 540Q314 552 306 560T283 568H235V607H288Q321 607 341 588T362 541Q362 512 342 494T287 476H235ZM198 384V607H247V384H198ZM319 384L249 480L294
492L377 384H319Z" />
<glyph unicode="&#xaf;" horiz-adv-x="464" d="M40 685H424V571H40V685Z" />
<glyph unicode="&#xb0;" horiz-adv-x="396" d="M198 387Q149 387 111 408T52 467T30 550Q30 598 51 635T111 694T198 716Q247 716 284 694T344 635T366 550Q366 504 345 467T285 409T198 387ZM198 495Q222 495 237 511T253 551Q253 575 238 591T198 608Q174 608
159 592T143 551Q143 527 158 511T198 495Z" />
<glyph unicode="&#xb1;" horiz-adv-x="563" d="M49 346V473H514V346H49ZM217 579H347V242H217V579ZM49 81V208H514V81H49Z" />
<glyph unicode="&#xb2;" horiz-adv-x="340" d="M26 409L172 554Q181 562 184 569T187 584Q187 598 178 607T152 616Q138 616 125 606T95 573L21 640Q44 677 81 694T163 712Q227 712 264 680T301 589Q301 560 289 534T249 482L163 403L26 409ZM26 347V409L122 441H308V347H26Z"
/>
<glyph unicode="&#xb3;" horiz-adv-x="334" d="M147 341Q108 341 74 354T16 390L88 460Q96 450 112 443T145 436Q164 436 177 445T190 470Q190 486 176 495T138 504Q127 504 116 503T99 499L150 561Q173 566 186 568T209 571Q249 571 275 544T302 467Q302 411
260 376T147 341ZM99 499V560L170 645H292L218 561L99 499ZM45 612V706H292V645L209 612H45Z" />
<glyph unicode="&#xb4;" horiz-adv-x="323" d="M90 541L40 614L199 763L283 645L90 541Z" />
<glyph unicode="&#xb5;" horiz-adv-x="593" d="M81 -195V486H234V-195H81ZM343 -10Q256 -10 213 45T170 186L234 208Q234 163 257 144T310 125Q340 125 362 144T384 208V486H537V185Q537 128 512 84T443 15T343 -10Z" />
<glyph unicode="&#xb6;" horiz-adv-x="718" d="M397 257H277Q210 257 156 284T71 361T39 481Q39 551 70 601T156 678T277 706H685V584H285Q256 584 232 572T194 537T180 481Q180 449 194 426T232 391T285 379H397V257ZM432 -100H310V706H432V-100ZM612 -100H490V706H612V-100Z"
/>
<glyph unicode="&#xb7;" horiz-adv-x="182" d="M91 277Q52 277 26 304T0 369Q0 409 26 435T91 462Q131 462 156 436T182 369Q182 331 157 304T91 277Z" />
<glyph unicode="&#xb8;" horiz-adv-x="304" d="M145 -215Q105 -215 77 -206T20 -179L67 -117Q80 -127 95 -132T130 -138Q151 -138 160 -132T169 -116Q169 -107 158 -100T124 -93H92L126 13H212L186 -60L142 -25Q208 -24 244 -50T281 -120Q281 -160 244 -187T145 -215Z" />
<glyph unicode="&#xb9;" horiz-adv-x="266" d="M85 347V706H200V347H85ZM20 612V706H195V612H20Z" />
<glyph unicode="&#xba;" horiz-adv-x="349" d="M175 405Q129 405 92 425T33 480T11 559Q11 603 32 637T91 692T175 712Q222 712 258 692T316 638T338 559Q338 515 317 480T259 425T175 405ZM175 498Q201 498 217 515T233 559Q233 586 217 602T174 619Q148 619
132 602T116 558Q116 531 132 515T175 498Z" />
<glyph unicode="&#xbb;" horiz-adv-x="510" d="M242 72L349 245L242 418H385L487 245L385 72H242ZM23 72L130 245L23 418H165L267 245L165 72H23Z" />
<glyph unicode="&#xbc;" horiz-adv-x="695" d="M283 312L340 257L120 -13L19 88L283 312ZM396 396L339 451L559 721L660 620L396 396ZM132 347V706H246V347H132ZM66 612V706H241V612H66ZM362 118L463 356H580L477 118H362ZM362 57V118L391 151H664V57H362ZM533
-3V204H641V-3H533Z" />
<glyph unicode="&#xbd;" horiz-adv-x="692" d="M278 312L335 257L120 -13L19 88L278 312ZM396 396L339 451L559 721L660 620L396 396ZM132 347V706H246V347H132ZM66 612V706H241V612H66ZM367 59L513 204Q521 212 524 219T528 234Q528 248 519 257T493 266Q478
266 466 256T436 223L361 290Q384 327 421 344T503 362Q568 362 604 330T641 239Q641 210 629 184T589 132L504 53L367 59ZM367 -3V59L463 91H648V-3H367Z" />
<glyph unicode="&#xbe;" horiz-adv-x="690" d="M263 320L320 267L120 -13L19 88L263 320ZM426 389L369 441L564 721L665 620L426 389ZM174 341Q135 341 101 354T43 390L115 460Q123 450 139 443T172 436Q191 436 204 445T217 470Q217 486 203 495T165 504Q154
504 143 503T126 499L177 561Q200 566 213 568T236 571Q276 571 302 544T329 467Q329 411 287 376T174 341ZM126 499V560L197 645H319L245 561L126 499ZM72 612V706H319V645L236 612H72ZM342 118L444 356H561L457 118H342ZM342 57V118L372 151H645V57H342ZM513
-3V204H621V-3H513Z" />
<glyph unicode="&#xbf;" horiz-adv-x="488" d="M252 -216Q189 -216 140 -191T62 -120T34 -17Q34 38 58 79T124 148T221 187L171 137L180 230H300L308 75H265Q228 75 205 55T182 1Q182 -21 192 -37T219 -63T260 -72Q297 -72 327 -50T377 8L475 -83Q445 -142 388
-179T252 -216ZM240 312Q201 312 176 339T150 404Q150 444 175 470T240 496Q280 496 305 470T331 404Q331 366 306 339T240 312Z" />
<glyph unicode="&#xc0;" horiz-adv-x="729" d="M15 0L295 706H437L714 0H548L336 586H393L178 0H15ZM174 128V256H559V128H174ZM418 761L225 865L309 983L468 834L418 761Z" />
<glyph unicode="&#xc1;" horiz-adv-x="729" d="M15 0L295 706H437L714 0H548L336 586H393L178 0H15ZM174 128V256H559V128H174ZM293 761L243 834L402 983L486 865L293 761Z" />
<glyph unicode="&#xc2;" horiz-adv-x="729" d="M15 0L295 706H437L714 0H548L336 586H393L178 0H15ZM174 128V256H559V128H174ZM224 757L174 823L320 968H408L554 823L504 757L307 879H423L224 757Z" />
<glyph unicode="&#xc3;" horiz-adv-x="729" d="M15 0L295 706H437L714 0H548L336 586H393L178 0H15ZM174 128V256H559V128H174ZM438 762Q406 762 383 773T340 795T297 806Q274 806 258 797T228 768L155 840Q184 883 216 904T292 925Q324 925 347 914T391 892T433
880Q457 880 473 889T502 919L575 846Q546 804 514 783T438 762Z" />
<glyph unicode="&#xc4;" horiz-adv-x="729" d="M15 0L295 706H437L714 0H548L336 586H393L178 0H15ZM174 128V256H559V128H174ZM255 768Q219 768 196 792T172 852Q172 888 195 912T255 936Q291 936 314 912T337 852Q337 817 314 793T255 768ZM475 768Q439 768
416 792T392 852Q392 888 415 912T475 936Q511 936 534 912T557 852Q557 817 534 793T475 768Z" />
<glyph unicode="&#xc5;" horiz-adv-x="729" d="M15 0L295 706H437L714 0H548L336 586H393L178 0H15ZM174 128V256H559V128H174ZM365 658Q327 658 298 675T251 721T233 787Q233 824 250 853T297 899T365 917Q402 917 431 900T478 853T495 787Q495 750 478 721T432
675T365 658ZM365 742Q383 742 395 755T408 787Q408 807 396 819T365 832Q345 832 333 819T321 787Q321 768 333 755T365 742Z" />
<glyph unicode="&#xc6;" horiz-adv-x="994" d="M15 0L295 706H548V571H389L178 0H15ZM174 203V331H539V203H174ZM596 0V136H955V0H596ZM475 0V706H633V0H475ZM596 295V426H919V295H596ZM596 571V706H949V571H596Z" />
<glyph unicode="&#xc7;" horiz-adv-x="689" d="M403 -11Q324 -11 257 16T139 94T60 210T32 354Q32 431 60 497T138 613T255 689T402 717Q486 717 551 690T666 616L561 510Q533 540 494 557T402 574Q356 574 318 559T252 514T209 444T193 354Q193 304 208 263T251
193T317 148T402 132Q456 132 496 149T565 196L671 90Q620 43 555 16T403 -11ZM356 -215Q316 -215 288 -206T231 -179L278 -117Q291 -127 306 -132T341 -138Q362 -138 371 -132T380 -116Q380 -107 369 -100T335 -93H303L337 13H423L397 -60L353 -25Q419 -24 455
-50T492 -120Q492 -160 455 -187T356 -215Z" />
<glyph unicode="&#xc8;" horiz-adv-x="615" d="M68 0V706H225V0H68ZM188 0V136H575V0H188ZM188 295V426H540V295H188ZM188 571V706H570V571H188ZM381 761L188 865L272 983L431 834L381 761Z" />
<glyph unicode="&#xc9;" horiz-adv-x="615" d="M68 0V706H225V0H68ZM188 0V136H575V0H188ZM188 295V426H540V295H188ZM188 571V706H570V571H188ZM256 761L206 834L365 983L449 865L256 761Z" />
<glyph unicode="&#xca;" horiz-adv-x="615" d="M68 0V706H225V0H68ZM188 0V136H575V0H188ZM188 295V426H540V295H188ZM188 571V706H570V571H188ZM187 757L137 823L283 968H371L517 823L467 757L270 879H386L187 757Z" />
<glyph unicode="&#xcb;" horiz-adv-x="615" d="M68 0V706H225V0H68ZM188 0V136H575V0H188ZM188 295V426H540V295H188ZM188 571V706H570V571H188ZM218 768Q182 768 159 792T135 852Q135 888 158 912T218 936Q254 936 277 912T300 852Q300 817 277 793T218 768ZM438
768Q402 768 379 792T355 852Q355 888 378 912T438 936Q474 936 497 912T520 852Q520 817 497 793T438 768Z" />
<glyph unicode="&#xcc;" horiz-adv-x="293" d="M68 0V706H225V0H68ZM200 761L7 865L91 983L250 834L200 761Z" />
<glyph unicode="&#xcd;" horiz-adv-x="293" d="M68 0V706H225V0H68ZM75 761L25 834L184 983L268 865L75 761Z" />
<glyph unicode="&#xce;" horiz-adv-x="293" d="M68 0V706H225V0H68ZM6 757L-44 823L102 968H190L336 823L286 757L89 879H205L6 757Z" />
<glyph unicode="&#xcf;" horiz-adv-x="293" d="M68 0V706H225V0H68ZM37 768Q1 768 -22 792T-46 852Q-46 888 -23 912T37 936Q73 936 96 912T119 852Q119 817 96 793T37 768ZM257 768Q221 768 198 792T174 852Q174 888 197 912T257 936Q293 936 316 912T339 852Q339
817 316 793T257 768Z" />
<glyph unicode="&#xd0;" horiz-adv-x="774" d="M21 415H405V295H21V415ZM194 0V138H369Q433 138 481 163T555 238T581 354Q581 421 555 469T481 543T369 569H189V706H371Q451 706 518 681T636 608T714 496T742 353Q742 276 715 211T637 99T520 26T373 0H194ZM88
0V706H245V0H88Z" />
<glyph unicode="&#xd1;" horiz-adv-x="738" d="M68 0V706H178L225 565V0H68ZM555 0L139 533L178 706L594 173L555 0ZM555 0L513 141V706H670V0H555ZM442 762Q410 762 387 773T344 795T301 806Q278 806 262 797T232 768L159 840Q188 883 220 904T296 925Q328 925
351 914T395 892T437 880Q461 880 477 889T506 919L579 846Q550 804 518 783T442 762Z" />
<glyph unicode="&#xd2;" horiz-adv-x="806" d="M405 -12Q325 -12 258 16T139 94T60 210T32 354Q32 432 60 498T138 613T255 690T403 718Q482 718 549 691T667 614T746 498T774 353Q774 276 746 210T668 94T551 16T405 -12ZM403 131Q466 131 513 159T587 237T613
354Q613 404 598 444T555 514T489 559T403 575Q340 575 293 548T219 471T193 354Q193 304 208 263T250 193T317 147T403 131ZM456 761L263 865L347 983L506 834L456 761Z" />
<glyph unicode="&#xd3;" horiz-adv-x="806" d="M405 -12Q325 -12 258 16T139 94T60 210T32 354Q32 432 60 498T138 613T255 690T403 718Q482 718 549 691T667 614T746 498T774 353Q774 276 746 210T668 94T551 16T405 -12ZM403 131Q466 131 513 159T587 237T613
354Q613 404 598 444T555 514T489 559T403 575Q340 575 293 548T219 471T193 354Q193 304 208 263T250 193T317 147T403 131ZM331 761L281 834L440 983L524 865L331 761Z" />
<glyph unicode="&#xd4;" horiz-adv-x="806" d="M405 -12Q325 -12 258 16T139 94T60 210T32 354Q32 432 60 498T138 613T255 690T403 718Q482 718 549 691T667 614T746 498T774 353Q774 276 746 210T668 94T551 16T405 -12ZM403 131Q466 131 513 159T587 237T613
354Q613 404 598 444T555 514T489 559T403 575Q340 575 293 548T219 471T193 354Q193 304 208 263T250 193T317 147T403 131ZM263 757L213 823L359 968H447L593 823L543 757L346 879H462L263 757Z" />
<glyph unicode="&#xd5;" horiz-adv-x="806" d="M405 -12Q325 -12 258 16T139 94T60 210T32 354Q32 432 60 498T138 613T255 690T403 718Q482 718 549 691T667 614T746 498T774 353Q774 276 746 210T668 94T551 16T405 -12ZM403 131Q466 131 513 159T587 237T613
354Q613 404 598 444T555 514T489 559T403 575Q340 575 293 548T219 471T193 354Q193 304 208 263T250 193T317 147T403 131ZM476 762Q444 762 421 773T378 795T335 806Q312 806 296 797T266 768L193 840Q222 883 254 904T330 925Q362 925 385 914T429 892T471
880Q495 880 511 889T540 919L613 846Q584 804 552 783T476 762Z" />
<glyph unicode="&#xd6;" horiz-adv-x="806" d="M405 -12Q325 -12 258 16T139 94T60 210T32 354Q32 432 60 498T138 613T255 690T403 718Q482 718 549 691T667 614T746 498T774 353Q774 276 746 210T668 94T551 16T405 -12ZM403 131Q466 131 513 159T587 237T613
354Q613 404 598 444T555 514T489 559T403 575Q340 575 293 548T219 471T193 354Q193 304 208 263T250 193T317 147T403 131ZM294 768Q258 768 235 792T211 852Q211 888 234 912T294 936Q330 936 353 912T376 852Q376 817 353 793T294 768ZM514 768Q478 768 455
792T431 852Q431 888 454 912T514 936Q550 936 573 912T596 852Q596 817 573 793T514 768Z" />
<glyph unicode="&#xd7;" horiz-adv-x="542" d="M129 101L37 193L414 569L506 478L129 101ZM405 108L44 469L136 561L497 200L405 108Z" />
<glyph unicode="&#xd8;" horiz-adv-x="806" d="M681 730L780 631L125 -23L27 75L681 730ZM405 -12Q325 -12 258 16T139 94T60 210T32 354Q32 432 60 498T138 613T255 690T403 718Q482 718 549 691T667 614T746 498T774 353Q774 276 746 210T668 94T551 16T405
-12ZM403 131Q466 131 513 159T587 237T613 354Q613 404 598 444T555 514T489 559T403 575Q340 575 293 548T219 471T193 354Q193 304 208 263T250 193T317 147T403 131Z" />
<glyph unicode="&#xd9;" horiz-adv-x="702" d="M352 -11Q265 -11 199 26T95 128T57 278V706H215V269Q215 227 233 196T282 149T352 132Q392 132 422 148T469 195T487 268V706H645V277Q645 193 608 128T505 26T352 -11ZM404 761L211 865L295 983L454 834L404 761Z" />
<glyph unicode="&#xda;" horiz-adv-x="702" d="M352 -11Q265 -11 199 26T95 128T57 278V706H215V269Q215 227 233 196T282 149T352 132Q392 132 422 148T469 195T487 268V706H645V277Q645 193 608 128T505 26T352 -11ZM279 761L229 834L388 983L472 865L279 761Z" />
<glyph unicode="&#xdb;" horiz-adv-x="702" d="M352 -11Q265 -11 199 26T95 128T57 278V706H215V269Q215 227 233 196T282 149T352 132Q392 132 422 148T469 195T487 268V706H645V277Q645 193 608 128T505 26T352 -11ZM211 757L161 823L307 968H395L541 823L491
757L294 879H410L211 757Z" />
<glyph unicode="&#xdc;" horiz-adv-x="702" d="M352 -11Q265 -11 199 26T95 128T57 278V706H215V269Q215 227 233 196T282 149T352 132Q392 132 422 148T469 195T487 268V706H645V277Q645 193 608 128T505 26T352 -11ZM242 768Q206 768 183 792T159 852Q159 888
182 912T242 936Q278 936 301 912T324 852Q324 817 301 793T242 768ZM462 768Q426 768 403 792T379 852Q379 888 402 912T462 936Q498 936 521 912T544 852Q544 817 521 793T462 768Z" />
<glyph unicode="&#xdd;" horiz-adv-x="687" d="M285 263L13 706H195L404 348H287L496 706H674L400 263H285ZM266 0V335H423V0H266ZM272 761L222 834L381 983L465 865L272 761Z" />
<glyph unicode="&#xde;" horiz-adv-x="628" d="M188 135V257H340Q369 257 393 269T431 304T445 360Q445 392 431 415T393 450T340 462H188V584H363Q430 584 484 557T569 480T601 360Q601 291 570 241T484 163T363 135H188ZM68 0V706H225V0H68Z" />
<glyph unicode="&#xdf;" horiz-adv-x="592" d="M337 -9Q299 -9 273 -1T226 24L277 138Q286 132 297 128T326 123Q351 123 371 134T403 167T415 217Q415 245 402 266T365 301T311 314H267V438H293Q316 438 333 448T360 477T370 521Q370 545 361 563T333 591T290
602Q252 602 228 579T204 515V0H54V509Q54 572 83 623T165 704T293 735Q364 735 414 706T491 632T518 533Q518 478 492 437T417 374L411 413Q463 401 499 373T553 303T571 210Q571 167 555 128T507 57T433 9T337 -9Z" />
<glyph unicode="&#xe0;" horiz-adv-x="595" d="M257 -10Q190 -10 138 23T55 113T24 243Q24 316 54 373T137 463T257 496Q306 496 345 477T410 425T438 348V138Q435 95 411 62T346 9T257 -10ZM288 128Q337 128 367 160T397 243Q397 277 384 303T346 343T289 358Q257
358 233 344T194 303T179 243Q179 210 193 184T232 143T288 128ZM391 0V131L414 249L391 367V486H541V0H391ZM341 541L148 645L232 763L391 614L341 541Z" />
<glyph unicode="&#xe1;" horiz-adv-x="595" d="M257 -10Q190 -10 138 23T55 113T24 243Q24 316 54 373T137 463T257 496Q306 496 345 477T410 425T438 348V138Q435 95 411 62T346 9T257 -10ZM288 128Q337 128 367 160T397 243Q397 277 384 303T346 343T289 358Q257
358 233 344T194 303T179 243Q179 210 193 184T232 143T288 128ZM391 0V131L414 249L391 367V486H541V0H391ZM216 541L166 614L325 763L409 645L216 541Z" />
<glyph unicode="&#xe2;" horiz-adv-x="595" d="M257 -10Q190 -10 138 23T55 113T24 243Q24 316 54 373T137 463T257 496Q306 496 345 477T410 425T438 348V138Q435 95 411 62T346 9T257 -10ZM288 128Q337 128 367 160T397 243Q397 277 384 303T346 343T289 358Q257
358 233 344T194 303T179 243Q179 210 193 184T232 143T288 128ZM391 0V131L414 249L391 367V486H541V0H391ZM147 537L97 603L243 748H331L477 603L427 537L230 659H346L147 537Z" />
<glyph unicode="&#xe3;" horiz-adv-x="595" d="M257 -10Q190 -10 138 23T55 113T24 243Q24 316 54 373T137 463T257 496Q306 496 345 477T410 425T438 348V138Q435 95 411 62T346 9T257 -10ZM288 128Q337 128 367 160T397 243Q397 277 384 303T346 343T289 358Q257
358 233 344T194 303T179 243Q179 210 193 184T232 143T288 128ZM391 0V131L414 249L391 367V486H541V0H391ZM361 542Q329 542 306 553T263 575T220 586Q197 586 181 577T151 548L78 620Q107 663 139 684T215 705Q247 705 270 694T314 672T356 660Q380 660 396
669T425 699L498 626Q469 584 437 563T361 542Z" />
<glyph unicode="&#xe4;" horiz-adv-x="595" d="M257 -10Q190 -10 138 23T55 113T24 243Q24 316 54 373T137 463T257 496Q306 496 345 477T410 425T438 348V138Q435 95 411 62T346 9T257 -10ZM288 128Q337 128 367 160T397 243Q397 277 384 303T346 343T289 358Q257
358 233 344T194 303T179 243Q179 210 193 184T232 143T288 128ZM391 0V131L414 249L391 367V486H541V0H391ZM178 548Q142 548 119 572T95 632Q95 668 118 692T178 716Q214 716 237 692T260 632Q260 597 237 573T178 548ZM398 548Q362 548 339 572T315 632Q315
668 338 692T398 716Q434 716 457 692T480 632Q480 597 457 573T398 548Z" />
<glyph unicode="&#xe5;" horiz-adv-x="595" d="M257 -10Q190 -10 138 23T55 113T24 243Q24 316 54 373T137 463T257 496Q306 496 345 477T410 425T438 348V138Q435 95 411 62T346 9T257 -10ZM288 128Q337 128 367 160T397 243Q397 277 384 303T346 343T289 358Q257
358 233 344T194 303T179 243Q179 210 193 184T232 143T288 128ZM391 0V131L414 249L391 367V486H541V0H391ZM288 533Q250 533 221 550T174 596T156 662Q156 699 173 728T220 774T288 792Q325 792 354 775T401 728T418 662Q418 625 401 596T355 550T288 533ZM288
617Q306 617 318 630T331 662Q331 682 319 694T288 707Q268 707 256 694T244 662Q244 643 256 630T288 617Z" />
<glyph unicode="&#xe6;" horiz-adv-x="935" d="M257 -10Q190 -10 138 23T55 113T24 243Q24 316 54 373T137 463T257 496Q306 496 345 477T410 425T438 348V138Q435 95 411 62T346 9T257 -10ZM288 128Q337 128 367 160T397 243Q397 277 384 303T346 343T289 358Q257
358 233 344T194 303T179 243Q179 210 193 184T232 143T288 128ZM391 0V131L414 249L391 367V486H541V0H391ZM691 -11Q619 -11 566 21T483 112T454 243Q454 298 471 344T518 424T589 478T678 497Q748 497 801 466T885 380T915 254Q915 241 914 227T908 193L489
192V297L843 298L777 254Q776 296 764 323T729 365T671 380Q635 380 609 364T568 317T553 244Q553 201 568 171T612 124T680 107Q716 107 745 119T796 157L880 73Q844 31 797 10T691 -11Z" />
<glyph unicode="&#xe7;" horiz-adv-x="496" d="M289 -11Q214 -11 153 22T57 113T22 243Q22 316 57 373T154 464T291 497Q348 497 395 478T480 419L382 321Q365 340 343 349T291 358Q258 358 233 344T193 304T178 244Q178 210 192 184T233 143T291 128Q321 128
344 138T385 168L482 70Q444 30 396 10T289 -11ZM253 -215Q213 -215 185 -206T128 -179L175 -117Q188 -127 203 -132T238 -138Q259 -138 268 -132T277 -116Q277 -107 266 -100T232 -93H200L234 13H320L294 -60L250 -25Q316 -24 352 -50T389 -120Q389 -160 352 -187T253
-215Z" />
<glyph unicode="&#xe8;" horiz-adv-x="548" d="M294 -11Q215 -11 154 21T57 112T22 243Q22 316 56 373T150 464T283 497Q355 497 410 466T496 380T528 254Q528 241 527 227T521 193L102 192V297L456 298L390 254Q389 296 377 323T342 365T284 380Q248 380 222
364T181 317T166 244Q166 201 181 171T225 124T293 107Q329 107 358 119T409 157L493 73Q457 31 406 10T294 -11ZM336 541L143 645L227 763L386 614L336 541Z" />
<glyph unicode="&#xe9;" horiz-adv-x="548" d="M294 -11Q215 -11 154 21T57 112T22 243Q22 316 56 373T150 464T283 497Q355 497 410 466T496 380T528 254Q528 241 527 227T521 193L102 192V297L456 298L390 254Q389 296 377 323T342 365T284 380Q248 380 222
364T181 317T166 244Q166 201 181 171T225 124T293 107Q329 107 358 119T409 157L493 73Q457 31 406 10T294 -11ZM211 541L161 614L320 763L404 645L211 541Z" />
<glyph unicode="&#xea;" horiz-adv-x="548" d="M294 -11Q215 -11 154 21T57 112T22 243Q22 316 56 373T150 464T283 497Q355 497 410 466T496 380T528 254Q528 241 527 227T521 193L102 192V297L456 298L390 254Q389 296 377 323T342 365T284 380Q248 380 222
364T181 317T166 244Q166 201 181 171T225 124T293 107Q329 107 358 119T409 157L493 73Q457 31 406 10T294 -11ZM143 537L93 603L239 748H327L473 603L423 537L226 659H342L143 537Z" />
<glyph unicode="&#xeb;" horiz-adv-x="548" d="M294 -11Q215 -11 154 21T57 112T22 243Q22 316 56 373T150 464T283 497Q355 497 410 466T496 380T528 254Q528 241 527 227T521 193L102 192V297L456 298L390 254Q389 296 377 323T342 365T284 380Q248 380 222
364T181 317T166 244Q166 201 181 171T225 124T293 107Q329 107 358 119T409 157L493 73Q457 31 406 10T294 -11ZM174 548Q138 548 115 572T91 632Q91 668 114 692T174 716Q210 716 233 692T256 632Q256 597 233 573T174 548ZM394 548Q358 548 335 572T311 632Q311
668 334 692T394 716Q430 716 453 692T476 632Q476 597 453 573T394 548Z" />
<glyph unicode="&#xec;" horiz-adv-x="261" d="M54 0V486H207V0H54ZM440 541L247 645L331 763L490 614L440 541Z" />
<glyph unicode="&#xed;" horiz-adv-x="261" d="M54 0V486H207V0H54ZM315 541L265 614L424 763L508 645L315 541Z" />
<glyph unicode="&#xee;" horiz-adv-x="261" d="M54 0V486H207V0H54ZM246 537L196 603L342 748H430L576 603L526 537L329 659H445L246 537Z" />
<glyph unicode="&#xef;" horiz-adv-x="261" d="M54 0V486H207V0H54ZM277 548Q241 548 218 572T194 632Q194 668 217 692T277 716Q313 716 336 692T359 632Q359 597 336 573T277 548ZM497 548Q461 548 438 572T414 632Q414 668 437 692T497 716Q533 716 556 692T579
632Q579 597 556 573T497 548Z" />
<glyph unicode="&#xf0;" horiz-adv-x="573" d="M287 -11Q214 -11 155 22T60 111T25 237Q25 305 57 357T142 440T260 471Q298 471 321 462T360 435T390 393L331 398L110 706H287L486 417Q549 325 549 235Q549 166 515 111T421 22T287 -11ZM287 126Q319 126 343
141T382 182T396 240Q396 273 382 298T344 338T287 353Q256 353 231 339T192 299T178 240Q178 208 192 182T231 141T287 126ZM98 480L64 566L444 706L477 620L98 480Z" />
<glyph unicode="&#xf1;" horiz-adv-x="572" d="M375 0V277Q375 315 352 338T292 362Q267 362 248 352T218 322T207 277L148 306Q148 363 173 406T242 472T343 496Q397 496 438 471T504 403T528 311V0H375ZM54 0V486H207V0H54ZM360 542Q328 542 305 553T262 575T219
586Q196 586 180 577T150 548L77 620Q106 663 138 684T214 705Q246 705 269 694T313 672T355 660Q379 660 395 669T424 699L497 626Q468 584 436 563T360 542Z" />
<glyph unicode="&#xf2;" horiz-adv-x="576" d="M288 -11Q213 -11 153 22T57 114T22 244Q22 316 57 373T152 463T288 497Q364 497 424 464T519 374T554 244Q554 172 519 114T424 23T288 -11ZM288 128Q321 128 346 142T384 183T398 244Q398 278 384 303T346 343T288
358Q256 358 231 344T192 303T178 243Q178 210 192 184T231 143T288 128ZM341 541L148 645L232 763L391 614L341 541Z" />
<glyph unicode="&#xf3;" horiz-adv-x="576" d="M288 -11Q213 -11 153 22T57 114T22 244Q22 316 57 373T152 463T288 497Q364 497 424 464T519 374T554 244Q554 172 519 114T424 23T288 -11ZM288 128Q321 128 346 142T384 183T398 244Q398 278 384 303T346 343T288
358Q256 358 231 344T192 303T178 243Q178 210 192 184T231 143T288 128ZM216 541L166 614L325 763L409 645L216 541Z" />
<glyph unicode="&#xf4;" horiz-adv-x="576" d="M288 -11Q213 -11 153 22T57 114T22 244Q22 316 57 373T152 463T288 497Q364 497 424 464T519 374T554 244Q554 172 519 114T424 23T288 -11ZM288 128Q321 128 346 142T384 183T398 244Q398 278 384 303T346 343T288
358Q256 358 231 344T192 303T178 243Q178 210 192 184T231 143T288 128ZM148 537L98 603L244 748H332L478 603L428 537L231 659H347L148 537Z" />
<glyph unicode="&#xf5;" horiz-adv-x="576" d="M288 -11Q213 -11 153 22T57 114T22 244Q22 316 57 373T152 463T288 497Q364 497 424 464T519 374T554 244Q554 172 519 114T424 23T288 -11ZM288 128Q321 128 346 142T384 183T398 244Q398 278 384 303T346 343T288
358Q256 358 231 344T192 303T178 243Q178 210 192 184T231 143T288 128ZM361 542Q329 542 306 553T263 575T220 586Q197 586 181 577T151 548L78 620Q107 663 139 684T215 705Q247 705 270 694T314 672T356 660Q380 660 396 669T425 699L498 626Q469 584 437 563T361
542Z" />
<glyph unicode="&#xf6;" horiz-adv-x="576" d="M288 -11Q213 -11 153 22T57 114T22 244Q22 316 57 373T152 463T288 497Q364 497 424 464T519 374T554 244Q554 172 519 114T424 23T288 -11ZM288 128Q321 128 346 142T384 183T398 244Q398 278 384 303T346 343T288
358Q256 358 231 344T192 303T178 243Q178 210 192 184T231 143T288 128ZM179 548Q143 548 120 572T96 632Q96 668 119 692T179 716Q215 716 238 692T261 632Q261 597 238 573T179 548ZM399 548Q363 548 340 572T316 632Q316 668 339 692T399 716Q435 716 458 692T481
632Q481 597 458 573T399 548Z" />
<glyph unicode="&#xf7;" horiz-adv-x="563" d="M49 271V398H514V271H49ZM282 65Q246 65 222 90T198 150Q198 187 222 211T282 236Q319 236 342 212T366 150Q366 115 343 90T282 65ZM282 435Q246 435 222 459T198 519Q198 556 222 580T282 605Q319 605 342 581T366
519Q366 484 343 460T282 435Z" />
<glyph unicode="&#xf8;" horiz-adv-x="576" d="M287 -11Q212 -11 152 22T57 114T22 244Q22 316 57 373T152 463T288 497Q364 497 424 464T519 374T554 244Q554 172 519 114T424 23T287 -11ZM287 113Q325 113 353 129T397 175T413 243Q413 282 397 311T353 357T287
374Q251 374 223 358T178 312T162 244Q162 205 178 176T222 130T287 113ZM88 -30L16 42L488 515L560 443L88 -30Z" />
<glyph unicode="&#xf9;" horiz-adv-x="539" d="M270 -11Q203 -11 152 16T71 92T42 204V486H195V206Q195 181 203 163T229 135T270 125Q304 125 324 146T344 206V486H497V205Q497 141 468 93T388 17T270 -11ZM323 541L130 645L214 763L373 614L323 541Z" />
<glyph unicode="&#xfa;" horiz-adv-x="539" d="M270 -11Q203 -11 152 16T71 92T42 204V486H195V206Q195 181 203 163T229 135T270 125Q304 125 324 146T344 206V486H497V205Q497 141 468 93T388 17T270 -11ZM198 541L148 614L307 763L391 645L198 541Z" />
<glyph unicode="&#xfb;" horiz-adv-x="539" d="M270 -11Q203 -11 152 16T71 92T42 204V486H195V206Q195 181 203 163T229 135T270 125Q304 125 324 146T344 206V486H497V205Q497 141 468 93T388 17T270 -11ZM130 537L80 603L226 748H314L460 603L410 537L213 659H329L130
537Z" />
<glyph unicode="&#xfc;" horiz-adv-x="539" d="M270 -11Q203 -11 152 16T71 92T42 204V486H195V206Q195 181 203 163T229 135T270 125Q304 125 324 146T344 206V486H497V205Q497 141 468 93T388 17T270 -11ZM161 548Q125 548 102 572T78 632Q78 668 101 692T161
716Q197 716 220 692T243 632Q243 597 220 573T161 548ZM381 548Q345 548 322 572T298 632Q298 668 321 692T381 716Q417 716 440 692T463 632Q463 597 440 573T381 548Z" />
<glyph unicode="&#xfd;" horiz-adv-x="534" d="M204 -2L4 486H169L296 99H235L365 486H530L322 -2H204ZM79 -205L225 110L322 -2L236 -205H79ZM195 541L145 614L304 763L388 645L195 541Z" />
<glyph unicode="&#xfe;" horiz-adv-x="595" d="M334 -10Q285 -10 244 9T177 61T147 138V343Q151 386 177 421T244 476T334 496Q403 496 456 463T540 373T571 243Q571 170 541 113T457 23T334 -10ZM307 128Q339 128 363 142T402 183T416 243Q416 277 402 303T364
343T307 358Q275 358 251 344T212 303T198 243Q198 210 211 184T249 143T307 128ZM54 -205V726H207V361L182 243L205 125V-205H54Z" />
<glyph unicode="&#xff;" horiz-adv-x="534" d="M204 -2L4 486H169L296 99H235L365 486H530L322 -2H204ZM79 -205L225 110L322 -2L236 -205H79ZM158 548Q122 548 99 572T75 632Q75 668 98 692T158 716Q194 716 217 692T240 632Q240 597 217 573T158 548ZM378 548Q342
548 319 572T295 632Q295 668 318 692T378 716Q414 716 437 692T460 632Q460 597 437 573T378 548Z" />
<glyph unicode="&#x2013;" horiz-adv-x="568" d="M54 193V317H514V193H54Z" />
<glyph unicode="&#x2014;" horiz-adv-x="867" d="M54 194V316H809V194H54Z" />
<glyph unicode="&#x2018;" horiz-adv-x="261" d="M219 695L146 559L100 546Q108 561 118 570T141 580Q170 580 193 557T217 496Q217 457 191 429T125 401Q88 401 61 428T33 496Q33 512 39 533T64 588L144 736L219 695Z" />
<glyph unicode="&#x2019;" horiz-adv-x="261" d="M43 422L116 559L161 571Q154 557 144 547T121 537Q92 537 68 561T44 622Q44 661 70 688T136 716Q173 716 200 689T228 622Q228 606 222 585T198 530L117 382L43 422Z" />
<glyph unicode="&#x201a;" horiz-adv-x="283" d="M54 -120L127 16L172 29Q165 14 155 5T132 -5Q103 -5 79 19T55 79Q55 118 81 146T147 174Q184 174 211 147T239 79Q239 63 233 42T209 -13L128 -161L54 -120Z" />
<glyph unicode="&#x201c;" horiz-adv-x="487" d="M219 695L146 559L100 546Q108 561 118 570T141 580Q170 580 193 557T217 496Q217 457 191 429T125 401Q88 401 61 428T33 496Q33 512 39 533T64 588L144 736L219 695ZM444 695L371 559L326 546Q333 561 343 570T366
580Q395 580 419 557T443 496Q443 457 417 429T351 401Q314 401 287 428T259 496Q259 512 265 533T289 588L370 736L444 695Z" />
<glyph unicode="&#x201d;" horiz-adv-x="487" d="M268 422L341 559L387 571Q379 557 369 547T346 537Q318 537 294 561T270 622Q270 661 296 688T362 716Q399 716 426 689T454 622Q454 606 448 585T423 530L343 382L268 422ZM43 422L116 559L161 571Q154 557 144
547T121 537Q92 537 68 561T44 622Q44 661 70 688T136 716Q173 716 200 689T228 622Q228 606 222 585T198 530L117 382L43 422Z" />
<glyph unicode="&#x201e;" horiz-adv-x="509" d="M279 -120L352 17L398 29Q390 15 380 5T357 -5Q329 -5 305 19T281 80Q281 119 307 146T373 174Q410 174 437 147T465 80Q465 64 459 43T434 -12L354 -160L279 -120ZM54 -120L127 17L172 29Q165 15 155 5T132 -5Q103
-5 79 19T55 80Q55 119 81 146T147 174Q184 174 211 147T239 80Q239 64 233 43T209 -12L128 -160L54 -120Z" />
<glyph unicode="&#x2022;" horiz-adv-x="351" d="M176 248Q140 248 113 264T70 308T54 370Q54 403 69 431T112 475T176 492Q211 492 238 476T281 431T297 370Q297 336 282 308T239 264T176 248Z" />
<glyph unicode="&#x2039;" horiz-adv-x="291" d="M126 72L24 245L126 418H268L161 245L268 72H126Z" />
<glyph unicode="&#x203a;" horiz-adv-x="291" d="M23 72L130 245L23 418H165L267 245L165 72H23Z" />
</font>
</defs>
</svg>
