<?xml version="1.0" standalone="no"?>
<!DOCTYPE svg PUBLIC "-//W3C//DTD SVG 1.1//EN" "http://www.w3.org/Graphics/SVG/1.1/DTD/svg11.dtd">
<svg xmlns="http://www.w3.org/2000/svg">
<defs >
<font id="Outfit" horiz-adv-x="559" ><font-face
    font-family="Outfit Thin"
    units-per-em="1000"
    panose-1="0 0 0 0 0 0 0 0 0 0"
    ascent="1000"
    descent="-260"
    alphabetic="0" />
<glyph unicode=" " horiz-adv-x="208" />
<glyph unicode="!" horiz-adv-x="261" d="M93 220L80 714H176L163 220H93ZM127 -10Q99 -10 81 9T63 56Q63 84 81 102T127 121Q156 121 174 103T192 56Q192 28 174 9T127 -10Z" />
<glyph unicode="&quot;" horiz-adv-x="400" d="M253 470L232 714H332L310 470H253ZM90 470L69 714H168L147 470H90Z" />
<glyph unicode="#" horiz-adv-x="640" d="M332 0L438 694H515L409 0H332ZM48 214V287H560V214H48ZM118 0L224 694H301L195 0H118ZM79 421V494H591V421H79Z" />
<glyph unicode="$" horiz-adv-x="588" d="M290 -10Q214 -10 158 20T57 107L120 170Q152 125 194 99T293 73Q354 73 391 101T429 179Q429 218 411 242T363 281T297 309T226 336T160 372T112 429T94 517Q94 576 122 617T200 681T310 704Q373 704 425 678T511 608L448
545Q417 581 383 601T308 621Q250 621 217 596T184 523Q184 488 202 467T251 430T317 403T389 375T456 337T504 278T523 186Q523 94 460 42T290 -10ZM276 -100V794H342V-100H276Z" />
<glyph unicode="%" horiz-adv-x="660" d="M190 423Q152 423 120 442T69 493T50 564Q50 604 68 635T119 685T190 704Q230 704 262 685T313 635T332 564Q332 525 313 493T263 442T190 423ZM190 494Q220 494 239 513T258 564Q258 595 239 614T190 633Q161 633 143
614T124 564Q124 533 142 514T190 494ZM469 -10Q430 -10 398 9T347 59T328 131Q328 170 347 201T398 252T469 271Q508 271 540 252T592 202T611 131Q611 91 592 60T541 9T469 -10ZM469 61Q499 61 518 80T537 131Q537 161 518 180T469 200Q440 200 421 181T402 131Q402
100 421 81T469 61ZM62 0L507 694H598L153 0H62Z" />
<glyph unicode="&amp;" horiz-adv-x="659" d="M537 0L205 356Q166 398 147 436T128 520Q128 573 153 614T222 680T323 705Q365 705 399 692T460 656T505 606L440 547Q417 579 390 598T323 618Q278 618 248 591T218 521Q218 485 233 460T278 402L647 0H537ZM288
-10Q219 -10 167 17T87 91T58 200Q58 263 92 314T191 395L234 339Q194 319 171 285T148 202Q148 163 166 135T216 92T291 76Q344 76 381 98T437 154L496 85Q476 58 444 37T372 3T288 -10Z" />
<glyph unicode="&apos;" horiz-adv-x="237" d="M90 470L69 714H168L147 470H90Z" />
<glyph unicode="(" horiz-adv-x="303" d="M221 -116Q166 -70 127 -3T67 145T46 311Q46 397 67 477T127 624T221 738L273 691Q202 629 164 531T125 311Q125 190 163 92T273 -69L221 -116Z" />
<glyph unicode=")" horiz-adv-x="302" d="M82 -116L30 -69Q101 -6 139 92T177 311Q177 433 139 531T30 691L82 738Q137 692 176 625T236 477T257 311Q257 225 236 145T176 -2T82 -116Z" />
<glyph unicode="*" horiz-adv-x="490" d="M228 342L220 501L87 415L49 490L197 546L75 643L134 702L233 581L289 728L365 690L278 558L438 550L425 468L270 509L312 355L228 342Z" />
<glyph unicode="+" horiz-adv-x="542" d="M59 294V375H483V294H59ZM230 557H313V112H230V557Z" />
<glyph unicode="," horiz-adv-x="275" d="M71 -110L133 9L165 17Q160 6 153 -1T134 -8Q113 -8 96 9T78 53Q78 82 97 101T145 121Q171 121 191 102T211 53Q211 42 207 27T189 -13L123 -138L71 -110Z" />
<glyph unicode="-" horiz-adv-x="461" d="M66 212V297H395V212H66Z" />
<glyph unicode="." horiz-adv-x="290" d="M145 -10Q117 -10 99 9T80 56Q80 84 98 102T145 121Q173 121 191 103T210 56Q210 29 192 10T145 -10Z" />
<glyph unicode="/" horiz-adv-x="390" d="M14 -40L292 733H376L99 -40H14Z" />
<glyph unicode="0" horiz-adv-x="656" d="M330 -10Q252 -10 188 34T85 158T47 348Q47 457 84 537T186 660T327 704Q406 704 470 661T571 537T609 347Q609 238 572 158T471 34T330 -10ZM328 79Q383 79 424 109T490 200T514 348Q514 436 490 495T424 585T327 616Q273
616 231 586T166 496T142 348Q142 260 165 200T231 110T328 79Z" />
<glyph unicode="1" horiz-adv-x="347" d="M173 0V694H266V0H173ZM31 610V694H256V610H31Z" />
<glyph unicode="2" horiz-adv-x="541" d="M33 57L289 327Q328 367 350 396T381 451T391 503Q391 556 357 586T269 616Q216 616 176 591T105 512L39 567Q80 635 138 669T272 704Q336 704 383 679T457 609T483 504Q483 461 473 427T436 358T362 273L155 60L33 57ZM33
0V57L113 84H499V0H33Z" />
<glyph unicode="3" horiz-adv-x="538" d="M247 -10Q179 -10 124 15T30 90L94 154Q117 119 157 99T246 78Q292 78 325 95T378 145T398 219Q398 262 379 293T324 342T241 359Q223 359 205 357T170 349L210 403Q229 412 251 417T295 422Q351 422 395 396T466 323T493
214Q493 148 462 98T375 19T247 -10ZM170 349V406L373 637L485 638L276 401L170 349ZM63 610V694H485V638L403 610H63Z" />
<glyph unicode="4" horiz-adv-x="598" d="M33 239L286 694H392L134 239H33ZM33 181V239L73 265H565V181H33ZM372 0V459H465V0H372Z" />
<glyph unicode="5" horiz-adv-x="541" d="M248 -10Q177 -10 122 15T28 90L92 154Q115 119 155 99T246 78Q293 78 328 96T384 146T405 224Q405 270 385 302T332 350T258 367Q217 367 184 357T120 323L121 383Q138 404 160 417T210 437T275 444Q347 444 397 414T473
333T500 219Q500 153 468 101T378 20T248 -10ZM120 323L69 374L100 694H186L151 365L120 323ZM119 610L100 694H465V610H119Z" />
<glyph unicode="6" horiz-adv-x="564" d="M282 -10Q213 -10 159 22T72 108T40 228Q40 320 104 411L308 694H417L208 409L174 391Q186 412 203 426T245 449T304 457Q365 457 414 428T494 349T525 231Q525 165 493 110T405 23T282 -10ZM282 78Q324 78 357 98T410
153T430 231Q430 274 411 308T358 363T282 383Q240 383 207 363T154 309T134 231Q134 188 153 153T206 98T282 78Z" />
<glyph unicode="7" horiz-adv-x="525" d="M140 0L400 639L493 636L239 0H140ZM31 610V694H493V636L452 610H31Z" />
<glyph unicode="8" horiz-adv-x="550" d="M275 -10Q206 -10 154 16T72 88T43 192Q43 239 61 278T114 344T196 384L199 357Q159 368 131 392T89 450T74 522Q74 576 100 617T171 681T275 705Q334 705 379 682T450 617T476 522Q476 484 462 451T420 393T352 357L354
384Q402 372 436 345T489 278T508 192Q508 134 479 88T398 16T275 -10ZM275 75Q317 75 348 91T398 137T417 204Q417 241 399 270T349 315T275 332Q234 332 202 316T152 270T133 204Q133 166 151 137T202 92T275 75ZM275 405Q325 405 357 436T389 516Q389 564 357
594T275 625Q226 625 194 595T162 516Q162 467 194 436T275 405Z" />
<glyph unicode="9" horiz-adv-x="564" d="M147 0L356 285L390 303Q378 283 361 268T320 245T260 237Q200 237 150 266T69 346T39 463Q39 530 72 584T160 671T282 704Q350 704 405 672T492 587T524 466Q524 374 460 283L256 0H147ZM282 311Q324 311 357 331T410
386T430 463Q430 507 411 541T358 596T282 616Q240 616 207 596T153 542T133 463Q133 420 153 386T207 332T282 311Z" />
<glyph unicode=":" horiz-adv-x="271" d="M135 -10Q107 -10 89 9T70 55Q70 84 88 102T135 121Q163 121 181 103T200 55Q200 29 182 10T135 -10ZM135 302Q107 302 89 321T70 367Q70 396 88 414T135 433Q163 433 181 415T200 367Q200 340 182 321T135 302Z" />
<glyph unicode=";" horiz-adv-x="269" d="M66 -110L128 9L159 17Q154 6 147 -1T129 -8Q108 -8 91 9T73 53Q73 81 92 101T140 121Q166 121 186 102T206 53Q206 42 202 27T184 -13L117 -138L66 -110ZM135 302Q107 302 89 321T71 367Q71 396 89 414T135 433Q163 433
181 415T200 367Q200 340 182 321T135 302Z" />
<glyph unicode="&lt;" horiz-adv-x="550" d="M480 113L55 303V368L480 558V467L129 318V352L480 203V113Z" />
<glyph unicode="=" horiz-adv-x="542" d="M59 409V490H483V409H59ZM59 179V260H483V179H59Z" />
<glyph unicode="&gt;" horiz-adv-x="550" d="M70 467V558L495 368V303L70 113V203L421 352V318L70 467Z" />
<glyph unicode="?" horiz-adv-x="505" d="M219 220L218 410L245 411Q280 411 306 426T348 467T363 525Q363 558 349 583T308 622T245 636Q197 636 162 612T106 544L40 599Q69 658 123 691T249 724Q310 724 357 700T430 632T456 531Q456 479 433 437T367 367T266
331L305 371L297 220H219ZM257 -10Q229 -10 211 9T192 56Q192 84 210 102T257 121Q285 121 303 103T322 56Q322 28 304 9T257 -10Z" />
<glyph unicode="@" horiz-adv-x="750" d="M360 90Q321 90 290 109T239 162T219 236Q219 277 238 310T289 363T360 383Q408 383 438 360T469 291V182Q469 138 439 114T360 90ZM364 153Q400 153 421 176T443 237Q443 275 422 298T364 321Q331 321 309 298T286 237Q286
200 308 177T364 153ZM448 97V171L458 241L448 308V377H513V97H448ZM545 38L595 -13Q551 -51 496 -70T378 -90Q310 -90 251 -66T147 3T78 106T53 236Q53 306 78 365T149 469T254 539T384 564Q476 564 546 522T657 407T698 239Q698 196 690 162T662 97L585 101Q599
121 607 141T620 187T624 244Q624 323 596 378T514 463T385 493Q309 493 252 461T163 372T131 235Q131 157 161 100T248 12T376 -20Q429 -20 471 -6T545 38ZM476 156H662V97H476V156Z" />
<glyph unicode="A" horiz-adv-x="696" d="M31 0L315 694H383L666 0H564L331 587H366L131 0H31ZM166 157V239H531V157H166Z" />
<glyph unicode="B" horiz-adv-x="623" d="M145 0V82H355Q415 82 449 117T483 203Q483 237 468 264T425 308T358 324H145V406H344Q394 406 423 432T453 509Q453 559 422 585T340 612H145V694H342Q410 694 455 670T524 605T548 517Q548 461 518 419T428 353L436
383Q503 359 540 311T578 196Q578 141 551 97T474 27T350 0H145ZM82 0V694H176V0H82Z" />
<glyph unicode="C" horiz-adv-x="688" d="M397 -10Q322 -10 258 17T147 94T73 208T47 347Q47 422 73 487T146 600T257 676T396 704Q478 704 540 676T650 600L585 535Q552 572 505 593T396 614Q341 614 295 595T215 539T163 454T144 347Q144 289 162 240T215 155T295
100T396 80Q461 80 509 101T590 160L655 96Q607 46 543 18T397 -10Z" />
<glyph unicode="D" horiz-adv-x="740" d="M144 0V86H337Q414 86 472 119T562 212T595 348Q595 424 562 483T471 575T337 608H145V694H339Q415 694 479 668T591 595T665 485T692 347Q692 273 666 210T592 99T481 26T341 0H144ZM82 0V694H176V0H82Z" />
<glyph unicode="E" horiz-adv-x="590" d="M82 0V694H176V0H82ZM146 0V86H544V0H146ZM146 314V396H511V314H146ZM146 608V694H539V608H146Z" />
<glyph unicode="F" horiz-adv-x="566" d="M82 0V694H176V0H82ZM146 305V391H508V305H146ZM146 608V694H525V608H146Z" />
<glyph unicode="G" horiz-adv-x="773" d="M396 -10Q323 -10 260 17T149 94T74 208T47 348Q47 423 74 487T149 601T261 677T402 704Q485 704 555 672T672 580L607 515Q574 563 520 588T402 614Q326 614 268 580T177 486T144 348Q144 269 177 209T266 115T394 81Q467
81 520 109T603 191T632 325L689 284H389V370H729V356Q729 235 687 154T569 31T396 -10Z" />
<glyph unicode="H" horiz-adv-x="706" d="M82 0V694H176V0H82ZM530 0V694H624V0H530ZM146 316V402H553V316H146Z" />
<glyph unicode="I" horiz-adv-x="258" d="M82 0V694H176V0H82Z" />
<glyph unicode="J" horiz-adv-x="495" d="M210 -10Q150 -10 105 13T30 77L96 138Q115 110 143 95T207 80Q242 80 269 95T311 139T327 212V694H421V217Q421 148 394 97T319 18T210 -10Z" />
<glyph unicode="K" horiz-adv-x="666" d="M511 0L161 362L504 694H626L256 338V390L636 0H511ZM82 0V694H176V0H82Z" />
<glyph unicode="L" horiz-adv-x="552" d="M82 0V694H176V0H82ZM146 0V86H518V0H146Z" />
<glyph unicode="M" horiz-adv-x="839" d="M82 0V694H148L442 211H397L691 694H757V0H663V529L685 523L453 142H387L155 523L176 529V0H82Z" />
<glyph unicode="N" horiz-adv-x="710" d="M82 0V694H148L176 585V0H82ZM562 0L136 569L148 694L575 126L562 0ZM562 0L534 103V694H628V0H562Z" />
<glyph unicode="O" horiz-adv-x="794" d="M398 -10Q324 -10 260 17T148 94T74 209T47 348Q47 423 73 487T147 601T258 677T396 704Q470 704 533 677T645 601T720 487T747 347Q747 273 720 208T646 94T535 18T398 -10ZM396 80Q471 80 527 114T617 209T650 348Q650
406 631 454T578 539T498 594T396 614Q322 614 266 580T177 486T144 348Q144 290 162 241T214 156T294 100T396 80Z" />
<glyph unicode="P" horiz-adv-x="606" d="M145 270V352H334Q373 352 403 368T451 413T469 482Q469 522 452 551T404 596T334 612H145V694H340Q404 694 454 668T534 595T564 482Q564 418 535 371T455 297T340 270H145ZM82 0V694H176V0H82Z" />
<glyph unicode="Q" horiz-adv-x="817" d="M399 -10Q325 -10 261 17T149 94T74 209T47 348Q47 423 74 487T148 601T259 677T397 704Q471 704 534 677T646 601T720 487T747 347Q747 273 721 208T647 94T536 18T399 -10ZM397 80Q471 80 528 114T617 209T650 348Q650
406 632 454T579 539T499 594T397 614Q323 614 266 580T177 486T144 348Q144 290 163 241T215 156T295 100T397 80ZM731 -49L406 276L467 337L791 12L731 -49Z" />
<glyph unicode="R" horiz-adv-x="630" d="M145 302V381H333Q394 381 427 412T460 496Q460 546 428 579T334 612H145V694H337Q403 694 452 669T527 599T554 498Q554 439 528 395T452 327T337 302H145ZM82 0V694H176V0H82ZM482 0L230 311L319 342L601 0H482Z" />
<glyph unicode="S" horiz-adv-x="555" d="M275 -10Q193 -10 135 20T32 107L96 171Q129 125 172 102T278 78Q340 78 377 105T415 179Q415 218 397 242T349 281T282 309T210 336T144 372T96 429T77 517Q77 576 105 617T183 681T295 704Q363 704 417 678T505 608L441
544Q410 580 375 598T293 616Q237 616 204 592T171 523Q171 488 189 467T238 430T304 403T377 375T443 337T491 278T510 186Q510 94 447 42T275 -10Z" />
<glyph unicode="T" horiz-adv-x="625" d="M266 0V674H360V0H266ZM30 608V694H595V608H30Z" />
<glyph unicode="U" horiz-adv-x="683" d="M342 -10Q265 -10 205 24T109 119T74 257V694H168V259Q168 204 191 164T253 102T342 80Q393 80 431 102T492 164T515 258V694H610V256Q610 179 575 119T480 25T342 -10Z" />
<glyph unicode="V" horiz-adv-x="688" d="M309 0L31 694H133L362 107H325L556 694H657L377 0H309Z" />
<glyph unicode="W" horiz-adv-x="981" d="M259 0L32 694H126L306 128H279L456 694H524L701 128H675L855 694H948L722 0H655L477 565H503L326 0H259Z" />
<glyph unicode="X" horiz-adv-x="691" d="M551 0L333 318H316L42 694H154L370 395H387L661 0H551ZM30 0L299 369L363 313L136 0H30ZM393 335L330 391L544 694H650L393 335Z" />
<glyph unicode="Y" horiz-adv-x="665" d="M302 282L29 694H138L358 357H309L530 694H637L362 282H302ZM286 0V344H380V0H286Z" />
<glyph unicode="Z" horiz-adv-x="583" d="M39 65L431 630H541L149 65H39ZM39 0V65L119 86H534V0H39ZM60 608V694H541V630L460 608H60Z" />
<glyph unicode="[" horiz-adv-x="338" d="M79 -96V714H155V-96H79ZM116 -96V-24H302V-96H116ZM116 643V714H302V643H116Z" />
<glyph unicode="\" horiz-adv-x="390" d="M292 -40L14 733H99L376 -40H292Z" />
<glyph unicode="]" horiz-adv-x="338" d="M183 -96V714H259V-96H183ZM36 -96V-24H222V-96H36ZM36 643V714H222V643H36Z" />
<glyph unicode="^" horiz-adv-x="453" d="M324 457L209 664H245L129 457H53L196 714H256L400 457H324Z" />
<glyph unicode="_" horiz-adv-x="505" d="M20 -124V-46H485V-124H20Z" />
<glyph unicode="`" horiz-adv-x="281" d="M200 524L40 655L111 725L241 564L200 524Z" />
<glyph unicode="a" horiz-adv-x="582" d="M268 -10Q203 -10 150 22T67 111T36 237Q36 307 66 363T149 452T268 485Q322 485 364 463T433 401T462 309V166Q459 115 434 75T366 13T268 -10ZM283 75Q350 75 391 120T432 237Q432 286 414 322T361 379T282 400Q237
400 203 379T149 322T129 238Q129 190 148 154T203 96T283 75ZM426 0V128L443 244L426 359V475H517V0H426Z" />
<glyph unicode="b" horiz-adv-x="582" d="M316 -10Q262 -10 219 12T149 75T120 166V309Q123 361 149 400T219 462T316 485Q381 485 433 452T516 363T546 237Q546 167 516 111T434 23T316 -10ZM301 75Q346 75 380 96T434 153T454 238Q454 285 434 322T380 379T302
400Q257 400 223 380T170 322T151 237Q151 190 169 154T222 96T301 75ZM66 0V714H156V359L139 244L156 128V0H66Z" />
<glyph unicode="c" horiz-adv-x="489" d="M283 -10Q213 -10 157 23T68 112T35 238Q35 308 67 364T156 452T283 485Q338 485 385 465T466 405L406 345Q384 371 353 384T283 398Q238 398 203 378T148 321T128 238Q128 191 148 155T203 98T283 77Q321 77 352 90T407
130L466 70Q433 32 386 11T283 -10Z" />
<glyph unicode="d" horiz-adv-x="582" d="M267 -10Q201 -10 149 22T67 111T36 237Q36 307 66 363T149 452T267 485Q320 485 363 463T432 401T462 309V166Q459 115 433 75T364 13T267 -10ZM282 75Q327 75 360 96T413 153T432 237Q432 286 413 322T360 379T281 400Q236
400 202 379T149 322T129 238Q129 190 148 154T202 96T282 75ZM517 0H426V128L443 244L426 359V714H517V0Z" />
<glyph unicode="e" horiz-adv-x="536" d="M286 -10Q215 -10 158 22T68 111T35 238Q35 308 67 364T155 452T280 485Q346 485 396 455T475 372T504 252Q504 242 503 231T499 204H98V279H451L418 250Q418 298 401 331T353 383T278 402Q232 402 197 382T143 326T124
241Q124 191 144 154T201 96T286 75Q326 75 359 89T417 131L475 72Q441 32 392 11T286 -10Z" />
<glyph unicode="f" horiz-adv-x="399" d="M134 0V546Q134 599 157 638T220 701T315 724Q356 724 386 710T441 669L382 611Q369 625 353 632T314 640Q271 640 248 615T224 546V0H134ZM17 393V475H375V393H17Z" />
<glyph unicode="g" horiz-adv-x="579" d="M263 -209Q190 -209 134 -182T43 -106L101 -47Q130 -84 170 -103T265 -123Q338 -123 380 -85T423 19V137L439 244L423 350V475H513V19Q513 -49 482 -100T394 -180T263 -209ZM263 8Q198 8 147 39T65 124T35 247Q35 315
65 368T146 453T263 485Q319 485 362 463T430 402T458 309V183Q455 131 430 92T361 30T263 8ZM281 93Q325 93 358 112T410 165T428 246Q428 292 410 326T358 380T280 400Q235 400 201 381T148 327T128 247Q128 202 147 167T201 113T281 93Z" />
<glyph unicode="h" horiz-adv-x="548" d="M402 0V277Q402 331 368 366T280 401Q244 401 216 385T172 341T156 277L119 298Q119 352 143 394T210 460T307 485Q361 485 402 461T468 394T492 295V0H402ZM66 0V714H156V0H66Z" />
<glyph unicode="i" horiz-adv-x="224" d="M67 0V475H157V0H67ZM112 570Q87 570 71 586T55 628Q55 652 71 668T112 685Q137 685 153 669T169 628Q169 603 153 587T112 570Z" />
<glyph unicode="j" horiz-adv-x="230" d="M6 -209Q-40 -209 -71 -194T-128 -151L-70 -92Q-56 -109 -40 -117T0 -125Q30 -125 52 -107T74 -51V475H164V-50Q164 -102 142 -137T84 -190T6 -209ZM120 570Q96 570 80 586T64 628Q64 652 80 668T120 685Q145 685 161
669T177 628Q177 603 161 587T120 570Z" />
<glyph unicode="k" horiz-adv-x="498" d="M370 0L148 243L368 475H477L232 219L236 271L486 0H370ZM66 0V714H156V0H66Z" />
<glyph unicode="l" horiz-adv-x="222" d="M66 0V714H156V0H66Z" />
<glyph unicode="m" horiz-adv-x="855" d="M66 0V475H156V0H66ZM387 0V287Q387 340 355 370T273 401Q240 401 214 387T172 348T156 288L119 306Q119 360 142 400T207 462T299 485Q349 485 389 463T453 401T477 306V0H387ZM708 0V287Q708 340 676 370T595 401Q562
401 536 387T493 348T477 288L426 306Q429 361 455 400T524 462T616 485Q668 485 709 463T774 401T799 305V0H708Z" />
<glyph unicode="n" horiz-adv-x="548" d="M402 0V277Q402 331 368 366T280 401Q244 401 216 385T172 341T156 277L119 298Q119 352 143 394T210 460T307 485Q361 485 402 458T468 388T492 295V0H402ZM66 0V475H156V0H66Z" />
<glyph unicode="o" horiz-adv-x="566" d="M283 -10Q213 -10 157 23T68 112T35 239Q35 308 68 363T157 452T283 485Q352 485 408 453T498 364T531 239Q531 169 498 113T409 23T283 -10ZM283 77Q328 77 363 98T418 155T438 239Q438 285 418 321T363 377T283 398Q238
398 203 378T148 321T128 239Q128 192 148 156T203 98T283 77Z" />
<glyph unicode="p" horiz-adv-x="582" d="M316 -10Q262 -10 219 12T149 75T120 166V309Q123 361 149 400T219 462T316 485Q381 485 433 452T516 363T546 237Q546 167 516 111T434 23T316 -10ZM301 75Q346 75 380 96T434 153T454 238Q454 285 434 322T380 379T302
400Q257 400 223 380T170 322T151 237Q151 190 169 154T222 96T301 75ZM66 -199V475H156V350L139 235L156 119V-199H66Z" />
<glyph unicode="q" horiz-adv-x="583" d="M269 -10Q203 -10 150 22T67 111T36 237Q36 307 66 363T150 452T268 485Q323 485 365 463T433 401T462 309V166Q459 115 434 75T366 13T269 -10ZM283 75Q350 75 391 120T432 237Q432 286 414 322T362 379T283 400Q238
400 204 379T149 322T129 238Q129 190 149 154T203 96T283 75ZM427 -199V119L443 235L427 350V475H517V-199H427Z" />
<glyph unicode="r" horiz-adv-x="419" d="M66 0V475H156V0H66ZM156 271L122 286Q122 377 164 431T285 485Q321 485 350 473T404 431L345 370Q330 386 312 393T270 400Q220 400 188 368T156 271Z" />
<glyph unicode="s" horiz-adv-x="427" d="M217 -10Q177 -10 142 0T76 30T24 77L82 135Q108 103 142 88T218 72Q260 72 283 86T306 127Q306 153 288 167T240 191T179 210T117 235T70 276T51 345Q51 388 72 419T130 468T221 485Q277 485 320 466T392 407L334 349Q314
375 285 389T218 403Q179 403 159 390T138 352Q138 328 156 315T203 293T265 275T326 249T373 206T392 135Q392 68 345 29T217 -10Z" />
<glyph unicode="t" horiz-adv-x="368" d="M139 0V674H229V0H139ZM22 393V475H346V393H22Z" />
<glyph unicode="u" horiz-adv-x="516" d="M258 -10Q199 -10 153 16T80 90T54 199V475H144V203Q144 164 157 136T197 92T258 77Q311 77 341 110T371 203V475H461V199Q461 137 435 90T364 17T258 -10Z" />
<glyph unicode="v" horiz-adv-x="511" d="M229 0L11 475H111L286 74H228L404 475H500L282 0H229Z" />
<glyph unicode="w" horiz-adv-x="750" d="M202 0L14 475H108L244 105H214L349 475H401L536 105H506L642 475H736L549 0H496L359 359H392L254 0H202Z" />
<glyph unicode="x" horiz-adv-x="504" d="M378 0L230 208L213 224L26 475H135L270 290L287 276L487 0H378ZM17 0L213 264L264 198L123 0H17ZM294 225L242 289L373 475H478L294 225Z" />
<glyph unicode="y" horiz-adv-x="514" d="M222 -4L16 475H116L269 100H237L398 475H498L276 -4H222ZM86 -199L226 88L276 -4L186 -199H86Z" />
<glyph unicode="z" horiz-adv-x="447" d="M28 49L310 426H416L134 49H28ZM28 0V49L108 82H410V0H28ZM45 393V475H416V426L333 393H45Z" />
<glyph unicode="{" horiz-adv-x="323" d="M237 -96Q160 -96 122 -52T92 78L104 202Q108 240 97 258T58 276H30V345H58Q86 345 97 363T104 419L92 540Q84 627 122 670T237 714H287V643H245Q200 643 182 620T168 544L178 434Q182 395 175 368T147 322T86 293V325Q125
317 146 299T175 254T178 187L168 74Q164 21 182 -1T245 -24H287V-96H237Z" />
<glyph unicode="|" horiz-adv-x="278" d="M98 -130V764H180V-130H98Z" />
<glyph unicode="}" horiz-adv-x="323" d="M86 -96H36V-24H78Q123 -24 141 -2T155 74L145 187Q142 226 148 253T176 299T237 325V293Q198 304 177 322T149 367T145 434L155 544Q160 597 142 620T78 643H36V714H86Q163 714 201 671T231 540L219 419Q215 382 226
364T265 345H293V276H265Q237 276 226 258T219 202L231 78Q239 -8 201 -52T86 -96Z" />
<glyph unicode="~" horiz-adv-x="525" d="M349 278Q321 278 300 285T261 301T223 317T181 324Q155 324 135 314T97 284L45 335Q70 372 103 390T178 409Q207 409 229 403T269 387T306 370T347 363Q371 363 391 373T429 403L480 352Q456 316 423 297T349 278Z" />
<glyph unicode="&#xa0;" horiz-adv-x="208" />
<glyph unicode="&#xa1;" horiz-adv-x="267" d="M85 -199L98 255H168L181 -199H85ZM133 354Q104 354 86 373T68 419Q68 448 86 466T133 485Q161 485 179 467T197 419Q197 392 179 373T133 354Z" />
<glyph unicode="&#xa2;" horiz-adv-x="521" d="M298 100Q228 100 172 132T82 221T49 348Q49 418 82 473T171 562T298 595Q352 595 399 574T480 515L421 455Q398 481 367 494T298 508Q252 508 217 487T162 431T142 348Q142 301 162 265T217 207T298 186Q335 186
367 199T421 240L481 180Q447 141 400 121T298 100ZM256 10V684H322V10H256Z" />
<glyph unicode="&#xa3;" horiz-adv-x="619" d="M161 3V483Q161 553 189 602T266 678T375 704Q446 704 491 676T561 609L499 547Q477 580 449 599T374 618Q340 618 313 603T271 560T255 492V3H161ZM66 0V86H547V0H66ZM66 297V372H450V297H66Z" />
<glyph unicode="&#xa4;" horiz-adv-x="564" d="M282 147Q225 147 179 173T105 245T78 348Q78 404 105 449T178 520T282 547Q339 547 385 521T459 450T486 348Q486 291 459 246T386 174T282 147ZM282 230Q315 230 340 245T379 287T394 348Q394 382 380 408T340
449T282 464Q249 464 224 449T184 407T170 348Q170 314 184 288T223 246T282 230ZM422 441L375 488L464 576L510 528L422 441ZM101 119L53 165L141 254L188 207L101 119ZM375 207L422 254L510 165L464 119L375 207ZM53 528L101 576L188 488L141 441L53 528Z" />
<glyph unicode="&#xa5;" horiz-adv-x="645" d="M291 275L57 694H166L348 338H299L481 694H588L352 275H291ZM276 0V329H370V0H276ZM229 472L256 398H78V472H229ZM78 223V298H567V223H78ZM394 398L429 472H567V398H394Z" />
<glyph unicode="&#xa6;" horiz-adv-x="278" d="M98 393V764H180V393H98ZM98 -130V241H180V-130H98Z" />
<glyph unicode="&#xa7;" horiz-adv-x="517" d="M264 139L266 206Q313 206 340 226T368 280Q368 313 348 332T295 362T227 384T158 413T106 461T85 544Q85 592 107 628T170 684T269 704Q329 704 377 681T455 613L396 554Q373 586 340 603T265 620Q221 620 197 601T172
549Q172 518 192 501T245 471T313 447T382 417T434 369T455 288Q455 242 430 209T362 157T264 139ZM249 -121Q189 -121 141 -97T63 -29L122 30Q145 -3 178 -20T252 -37Q297 -37 321 -17T345 34Q345 65 325 83T272 113T204 136T136 166T83 214T63 296Q63 342 87
375T155 426T253 444L251 377Q204 377 177 358T150 303Q150 270 170 251T223 221T291 199T359 170T412 122T432 40Q432 -9 410 -44T347 -100T249 -121Z" />
<glyph unicode="&#xa8;" horiz-adv-x="434" d="M117 555Q92 555 76 571T60 613Q60 637 76 653T117 670Q142 670 158 654T174 613Q174 588 158 572T117 555ZM317 555Q292 555 276 571T260 613Q260 637 276 653T317 670Q342 670 358 654T374 613Q374 588 358 572T317 555Z" />
<glyph unicode="&#xa9;" horiz-adv-x="833" d="M417 -10Q340 -10 275 17T163 94T89 208T63 348Q63 424 89 488T162 601T273 676T416 703Q493 703 558 676T671 601T744 488T770 347Q770 272 744 207T671 93T560 17T417 -10ZM416 31Q508 31 578 73T687 187T727 348Q727
436 688 507T578 621T416 663Q324 663 254 622T145 509T106 348Q106 259 145 187T255 73T416 31ZM425 148Q369 148 323 174T251 246T224 348Q224 404 250 449T323 520T426 546Q469 546 507 530T573 483L520 429Q502 449 479 459T426 469Q393 469 366 454T324 411T308
348Q308 312 323 284T366 241T426 226Q456 226 480 236T520 266L573 212Q546 181 508 165T425 148Z" />
<glyph unicode="&#xaa;" horiz-adv-x="354" d="M159 400Q119 400 87 420T37 473T18 550Q18 593 36 627T87 680T159 700Q205 700 236 674T271 606V494Q267 455 237 428T159 400ZM172 466Q207 466 228 489T250 551Q250 588 229 611T172 635Q137 635 115 611T92 551Q92
514 114 490T172 466ZM247 406V483L258 554L247 623V694H318V406H247Z" />
<glyph unicode="&#xab;" horiz-adv-x="458" d="M146 82L37 240L146 399H238L125 240L238 82H146ZM331 82L222 240L331 399H422L309 240L422 82H331Z" />
<glyph unicode="&#xac;" horiz-adv-x="542" d="M59 344V425H483V344H59ZM400 409H483V177H400V409Z" />
<glyph unicode="&#xad;" horiz-adv-x="461" d="M66 212V297H395V212H66Z" />
<glyph unicode="&#xae;" horiz-adv-x="568" d="M284 269Q221 269 173 298T97 377T69 488Q69 549 96 598T171 675T283 704Q347 704 395 675T472 597T500 487Q500 426 472 377T396 298T284 269ZM283 298Q338 298 380 323T445 391T469 488Q469 541 446 583T380 650T283
675Q229 675 188 650T123 583T99 488Q99 434 122 391T187 323T283 298ZM232 475V505H295Q313 505 323 514T333 539Q333 554 323 564T295 574H232V605H296Q328 605 348 587T368 540Q368 511 348 493T296 475H232ZM211 376V605H246V376H211ZM342 376L259 478L291
488L385 376H342Z" />
<glyph unicode="&#xaf;" horiz-adv-x="440" d="M40 667H400V592H40V667Z" />
<glyph unicode="&#xb0;" horiz-adv-x="394" d="M197 395Q152 395 117 415T61 470T41 548Q41 593 61 628T116 683T197 704Q243 704 278 684T333 628T353 548Q353 505 333 470T278 415T197 395ZM197 466Q232 466 254 490T276 549Q276 585 254 608T198 632Q163 632
141 609T118 549Q118 515 140 491T197 466Z" />
<glyph unicode="&#xb1;" horiz-adv-x="542" d="M59 359V440H483V359H59ZM230 565H313V235H230V565ZM59 105V186H483V105H59Z" />
<glyph unicode="&#xb2;" horiz-adv-x="336" d="M36 387L174 526Q194 546 200 558T207 585Q207 606 194 618T158 631Q138 631 122 620T88 583L34 631Q57 667 90 683T164 700Q221 700 254 670T287 588Q287 557 275 532T230 477L135 384L36 387ZM36 342V387L104 409H295V342H36Z"
/>
<glyph unicode="&#xb3;" horiz-adv-x="335" d="M150 336Q113 336 82 349T30 385L82 437Q92 422 111 414T150 405Q176 405 193 419T210 457Q210 482 192 496T145 510Q135 510 125 509T107 505L142 549Q164 555 174 557T193 559Q235 559 262 531T290 455Q290 402
252 369T150 336ZM107 505V550L195 651L282 650L192 549L107 505ZM54 627V694H282V650L222 627H54Z" />
<glyph unicode="&#xb4;" horiz-adv-x="281" d="M81 546L40 587L170 748L241 677L81 546Z" />
<glyph unicode="&#xb5;" horiz-adv-x="579" d="M98 -187V475H188V-187H98ZM316 -10Q233 -10 188 42T143 177L188 198Q188 137 220 107T301 77Q349 77 382 106T415 199V475H505V188Q505 131 481 86T415 16T316 -10Z" />
<glyph unicode="&#xb6;" horiz-adv-x="706" d="M378 270H281Q217 270 166 296T86 369T56 482Q56 546 85 593T166 667T281 694H657V612H286Q247 612 217 596T169 551T151 482Q151 442 168 413T216 368T286 352H378V270ZM411 -100H332V694H411V-100ZM570 -100H491V694H570V-100Z"
/>
<glyph unicode="&#xb7;" horiz-adv-x="130" d="M65 298Q37 298 19 317T0 364Q0 392 18 410T65 429Q93 429 111 411T130 364Q130 337 112 318T65 298Z" />
<glyph unicode="&#xb8;" horiz-adv-x="271" d="M129 -209Q94 -209 66 -200T12 -173L53 -124Q65 -136 82 -143T123 -150Q153 -150 167 -141T181 -118Q181 -104 167 -94T125 -84H81L112 13H180L157 -59L124 -32Q185 -30 221 -55T258 -120Q258 -159 223 -184T129 -209Z" />
<glyph unicode="&#xb9;" horiz-adv-x="261" d="M100 342V694H180V342H100ZM31 627V694H175V627H31Z" />
<glyph unicode="&#xba;" horiz-adv-x="344" d="M172 399Q129 399 94 419T38 473T18 550Q18 593 38 626T93 680T172 700Q216 700 250 681T305 627T326 550Q326 508 306 474T251 419T172 399ZM172 466Q208 466 230 489T253 550Q253 587 230 610T172 633Q136 633
114 610T91 550Q91 513 114 490T172 466Z" />
<glyph unicode="&#xbb;" horiz-adv-x="458" d="M221 82L334 240L221 399H312L421 240L312 82H221ZM36 82L150 240L36 399H128L237 240L128 82H36Z" />
<glyph unicode="&#xbc;" horiz-adv-x="676" d="M278 302L317 266L111 -14L34 60L278 302ZM372 395L333 432L539 712L616 637L372 395ZM146 342V694H227V342H146ZM78 627V694H222V627H78ZM349 109L462 344H549L434 109H349ZM349 65V109L372 133H634V65H349ZM519
-8V205H599V-8H519Z" />
<glyph unicode="&#xbd;" horiz-adv-x="670" d="M278 302L317 266L111 -14L34 60L278 302ZM372 395L333 432L539 712L616 637L372 395ZM146 342V694H227V342H146ZM78 627V694H222V627H78ZM357 37L495 176Q515 196 521 208T528 235Q528 256 515 268T478 281Q458
281 442 270T409 233L355 281Q377 317 410 333T485 350Q542 350 575 320T608 238Q608 207 595 182T551 127L455 34L357 37ZM357 -8V37L424 59H615V-8H357Z" />
<glyph unicode="&#xbe;" horiz-adv-x="670" d="M273 306L312 273L121 -14L44 60L273 306ZM404 392L365 424L557 712L633 637L404 392ZM173 336Q136 336 105 349T52 385L104 437Q114 422 133 414T172 405Q199 405 216 419T233 457Q233 482 215 496T167 510Q158
510 148 509T129 505L165 549Q186 555 197 557T215 559Q257 559 285 531T313 455Q313 402 275 369T173 336ZM129 505V550L218 651L305 650L215 549L129 505ZM76 627V694H305V650L244 627H76ZM325 109L438 344H525L410 109H325ZM325 65V109L348 133H609V65H325ZM494
-8V205H574V-8H494Z" />
<glyph unicode="&#xbf;" horiz-adv-x="489" d="M254 -209Q195 -209 149 -184T77 -116T51 -15Q51 39 74 80T141 149T240 185L202 144L210 255H288V105H262Q209 104 177 73T144 -9Q144 -41 158 -66T198 -106T258 -121Q307 -121 341 -97T397 -29L463 -84Q434 -142
380 -175T254 -209ZM250 354Q221 354 203 373T185 420Q185 448 203 466T250 485Q278 485 296 467T314 420Q314 392 296 373T250 354Z" />
<glyph unicode="&#xc0;" horiz-adv-x="696" d="M31 0L315 694H383L666 0H564L331 587H366L131 0H31ZM166 157V239H531V157H166ZM388 758L228 889L299 959L429 798L388 758Z" />
<glyph unicode="&#xc1;" horiz-adv-x="696" d="M31 0L315 694H383L666 0H564L331 587H366L131 0H31ZM166 157V239H531V157H166ZM288 765L247 806L377 967L448 896L288 765Z" />
<glyph unicode="&#xc2;" horiz-adv-x="696" d="M31 0L315 694H383L666 0H564L331 587H366L131 0H31ZM166 157V239H531V157H166ZM218 764L177 804L313 959H383L519 804L479 764L318 898L379 897L218 764Z" />
<glyph unicode="&#xc3;" horiz-adv-x="696" d="M31 0L315 694H383L666 0H564L331 587H366L131 0H31ZM166 157V239H531V157H166ZM420 767Q388 767 366 779T323 802T278 813Q253 813 238 804T209 777L160 825Q185 855 212 873T277 891Q310 891 333 880T376 857T419
845Q444 845 459 854T487 882L536 834Q510 804 484 786T420 767Z" />
<glyph unicode="&#xc4;" horiz-adv-x="696" d="M31 0L315 694H383L666 0H564L331 587H366L131 0H31ZM166 157V239H531V157H166ZM248 774Q223 774 207 790T191 832Q191 856 207 872T248 889Q273 889 289 873T305 832Q305 807 289 791T248 774ZM448 774Q423 774
407 790T391 832Q391 856 407 872T448 889Q473 889 489 873T505 832Q505 807 489 791T448 774Z" />
<glyph unicode="&#xc5;" horiz-adv-x="696" d="M31 0L315 694H383L666 0H564L331 587H366L131 0H31ZM166 157V239H531V157H166ZM349 659Q314 659 287 675T244 717T228 777Q228 811 243 838T286 880T349 896Q383 896 409 881T451 838T467 778Q467 744 452 717T410
675T349 659ZM349 724Q370 724 385 739T400 778Q400 801 385 816T349 831Q325 831 311 816T296 778Q296 755 310 740T349 724Z" />
<glyph unicode="&#xc6;" horiz-adv-x="973" d="M31 0L315 694H570V608H374L131 0H31ZM170 245V327H531V245H170ZM559 0V86H928V0H559ZM495 0V694H589V0H495ZM557 314V396H895V314H557ZM559 608V694H922V608H559Z" />
<glyph unicode="&#xc7;" horiz-adv-x="688" d="M397 -10Q322 -10 258 17T147 94T73 208T47 347Q47 422 73 487T146 600T257 676T396 704Q478 704 540 676T650 600L585 535Q552 572 505 593T396 614Q341 614 295 595T215 539T163 454T144 347Q144 289 162 240T215
155T295 100T396 80Q461 80 509 101T590 160L655 96Q607 46 543 18T397 -10ZM361 -209Q326 -209 298 -200T244 -173L285 -124Q297 -136 314 -143T355 -150Q385 -150 399 -141T413 -118Q413 -104 399 -94T357 -84H313L344 13H412L389 -59L356 -32Q417 -30 453 -55T490
-120Q490 -159 455 -184T361 -209Z" />
<glyph unicode="&#xc8;" horiz-adv-x="590" d="M82 0V694H176V0H82ZM146 0V86H544V0H146ZM146 314V396H511V314H146ZM146 608V694H539V608H146ZM355 758L195 889L266 959L396 798L355 758Z" />
<glyph unicode="&#xc9;" horiz-adv-x="590" d="M82 0V694H176V0H82ZM146 0V86H544V0H146ZM146 314V396H511V314H146ZM146 608V694H539V608H146ZM256 765L215 806L345 967L416 896L256 765Z" />
<glyph unicode="&#xca;" horiz-adv-x="590" d="M82 0V694H176V0H82ZM146 0V86H544V0H146ZM146 314V396H511V314H146ZM146 608V694H539V608H146ZM185 764L144 804L280 959H350L486 804L446 764L285 898L346 897L185 764Z" />
<glyph unicode="&#xcb;" horiz-adv-x="590" d="M82 0V694H176V0H82ZM146 0V86H544V0H146ZM146 314V396H511V314H146ZM146 608V694H539V608H146ZM216 774Q191 774 175 790T159 832Q159 856 175 872T216 889Q241 889 257 873T273 832Q273 807 257 791T216 774ZM416
774Q391 774 375 790T359 832Q359 856 375 872T416 889Q441 889 457 873T473 832Q473 807 457 791T416 774Z" />
<glyph unicode="&#xcc;" horiz-adv-x="258" d="M82 0V694H176V0H82ZM169 758L9 889L80 959L210 798L169 758Z" />
<glyph unicode="&#xcd;" horiz-adv-x="258" d="M82 0V694H176V0H82ZM70 765L29 806L159 967L230 896L70 765Z" />
<glyph unicode="&#xce;" horiz-adv-x="258" d="M82 0V694H176V0H82ZM-1 764L-42 804L94 959H164L300 804L260 764L99 898L160 897L-1 764Z" />
<glyph unicode="&#xcf;" horiz-adv-x="258" d="M82 0V694H176V0H82ZM30 774Q5 774 -11 790T-27 832Q-27 856 -11 872T30 889Q55 889 71 873T87 832Q87 807 71 791T30 774ZM230 774Q205 774 189 790T173 832Q173 856 189 872T230 889Q255 889 271 873T287 832Q287
807 271 791T230 774Z" />
<glyph unicode="&#xd0;" horiz-adv-x="755" d="M22 391H394V312H22V391ZM159 0V86H352Q429 86 487 119T577 212T610 348Q610 424 577 483T486 575T352 608H160V694H354Q430 694 494 668T606 595T680 485T707 347Q707 273 681 210T607 99T496 26T356 0H159ZM97
0V694H191V0H97Z" />
<glyph unicode="&#xd1;" horiz-adv-x="710" d="M82 0V694H148L176 585V0H82ZM562 0L136 569L148 694L575 126L562 0ZM562 0L534 103V694H628V0H562ZM428 767Q396 767 374 779T331 802T286 813Q261 813 246 804T217 777L168 825Q193 855 220 873T285 891Q318 891
341 880T384 857T427 845Q452 845 467 854T495 882L544 834Q518 804 492 786T428 767Z" />
<glyph unicode="&#xd2;" horiz-adv-x="794" d="M398 -10Q324 -10 260 17T148 94T74 209T47 348Q47 423 73 487T147 601T258 677T396 704Q470 704 533 677T645 601T720 487T747 347Q747 273 720 208T646 94T535 18T398 -10ZM396 80Q471 80 527 114T617 209T650
348Q650 406 631 454T578 539T498 594T396 614Q322 614 266 580T177 486T144 348Q144 290 162 241T214 156T294 100T396 80ZM437 758L277 889L348 959L478 798L437 758Z" />
<glyph unicode="&#xd3;" horiz-adv-x="794" d="M398 -10Q324 -10 260 17T148 94T74 209T47 348Q47 423 73 487T147 601T258 677T396 704Q470 704 533 677T645 601T720 487T747 347Q747 273 720 208T646 94T535 18T398 -10ZM396 80Q471 80 527 114T617 209T650
348Q650 406 631 454T578 539T498 594T396 614Q322 614 266 580T177 486T144 348Q144 290 162 241T214 156T294 100T396 80ZM337 765L296 806L426 967L497 896L337 765Z" />
<glyph unicode="&#xd4;" horiz-adv-x="794" d="M398 -10Q324 -10 260 17T148 94T74 209T47 348Q47 423 73 487T147 601T258 677T396 704Q470 704 533 677T645 601T720 487T747 347Q747 273 720 208T646 94T535 18T398 -10ZM396 80Q471 80 527 114T617 209T650
348Q650 406 631 454T578 539T498 594T396 614Q322 614 266 580T177 486T144 348Q144 290 162 241T214 156T294 100T396 80ZM267 764L226 804L362 959H432L568 804L528 764L367 898L428 897L267 764Z" />
<glyph unicode="&#xd5;" horiz-adv-x="794" d="M398 -10Q324 -10 260 17T148 94T74 209T47 348Q47 423 73 487T147 601T258 677T396 704Q470 704 533 677T645 601T720 487T747 347Q747 273 720 208T646 94T535 18T398 -10ZM396 80Q471 80 527 114T617 209T650
348Q650 406 631 454T578 539T498 594T396 614Q322 614 266 580T177 486T144 348Q144 290 162 241T214 156T294 100T396 80ZM469 767Q437 767 415 779T372 802T327 813Q302 813 287 804T258 777L209 825Q234 855 261 873T326 891Q359 891 382 880T425 857T468 845Q493
845 508 854T536 882L585 834Q559 804 533 786T469 767Z" />
<glyph unicode="&#xd6;" horiz-adv-x="794" d="M398 -10Q324 -10 260 17T148 94T74 209T47 348Q47 423 73 487T147 601T258 677T396 704Q470 704 533 677T645 601T720 487T747 347Q747 273 720 208T646 94T535 18T398 -10ZM396 80Q471 80 527 114T617 209T650
348Q650 406 631 454T578 539T498 594T396 614Q322 614 266 580T177 486T144 348Q144 290 162 241T214 156T294 100T396 80ZM297 774Q272 774 256 790T240 832Q240 856 256 872T297 889Q322 889 338 873T354 832Q354 807 338 791T297 774ZM497 774Q472 774 456
790T440 832Q440 856 456 872T497 889Q522 889 538 873T554 832Q554 807 538 791T497 774Z" />
<glyph unicode="&#xd7;" horiz-adv-x="526" d="M115 127L56 186L412 542L471 483L115 127ZM404 134L62 476L121 535L463 193L404 134Z" />
<glyph unicode="&#xd8;" horiz-adv-x="794" d="M682 694L744 632L112 0L50 62L682 694ZM398 -10Q324 -10 260 17T148 94T73 209T46 348Q46 423 73 487T147 601T258 677T396 704Q470 704 533 677T645 601T719 487T746 347Q746 273 720 208T646 94T535 18T398 -10ZM396
80Q470 80 527 114T616 209T649 348Q649 406 631 454T578 539T498 594T396 614Q322 614 265 580T176 486T143 348Q143 290 162 241T214 156T294 100T396 80Z" />
<glyph unicode="&#xd9;" horiz-adv-x="683" d="M342 -10Q265 -10 205 24T109 119T74 257V694H168V259Q168 204 191 164T253 102T342 80Q393 80 431 102T492 164T515 258V694H610V256Q610 179 575 119T480 25T342 -10ZM381 758L221 889L292 959L422 798L381 758Z" />
<glyph unicode="&#xda;" horiz-adv-x="683" d="M342 -10Q265 -10 205 24T109 119T74 257V694H168V259Q168 204 191 164T253 102T342 80Q393 80 431 102T492 164T515 258V694H610V256Q610 179 575 119T480 25T342 -10ZM282 765L241 806L371 967L442 896L282 765Z" />
<glyph unicode="&#xdb;" horiz-adv-x="683" d="M342 -10Q265 -10 205 24T109 119T74 257V694H168V259Q168 204 191 164T253 102T342 80Q393 80 431 102T492 164T515 258V694H610V256Q610 179 575 119T480 25T342 -10ZM211 764L170 804L306 959H376L512 804L472
764L311 898L372 897L211 764Z" />
<glyph unicode="&#xdc;" horiz-adv-x="683" d="M342 -10Q265 -10 205 24T109 119T74 257V694H168V259Q168 204 191 164T253 102T342 80Q393 80 431 102T492 164T515 258V694H610V256Q610 179 575 119T480 25T342 -10ZM242 774Q217 774 201 790T185 832Q185 856
201 872T242 889Q267 889 283 873T299 832Q299 807 283 791T242 774ZM442 774Q417 774 401 790T385 832Q385 856 401 872T442 889Q467 889 483 873T499 832Q499 807 483 791T442 774Z" />
<glyph unicode="&#xdd;" horiz-adv-x="665" d="M302 282L29 694H138L358 357H309L530 694H637L362 282H302ZM286 0V344H380V0H286ZM273 765L232 806L362 967L433 896L273 765Z" />
<glyph unicode="&#xde;" horiz-adv-x="606" d="M145 143V226H334Q373 226 403 241T451 286T469 355Q469 395 452 424T404 469T334 485H145V567H340Q404 567 454 541T534 468T564 355Q564 291 535 244T455 170T340 143H145ZM82 0V694H176V0H82Z" />
<glyph unicode="&#xdf;" horiz-adv-x="573" d="M323 -10Q277 -10 245 2T188 38L242 106Q256 92 276 84T326 75Q360 75 386 90T426 134T441 200Q441 237 424 266T378 312T310 330H250V409H285Q317 409 341 424T378 466T391 527Q391 559 377 584T338 624T277 639Q224
639 190 608T156 524V0H66V524Q66 580 93 625T167 697T277 724Q339 724 384 698T455 629T480 533Q480 469 445 425T349 365L356 400Q411 395 452 369T517 299T540 198Q540 153 524 115T479 49T411 6T323 -10Z" />
<glyph unicode="&#xe0;" horiz-adv-x="582" d="M268 -10Q203 -10 150 22T67 111T36 237Q36 307 66 363T149 452T268 485Q322 485 364 463T433 401T462 309V166Q459 115 434 75T366 13T268 -10ZM283 75Q350 75 391 120T432 237Q432 286 414 322T361 379T282 400Q237
400 203 379T149 322T129 238Q129 190 148 154T203 96T283 75ZM426 0V128L443 244L426 359V475H517V0H426ZM321 539L161 670L232 740L362 579L321 539Z" />
<glyph unicode="&#xe1;" horiz-adv-x="582" d="M268 -10Q203 -10 150 22T67 111T36 237Q36 307 66 363T149 452T268 485Q322 485 364 463T433 401T462 309V166Q459 115 434 75T366 13T268 -10ZM283 75Q350 75 391 120T432 237Q432 286 414 322T361 379T282 400Q237
400 203 379T149 322T129 238Q129 190 148 154T203 96T283 75ZM426 0V128L443 244L426 359V475H517V0H426ZM221 546L180 587L310 748L381 677L221 546Z" />
<glyph unicode="&#xe2;" horiz-adv-x="582" d="M268 -10Q203 -10 150 22T67 111T36 237Q36 307 66 363T149 452T268 485Q322 485 364 463T433 401T462 309V166Q459 115 434 75T366 13T268 -10ZM283 75Q350 75 391 120T432 237Q432 286 414 322T361 379T282 400Q237
400 203 379T149 322T129 238Q129 190 148 154T203 96T283 75ZM426 0V128L443 244L426 359V475H517V0H426ZM151 545L110 585L246 740H316L452 585L412 545L251 679L312 678L151 545Z" />
<glyph unicode="&#xe3;" horiz-adv-x="582" d="M268 -10Q203 -10 150 22T67 111T36 237Q36 307 66 363T149 452T268 485Q322 485 364 463T433 401T462 309V166Q459 115 434 75T366 13T268 -10ZM283 75Q350 75 391 120T432 237Q432 286 414 322T361 379T282 400Q237
400 203 379T149 322T129 238Q129 190 148 154T203 96T283 75ZM426 0V128L443 244L426 359V475H517V0H426ZM353 548Q321 548 299 560T256 583T211 594Q186 594 171 585T142 558L93 606Q118 636 145 654T210 672Q243 672 266 661T309 638T352 626Q377 626 392 635T420
663L469 615Q443 585 417 567T353 548Z" />
<glyph unicode="&#xe4;" horiz-adv-x="582" d="M268 -10Q203 -10 150 22T67 111T36 237Q36 307 66 363T149 452T268 485Q322 485 364 463T433 401T462 309V166Q459 115 434 75T366 13T268 -10ZM283 75Q350 75 391 120T432 237Q432 286 414 322T361 379T282 400Q237
400 203 379T149 322T129 238Q129 190 148 154T203 96T283 75ZM426 0V128L443 244L426 359V475H517V0H426ZM181 555Q156 555 140 571T124 613Q124 637 140 653T181 670Q206 670 222 654T238 613Q238 588 222 572T181 555ZM381 555Q356 555 340 571T324 613Q324
637 340 653T381 670Q406 670 422 654T438 613Q438 588 422 572T381 555Z" />
<glyph unicode="&#xe5;" horiz-adv-x="582" d="M268 -10Q203 -10 150 22T67 111T36 237Q36 307 66 363T149 452T268 485Q322 485 364 463T433 401T462 309V166Q459 115 434 75T366 13T268 -10ZM283 75Q350 75 391 120T432 237Q432 286 414 322T361 379T282 400Q237
400 203 379T149 322T129 238Q129 190 148 154T203 96T283 75ZM426 0V128L443 244L426 359V475H517V0H426ZM282 532Q247 532 220 548T177 590T161 650Q161 684 176 711T219 753T282 769Q316 769 342 754T384 711T400 651Q400 617 385 590T343 548T282 532ZM282
597Q303 597 318 612T333 651Q333 674 318 689T282 704Q258 704 244 689T229 651Q229 628 243 613T282 597Z" />
<glyph unicode="&#xe6;" horiz-adv-x="932" d="M268 -10Q203 -10 150 22T67 111T36 237Q36 307 66 363T149 452T268 485Q322 485 364 463T433 401T462 309V166Q459 115 434 75T366 13T268 -10ZM283 75Q350 75 391 120T432 237Q432 286 414 322T361 379T282 400Q237
400 203 379T149 322T129 238Q129 190 148 154T203 96T283 75ZM426 0V128L443 244L426 359V475H516V0H426ZM689 -10Q617 -10 567 22T490 111T463 238Q463 290 477 335T520 414T588 466T680 485Q743 485 793 455T871 372T900 252Q900 242 899 231T895 204H494V279H847L814
250Q814 298 797 331T749 383T674 402Q628 402 593 382T539 326T520 241Q520 191 540 154T597 96T682 75Q722 75 755 89T813 131L871 72Q837 32 789 11T689 -10Z" />
<glyph unicode="&#xe7;" horiz-adv-x="489" d="M283 -10Q213 -10 157 23T68 112T35 238Q35 308 67 364T156 452T283 485Q338 485 385 465T466 405L406 345Q384 371 353 384T283 398Q238 398 203 378T148 321T128 238Q128 191 148 155T203 98T283 77Q321 77 352
90T407 130L466 70Q433 32 386 11T283 -10ZM251 -209Q216 -209 188 -200T134 -173L175 -124Q187 -136 204 -143T245 -150Q275 -150 289 -141T303 -118Q303 -104 289 -94T247 -84H203L234 13H302L279 -59L246 -32Q307 -30 343 -55T380 -120Q380 -159 345 -184T251
-209Z" />
<glyph unicode="&#xe8;" horiz-adv-x="536" d="M286 -10Q215 -10 158 22T68 111T35 238Q35 308 67 364T155 452T280 485Q346 485 396 455T475 372T504 252Q504 242 503 231T499 204H98V279H451L418 250Q418 298 401 331T353 383T278 402Q232 402 197 382T143 326T124
241Q124 191 144 154T201 96T286 75Q326 75 359 89T417 131L475 72Q441 32 392 11T286 -10ZM319 539L159 670L230 740L360 579L319 539Z" />
<glyph unicode="&#xe9;" horiz-adv-x="536" d="M286 -10Q215 -10 158 22T68 111T35 238Q35 308 67 364T155 452T280 485Q346 485 396 455T475 372T504 252Q504 242 503 231T499 204H98V279H451L418 250Q418 298 401 331T353 383T278 402Q232 402 197 382T143 326T124
241Q124 191 144 154T201 96T286 75Q326 75 359 89T417 131L475 72Q441 32 392 11T286 -10ZM219 546L178 587L308 748L379 677L219 546Z" />
<glyph unicode="&#xea;" horiz-adv-x="536" d="M286 -10Q215 -10 158 22T68 111T35 238Q35 308 67 364T155 452T280 485Q346 485 396 455T475 372T504 252Q504 242 503 231T499 204H98V279H451L418 250Q418 298 401 331T353 383T278 402Q232 402 197 382T143 326T124
241Q124 191 144 154T201 96T286 75Q326 75 359 89T417 131L475 72Q441 32 392 11T286 -10ZM149 545L108 585L244 740H314L450 585L410 545L249 679L310 678L149 545Z" />
<glyph unicode="&#xeb;" horiz-adv-x="536" d="M286 -10Q215 -10 158 22T68 111T35 238Q35 308 67 364T155 452T280 485Q346 485 396 455T475 372T504 252Q504 242 503 231T499 204H98V279H451L418 250Q418 298 401 331T353 383T278 402Q232 402 197 382T143 326T124
241Q124 191 144 154T201 96T286 75Q326 75 359 89T417 131L475 72Q441 32 392 11T286 -10ZM179 555Q154 555 138 571T122 613Q122 637 138 653T179 670Q204 670 220 654T236 613Q236 588 220 572T179 555ZM379 555Q354 555 338 571T322 613Q322 637 338 653T379
670Q404 670 420 654T436 613Q436 588 420 572T379 555Z" />
<glyph unicode="&#xec;" horiz-adv-x="222" d="M66 0V475H156V0H66ZM407 539L247 670L318 740L448 579L407 539Z" />
<glyph unicode="&#xed;" horiz-adv-x="222" d="M66 0V475H156V0H66ZM307 546L266 587L396 748L467 677L307 546Z" />
<glyph unicode="&#xee;" horiz-adv-x="222" d="M66 0V475H156V0H66ZM237 545L196 585L332 740H402L538 585L498 545L337 679L398 678L237 545Z" />
<glyph unicode="&#xef;" horiz-adv-x="222" d="M66 0V475H156V0H66ZM267 555Q242 555 226 571T210 613Q210 637 226 653T267 670Q292 670 308 654T324 613Q324 588 308 572T267 555ZM467 555Q442 555 426 571T410 613Q410 637 426 653T467 670Q492 670 508 654T524
613Q524 588 508 572T467 555Z" />
<glyph unicode="&#xf0;" horiz-adv-x="564" d="M283 -10Q215 -10 161 22T73 110T40 231Q40 298 70 348T150 428T261 457Q296 457 320 449T361 427T390 391L356 409L147 694H257L461 411Q525 320 525 228Q525 162 493 108T406 22T283 -10ZM283 78Q325 78 358 98T411
153T430 231Q430 274 411 308T359 363T283 383Q242 383 208 363T154 309T134 231Q134 188 154 154T207 99T283 78ZM114 496L88 561L421 684L446 619L114 496Z" />
<glyph unicode="&#xf1;" horiz-adv-x="548" d="M402 0V277Q402 331 368 366T280 401Q244 401 216 385T172 341T156 277L119 298Q119 352 143 394T210 460T307 485Q361 485 402 458T468 388T492 295V0H402ZM66 0V475H156V0H66ZM347 548Q315 548 293 560T250 583T205
594Q180 594 165 585T136 558L87 606Q112 636 139 654T204 672Q237 672 260 661T303 638T346 626Q371 626 386 635T414 663L463 615Q437 585 411 567T347 548Z" />
<glyph unicode="&#xf2;" horiz-adv-x="566" d="M283 -10Q213 -10 157 23T68 112T35 239Q35 308 68 363T157 452T283 485Q352 485 408 453T498 364T531 239Q531 169 498 113T409 23T283 -10ZM283 77Q328 77 363 98T418 155T438 239Q438 285 418 321T363 377T283
398Q238 398 203 378T148 321T128 239Q128 192 148 156T203 98T283 77ZM323 539L163 670L234 740L364 579L323 539Z" />
<glyph unicode="&#xf3;" horiz-adv-x="566" d="M283 -10Q213 -10 157 23T68 112T35 239Q35 308 68 363T157 452T283 485Q352 485 408 453T498 364T531 239Q531 169 498 113T409 23T283 -10ZM283 77Q328 77 363 98T418 155T438 239Q438 285 418 321T363 377T283
398Q238 398 203 378T148 321T128 239Q128 192 148 156T203 98T283 77ZM224 546L183 587L313 748L384 677L224 546Z" />
<glyph unicode="&#xf4;" horiz-adv-x="566" d="M283 -10Q213 -10 157 23T68 112T35 239Q35 308 68 363T157 452T283 485Q352 485 408 453T498 364T531 239Q531 169 498 113T409 23T283 -10ZM283 77Q328 77 363 98T418 155T438 239Q438 285 418 321T363 377T283
398Q238 398 203 378T148 321T128 239Q128 192 148 156T203 98T283 77ZM153 545L112 585L248 740H318L454 585L414 545L253 679L314 678L153 545Z" />
<glyph unicode="&#xf5;" horiz-adv-x="566" d="M283 -10Q213 -10 157 23T68 112T35 239Q35 308 68 363T157 452T283 485Q352 485 408 453T498 364T531 239Q531 169 498 113T409 23T283 -10ZM283 77Q328 77 363 98T418 155T438 239Q438 285 418 321T363 377T283
398Q238 398 203 378T148 321T128 239Q128 192 148 156T203 98T283 77ZM356 548Q324 548 302 560T259 583T214 594Q189 594 174 585T145 558L96 606Q121 636 148 654T213 672Q246 672 269 661T312 638T355 626Q380 626 395 635T423 663L472 615Q446 585 420 567T356
548Z" />
<glyph unicode="&#xf6;" horiz-adv-x="566" d="M283 -10Q213 -10 157 23T68 112T35 239Q35 308 68 363T157 452T283 485Q352 485 408 453T498 364T531 239Q531 169 498 113T409 23T283 -10ZM283 77Q328 77 363 98T418 155T438 239Q438 285 418 321T363 377T283
398Q238 398 203 378T148 321T128 239Q128 192 148 156T203 98T283 77ZM184 555Q159 555 143 571T127 613Q127 637 143 653T184 670Q209 670 225 654T241 613Q241 588 225 572T184 555ZM384 555Q359 555 343 571T327 613Q327 637 343 653T384 670Q409 670 425 654T441
613Q441 588 425 572T384 555Z" />
<glyph unicode="&#xf7;" horiz-adv-x="542" d="M59 294V375H483V294H59ZM271 105Q243 105 225 124T207 170Q207 199 225 217T271 236Q300 236 318 218T336 170Q336 143 318 124T271 105ZM271 433Q243 433 225 452T207 499Q207 527 225 546T271 565Q300 565 318
546T336 499Q336 472 318 453T271 433Z" />
<glyph unicode="&#xf8;" horiz-adv-x="566" d="M283 -10Q213 -10 157 23T68 112T35 239Q35 308 68 363T157 452T283 485Q352 485 408 453T498 364T531 239Q531 169 498 113T409 23T283 -10ZM283 77Q328 77 363 98T418 155T438 239Q438 285 418 321T363 377T283
398Q238 398 203 378T148 321T128 239Q128 192 148 156T203 98T283 77ZM80 -25L21 34L487 500L546 441L80 -25Z" />
<glyph unicode="&#xf9;" horiz-adv-x="516" d="M258 -10Q199 -10 153 16T80 90T54 199V475H144V203Q144 164 157 136T197 92T258 77Q311 77 341 110T371 203V475H461V199Q461 137 435 90T364 17T258 -10ZM298 539L138 670L209 740L339 579L298 539Z" />
<glyph unicode="&#xfa;" horiz-adv-x="516" d="M258 -10Q199 -10 153 16T80 90T54 199V475H144V203Q144 164 157 136T197 92T258 77Q311 77 341 110T371 203V475H461V199Q461 137 435 90T364 17T258 -10ZM199 546L158 587L288 748L359 677L199 546Z" />
<glyph unicode="&#xfb;" horiz-adv-x="516" d="M258 -10Q199 -10 153 16T80 90T54 199V475H144V203Q144 164 157 136T197 92T258 77Q311 77 341 110T371 203V475H461V199Q461 137 435 90T364 17T258 -10ZM128 545L87 585L223 740H293L429 585L389 545L228 679L289
678L128 545Z" />
<glyph unicode="&#xfc;" horiz-adv-x="516" d="M258 -10Q199 -10 153 16T80 90T54 199V475H144V203Q144 164 157 136T197 92T258 77Q311 77 341 110T371 203V475H461V199Q461 137 435 90T364 17T258 -10ZM159 555Q134 555 118 571T102 613Q102 637 118 653T159
670Q184 670 200 654T216 613Q216 588 200 572T159 555ZM359 555Q334 555 318 571T302 613Q302 637 318 653T359 670Q384 670 400 654T416 613Q416 588 400 572T359 555Z" />
<glyph unicode="&#xfd;" horiz-adv-x="514" d="M222 -4L16 475H116L269 100H237L398 475H498L276 -4H222ZM86 -199L226 88L276 -4L186 -199H86ZM197 546L156 587L286 748L357 677L197 546Z" />
<glyph unicode="&#xfe;" horiz-adv-x="582" d="M316 -10Q262 -10 219 12T149 75T120 166V309Q123 361 149 400T219 462T316 485Q381 485 433 452T516 363T546 237Q546 167 516 111T434 23T316 -10ZM301 75Q346 75 380 96T434 153T454 238Q454 285 435 322T381
379T302 400Q257 400 223 380T170 322T151 237Q151 190 169 154T222 96T301 75ZM66 -199V714H156V350L139 235L156 119V-199H66Z" />
<glyph unicode="&#xff;" horiz-adv-x="514" d="M222 -4L16 475H116L269 100H237L398 475H498L276 -4H222ZM86 -199L226 88L276 -4L186 -199H86ZM157 555Q132 555 116 571T100 613Q100 637 116 653T157 670Q182 670 198 654T214 613Q214 588 198 572T157 555ZM357
555Q332 555 316 571T300 613Q300 637 316 653T357 670Q382 670 398 654T414 613Q414 588 398 572T357 555Z" />
<glyph unicode="&#x2013;" horiz-adv-x="549" d="M66 216V293H483V216H66Z" />
<glyph unicode="&#x2014;" horiz-adv-x="852" d="M66 217V291H780V217H66Z" />
<glyph unicode="&#x2018;" horiz-adv-x="248" d="M191 695L129 576L98 568Q103 579 110 586T128 593Q149 593 166 576T184 532Q184 505 165 485T118 464Q91 464 71 484T51 532Q51 544 56 559T73 599L140 723L191 695Z" />
<glyph unicode="&#x2019;" horiz-adv-x="249" d="M58 473L120 592L152 600Q147 589 140 582T121 575Q100 575 83 592T65 636Q65 664 84 684T132 704Q158 704 178 684T198 636Q198 625 194 610T176 569L110 445L58 473Z" />
<glyph unicode="&#x201a;" horiz-adv-x="275" d="M71 -110L133 9L165 17Q160 6 153 -1T134 -8Q113 -8 96 9T78 53Q78 82 97 101T145 121Q171 121 191 102T211 53Q211 42 207 27T189 -13L123 -138L71 -110Z" />
<glyph unicode="&#x201c;" horiz-adv-x="432" d="M191 695L129 576L98 568Q103 579 110 586T128 593Q149 593 166 576T184 532Q184 505 165 485T118 464Q91 464 71 484T51 532Q51 544 56 559T73 599L140 723L191 695ZM375 695L313 576L282 568Q287 579 294 586T312
593Q333 593 350 576T368 532Q368 505 349 485T302 464Q275 464 255 484T235 532Q235 544 240 559T257 599L324 723L375 695Z" />
<glyph unicode="&#x201d;" horiz-adv-x="433" d="M242 473L304 592L336 600Q331 589 324 582T305 575Q284 575 267 592T249 636Q249 664 268 684T316 704Q342 704 362 684T382 636Q382 625 378 610T360 569L294 445L242 473ZM58 473L120 592L152 600Q147 589 140
582T121 575Q100 575 83 592T65 636Q65 664 84 684T132 704Q158 704 178 684T198 636Q198 625 194 610T176 569L110 445L58 473Z" />
<glyph unicode="&#x201e;" horiz-adv-x="459" d="M255 -110L317 9L349 17Q344 6 337 -1T318 -8Q297 -8 280 9T262 53Q262 81 281 101T329 121Q355 121 375 101T395 53Q395 42 391 27T373 -14L307 -138L255 -110ZM71 -110L133 9L165 17Q160 6 153 -1T134 -8Q113
-8 96 9T78 53Q78 81 97 101T145 121Q171 121 191 101T211 53Q211 42 207 27T189 -14L123 -138L71 -110Z" />
<glyph unicode="&#x2022;" horiz-adv-x="330" d="M165 267Q136 267 114 280T80 315T67 365Q67 392 79 414T114 449T165 463Q194 463 215 450T249 414T262 365Q262 338 250 316T216 280T165 267Z" />
<glyph unicode="&#x2039;" horiz-adv-x="274" d="M146 82L37 240L146 399H238L125 240L238 82H146Z" />
<glyph unicode="&#x203a;" horiz-adv-x="274" d="M36 82L150 240L36 399H128L237 240L128 82H36Z" />
</font>
</defs>
</svg>
