<?xml version="1.0" standalone="no"?>
<!DOCTYPE svg PUBLIC "-//W3C//DTD SVG 1.1//EN" "http://www.w3.org/Graphics/SVG/1.1/DTD/svg11.dtd">
<svg xmlns="http://www.w3.org/2000/svg">
<defs >
<font id="Outfit" horiz-adv-x="559" ><font-face
    font-family="Outfit Thin Black"
    units-per-em="1000"
    panose-1="0 0 0 0 0 0 0 0 0 0"
    ascent="1000"
    descent="-260"
    alphabetic="0" />
<glyph unicode=" " horiz-adv-x="180" />
<glyph unicode="!" horiz-adv-x="309" d="M82 283L47 732H262L227 283H82ZM155 -12Q108 -12 77 20T46 98Q46 145 77 177T155 209Q202 209 232 177T263 98Q263 52 233 20T155 -12Z" />
<glyph unicode="&quot;" horiz-adv-x="486" d="M298 404L267 732H442L411 404H298ZM75 404L44 732H220L188 404H75Z" />
<glyph unicode="#" horiz-adv-x="683" d="M316 0L440 712H596L471 0H316ZM27 193V323H621V193H27ZM81 0L206 712H360L237 0H81ZM63 404V533H656V404H63Z" />
<glyph unicode="$" horiz-adv-x="622" d="M296 -12Q208 -12 143 14T23 99L144 224Q182 187 223 168T312 148Q352 148 372 160T392 195Q392 217 375 231T329 257T266 281T198 310T136 351T90 412T72 502Q72 571 104 621T194 697T330 724Q407 724 473 699T583 626L461
501Q430 533 398 548T328 564Q298 564 280 554T262 524Q262 503 279 490T325 465T388 442T456 414T518 372T564 308T582 216Q582 107 508 48T296 -12ZM246 -102V814H386V-102H246Z" />
<glyph unicode="%" horiz-adv-x="711" d="M179 416Q137 416 102 436T47 492T26 570Q26 613 46 647T101 701T179 722Q223 722 258 702T313 647T334 570Q334 527 314 492T258 437T179 416ZM180 539Q193 539 201 547T210 569Q210 582 202 590T180 599Q167 599 159
591T150 569Q150 556 158 548T180 539ZM530 -10Q488 -10 453 10T398 66T377 144Q377 187 397 221T452 275T530 296Q574 296 609 276T664 221T685 144Q685 101 665 66T609 11T530 -10ZM531 113Q544 113 552 121T561 143Q561 156 553 164T531 173Q518 173 510 165T501
143Q501 130 509 122T531 113ZM72 0L469 712H639L242 0H72Z" />
<glyph unicode="&amp;" horiz-adv-x="712" d="M490 0L174 349Q136 392 121 430T105 513Q105 568 133 616T212 694T330 724Q384 724 424 710T493 674T534 631L409 506Q391 531 373 539T335 548Q313 548 300 536T286 506Q286 495 291 483T308 458L716 0H490ZM266
-12Q194 -12 141 17T58 97T28 208Q28 276 63 329T171 416L251 284Q228 277 218 260T207 224Q207 209 214 195T235 172T269 163Q286 163 302 171T334 203L469 74Q455 56 426 36T355 2T266 -12Z" />
<glyph unicode="&apos;" horiz-adv-x="258" d="M72 404L41 732H217L185 404H72Z" />
<glyph unicode="(" horiz-adv-x="320" d="M209 -136Q149 -84 108 -15T45 138T23 314Q23 407 44 490T107 643T209 764L314 659Q252 595 221 510T189 314Q189 205 220 119T314 -31L209 -136Z" />
<glyph unicode=")" horiz-adv-x="320" d="M111 -136L6 -31Q68 33 99 119T131 314Q131 424 100 509T6 659L111 764Q172 713 213 643T275 490T297 314Q297 222 276 139T213 -14T111 -136Z" />
<glyph unicode="*" horiz-adv-x="488" d="M202 292L205 448L88 357L21 487L161 531L44 614L147 718L227 598L270 742L400 674L310 553L461 556L437 411L297 463L347 317L202 292Z" />
<glyph unicode="+" horiz-adv-x="579" d="M45 257V411H534V257H45ZM211 592H369V78H211V592Z" />
<glyph unicode="," horiz-adv-x="290" d="M46 -124L124 22L178 37Q169 20 157 9T130 -3Q96 -3 68 25T39 97Q39 143 70 176T148 209Q192 209 224 177T257 97Q257 78 250 53T221 -12L134 -172L46 -124Z" />
<glyph unicode="-" horiz-adv-x="463" d="M47 173V337H416V173H47Z" />
<glyph unicode="." horiz-adv-x="309" d="M155 -12Q108 -12 77 20T46 98Q46 145 77 177T155 209Q202 209 232 177T263 98Q263 52 233 20T155 -12Z" />
<glyph unicode="/" horiz-adv-x="367" d="M-3 -70L207 770H370L160 -70H-3Z" />
<glyph unicode="0" horiz-adv-x="676" d="M339 -12Q247 -12 176 35T63 166T22 357Q22 464 62 547T174 677T337 724Q430 724 501 677T613 547T654 356Q654 248 614 165T502 35T339 -12ZM338 158Q375 158 401 181T440 248T454 356Q454 419 441 463T401 530T337 554Q301
554 275 531T236 464T222 357Q222 294 235 250T275 182T338 158Z" />
<glyph unicode="1" horiz-adv-x="401" d="M146 0V712H344V0H146ZM13 548V712H334V548H13Z" />
<glyph unicode="2" horiz-adv-x="587" d="M20 107L304 393Q321 410 331 424T346 452T351 479Q351 514 329 534T268 555Q234 555 205 535T143 465L13 582Q57 652 126 688T285 724Q366 724 424 696T514 614T546 488Q546 447 535 411T500 341T438 270L259 100L20
107ZM20 0V107L186 164H561V0H20Z" />
<glyph unicode="3" horiz-adv-x="578" d="M259 -12Q183 -12 118 13T7 86L132 209Q149 185 184 170T256 154Q286 154 309 164T346 193T360 239Q360 266 346 285T306 314T244 324Q224 324 202 322T167 314L254 422Q289 430 316 435T365 441Q419 441 462 416T530
345T555 234Q555 161 519 106T416 19T259 -12ZM167 314V421L324 606L537 605L375 422L167 314ZM60 548V712H537V605L390 548H60Z" />
<glyph unicode="4" horiz-adv-x="618" d="M14 240L228 712H440L221 240H14ZM14 133V240L68 297H602V133H14ZM348 0V416H543V0H348Z" />
<glyph unicode="5" horiz-adv-x="575" d="M260 -12Q187 -12 118 13T3 86L129 209Q146 185 180 170T252 154Q284 154 307 165T343 196T356 244Q356 271 343 292T303 326T239 339Q207 339 179 329T131 304L153 432Q183 447 204 457T247 471T299 476Q382 476 438
443T523 356T552 237Q552 164 517 108T416 20T260 -12ZM131 304L58 368L95 712H273L236 387L131 304ZM117 548L95 712H513V548H117Z" />
<glyph unicode="6" horiz-adv-x="584" d="M292 -12Q214 -12 152 21T53 110T16 238Q16 322 74 407L281 712H503L264 382L189 398Q206 423 221 441T259 469T319 479Q389 479 445 447T534 360T568 238Q568 167 532 111T433 21T292 -12ZM292 154Q317 154 336 165T367
197T378 244Q378 270 367 290T337 322T292 334Q267 334 248 323T217 291T206 244Q206 218 217 198T247 166T292 154Z" />
<glyph unicode="7" horiz-adv-x="532" d="M102 0L326 605H519L306 0H102ZM13 548V712H519V605L463 548H13Z" />
<glyph unicode="8" horiz-adv-x="576" d="M288 -12Q207 -12 147 15T54 90T21 199Q21 252 41 293T96 360T177 394L174 361Q134 368 106 392T62 453T46 527Q46 584 76 628T161 698T288 724Q360 724 414 699T498 629T529 527Q529 489 514 453T471 393T402 361L398
394Q444 386 479 360T535 293T555 199Q555 138 522 91T429 16T288 -12ZM288 152Q311 152 328 162T356 189T366 229Q366 251 356 268T329 295T288 305Q265 305 248 295T220 268T210 229Q210 207 220 190T247 162T288 152ZM288 444Q314 444 330 460T347 502Q347 528
331 545T288 563Q262 563 245 547T228 504Q228 479 245 462T288 444Z" />
<glyph unicode="9" horiz-adv-x="584" d="M81 0L320 330L395 314Q378 289 363 271T325 243T265 233Q196 233 140 265T50 352T16 474Q16 545 52 601T151 691T292 724Q371 724 433 691T531 602T568 474Q568 390 510 305L303 0H81ZM292 378Q317 378 336 389T367 421T378
468Q378 494 367 514T337 546T292 558Q267 558 248 547T217 515T206 468Q206 442 217 422T247 390T292 378Z" />
<glyph unicode=":" horiz-adv-x="309" d="M155 -12Q108 -12 77 20T46 98Q46 145 77 177T155 209Q202 209 232 177T263 98Q263 52 233 20T155 -12ZM155 271Q108 271 77 303T46 381Q46 428 77 460T155 492Q202 492 232 460T263 381Q263 335 233 303T155 271Z" />
<glyph unicode=";" horiz-adv-x="291" d="M45 -124L123 22L177 37Q168 20 156 9T129 -3Q95 -3 67 25T38 97Q38 143 69 176T147 209Q191 209 223 177T256 97Q256 78 249 53T220 -12L133 -172L45 -124ZM148 271Q101 271 70 303T39 381Q39 428 70 460T148 492Q195
492 225 460T256 381Q256 335 226 303T148 271Z" />
<glyph unicode="&lt;" horiz-adv-x="580" d="M535 73L42 270V400L535 597V431L175 295V375L535 239V73Z" />
<glyph unicode="=" horiz-adv-x="579" d="M45 377V531H534V377H45ZM45 127V281H534V127H45Z" />
<glyph unicode="&gt;" horiz-adv-x="580" d="M45 431V597L538 400V270L45 73V239L405 375V295L45 431Z" />
<glyph unicode="?" horiz-adv-x="492" d="M185 278L170 468H228Q245 468 258 473T278 490T285 516Q285 531 278 541T260 557T232 563Q201 563 174 543T128 496L12 613Q42 667 99 705T241 744Q308 744 359 715T440 637T469 530Q469 466 445 424T381 358T296 322L339
391L331 278H185ZM258 -12Q211 -12 180 20T149 98Q149 145 180 177T258 209Q305 209 335 177T366 98Q366 52 336 20T258 -12Z" />
<glyph unicode="@" horiz-adv-x="775" d="M371 66Q334 66 300 86T245 142T224 220Q224 265 245 301T300 358T371 379Q418 379 445 359T473 284V158Q473 106 446 86T371 66ZM380 176Q401 176 411 190T422 221Q422 239 411 252T380 265Q361 265 350 252T339 221Q339
202 350 189T380 176ZM440 68V151L453 224L440 297V370H551V68H440ZM537 45L624 -44Q578 -86 518 -107T393 -128Q317 -128 252 -102T138 -28T62 82T34 220Q34 294 62 357T139 468T255 542T399 569Q500 569 577 527T697 409T740 232Q740 180 730 140T699 68H561Q577
87 588 113T604 169T610 232Q610 303 584 350T512 420T403 444Q338 444 286 418T203 342T172 219Q172 149 201 99T280 23T392 -3Q436 -3 471 9T537 45ZM499 170H699V68H499V170Z" />
<glyph unicode="A" horiz-adv-x="755" d="M6 0L277 712H481L749 0H541L342 605H414L210 0H6ZM182 120V276H580V120H182Z" />
<glyph unicode="B" horiz-adv-x="659" d="M221 0V144H352Q390 144 413 164T436 221Q436 245 426 262T397 289T352 298H221V436H343Q375 436 396 452T417 502Q417 536 396 552T343 568H221V712H399Q464 712 512 688T588 621T615 523Q615 447 561 399T403 344L401
413Q514 406 574 351T634 210Q634 148 603 101T517 27T387 0H221ZM59 0V712H255V0H59Z" />
<glyph unicode="C" horiz-adv-x="695" d="M411 -12Q329 -12 259 15T135 93T53 210T23 357Q23 437 52 504T134 620T257 696T409 724Q492 724 561 698T681 626L548 492Q524 518 490 533T409 548Q369 548 336 535T278 497T241 437T227 357Q227 312 240 277T278 216T335
178T409 164Q454 164 489 178T551 219L685 85Q632 39 566 14T411 -12Z" />
<glyph unicode="D" horiz-adv-x="768" d="M193 0V170H359Q415 170 456 190T519 253T541 357Q541 419 519 460T456 521T359 542H183V712H359Q443 712 513 687T636 615T716 503T745 356Q745 275 717 210T636 97T514 25T361 0H193ZM59 0V712H259V0H59Z" />
<glyph unicode="E" horiz-adv-x="639" d="M59 0V712H259V0H59ZM221 0V166H603V0H221ZM221 282V444H566V282H221ZM221 546V712H597V546H221Z" />
<glyph unicode="F" horiz-adv-x="614" d="M59 0V712H259V0H59ZM221 253V419H571V253H221ZM221 546V712H586V546H221Z" />
<glyph unicode="G" horiz-adv-x="797" d="M410 -12Q327 -12 257 15T134 93T52 210T23 356Q23 436 53 503T138 619T265 696T419 724Q518 724 596 690T724 598L589 463Q552 506 512 527T416 548Q363 548 320 525T252 458T226 357Q226 299 249 256T315 188T413 164Q467
164 504 185T560 245T580 337L717 250L386 260V420H781V390Q781 262 735 172T605 35T410 -12Z" />
<glyph unicode="H" horiz-adv-x="748" d="M59 0V712H259V0H59ZM489 0V712H689V0H489ZM168 280V446H567V280H168Z" />
<glyph unicode="I" horiz-adv-x="318" d="M59 0V712H259V0H59Z" />
<glyph unicode="J" horiz-adv-x="569" d="M222 -12Q149 -12 98 12T5 84L133 212Q152 188 175 176T230 164Q255 164 275 174T308 206T321 262V712H522V270Q522 182 486 119T383 22T222 -12Z" />
<glyph unicode="K" horiz-adv-x="737" d="M491 0L242 371L479 712H720L446 342L445 406L731 0H491ZM59 0V712H259V0H59Z" />
<glyph unicode="L" horiz-adv-x="572" d="M59 0V712H259V0H59ZM222 0V170H555V0H222Z" />
<glyph unicode="M" horiz-adv-x="874" d="M59 0V712H204L469 324H406L670 712H815V0H617V384L646 376L501 168H373L229 376L257 384V0H59Z" />
<glyph unicode="N" horiz-adv-x="758" d="M59 0V712H199L259 562V0H59ZM549 0L136 519L199 712L612 193L549 0ZM549 0L499 158V712H699V0H549Z" />
<glyph unicode="O" horiz-adv-x="818" d="M411 -14Q327 -14 257 14T134 92T52 210T23 357Q23 437 51 504T132 621T254 698T409 726Q493 726 563 699T686 621T766 504T795 356Q795 277 767 210T686 92T564 14T411 -14ZM409 162Q465 162 506 186T569 254T591 357Q591
401 579 436T542 497T485 536T409 550Q353 550 312 527T249 460T227 357Q227 312 239 276T276 215T333 176T409 162Z" />
<glyph unicode="P" horiz-adv-x="652" d="M221 250V394H350Q373 394 392 403T424 432T436 481Q436 510 424 529T393 558T350 568H221V712H389Q458 712 513 685T601 606T634 481Q634 409 602 357T514 278T389 250H221ZM59 0V712H259V0H59Z" />
<glyph unicode="Q" horiz-adv-x="818" d="M411 -14Q327 -14 257 14T134 92T52 210T23 357Q23 437 51 504T132 621T254 698T409 726Q493 726 563 699T686 621T766 504T795 356Q795 277 767 210T686 92T564 14T411 -14ZM409 162Q465 162 506 186T569 254T591 357Q591
401 579 436T542 497T485 536T409 550Q353 550 312 527T249 460T227 357Q227 312 239 276T276 215T333 176T409 162ZM720 -65L375 280L483 388L828 43L720 -65Z" />
<glyph unicode="R" horiz-adv-x="675" d="M221 284V422H342Q383 422 404 442T426 495Q426 528 405 548T342 568H221V712H374Q448 712 504 685T592 610T624 498Q624 434 592 386T501 311T364 284H221ZM59 0V712H259V0H59ZM443 0L249 304L429 343L670 0H443Z" />
<glyph unicode="S" horiz-adv-x="609" d="M289 -12Q198 -12 131 14T6 99L131 224Q170 187 213 168T305 148Q346 148 367 160T388 195Q388 217 370 231T323 257T258 281T187 310T123 351T75 412T57 502Q57 571 90 621T183 697T324 724Q404 724 472 699T586 626L460
501Q427 533 394 548T322 564Q291 564 273 554T254 524Q254 503 272 490T319 465T384 442T455 414T519 372T567 308T585 216Q585 107 508 48T289 -12Z" />
<glyph unicode="T" horiz-adv-x="659" d="M229 0V712H429V0H229ZM16 542V712H643V542H16Z" />
<glyph unicode="U" horiz-adv-x="714" d="M358 -12Q264 -12 194 26T85 133T46 289V712H246V271Q246 237 261 213T301 177T358 164Q390 164 414 176T453 212T467 270V712H668V288Q668 200 630 133T522 27T358 -12Z" />
<glyph unicode="V" horiz-adv-x="730" d="M268 0L7 712H219L412 137H318L514 712H723L458 0H268Z" />
<glyph unicode="W" horiz-adv-x="1022" d="M232 0L8 712H207L365 164H273L429 712H594L750 164H659L817 712H1014L790 0H624L468 547H554L398 0H232Z" />
<glyph unicode="X" horiz-adv-x="732" d="M491 0L303 317H286L19 712H257L439 413H456L726 0H491ZM6 0L262 381L424 313L235 0H6ZM459 331L297 399L484 712H713L459 331Z" />
<glyph unicode="Y" horiz-adv-x="701" d="M275 245L4 712H234L439 331H267L472 712H697L424 245H275ZM252 0V318H452V0H252Z" />
<glyph unicode="Z" horiz-adv-x="626" d="M26 139L354 573H598L269 139H26ZM26 0V139L135 165H589V0H26ZM42 547V712H598V573L487 547H42Z" />
<glyph unicode="[" horiz-adv-x="356" d="M57 -96V732H211V-96H57ZM134 -96V41H325V-96H134ZM134 595V732H325V595H134Z" />
<glyph unicode="\" horiz-adv-x="367" d="M207 -70L-3 770H160L370 -70H207Z" />
<glyph unicode="]" horiz-adv-x="356" d="M145 -96V732H299V-96H145ZM31 -96V41H222V-96H31ZM31 595V732H222V595H31Z" />
<glyph unicode="^" horiz-adv-x="481" d="M314 447L207 660H275L167 447H22L183 732H298L459 447H314Z" />
<glyph unicode="_" horiz-adv-x="529" d="M0 -183V-39H529V-183H0Z" />
<glyph unicode="`" horiz-adv-x="353" d="M263 512L40 592L123 744L313 609L263 512Z" />
<glyph unicode="a" horiz-adv-x="610" d="M252 -10Q183 -10 130 23T47 113T17 246Q17 321 47 379T130 469T252 502Q295 502 331 488T392 447T424 387V105Q417 71 393 45T332 5T252 -10ZM296 162Q333 162 355 185T378 246Q378 271 368 289T340 319T297 330Q273
330 255 319T225 289T214 246Q214 222 224 203T254 173T296 162ZM372 0V132L399 252L372 371V492H563V0H372Z" />
<glyph unicode="b" horiz-adv-x="610" d="M350 -10Q306 -10 267 7T201 52T166 115V387Q174 421 201 447T267 487T350 502Q423 502 477 470T562 379T593 246Q593 171 563 114T478 23T350 -10ZM314 162Q338 162 356 173T385 203T396 246Q396 270 386 289T356 319T313
330Q289 330 271 319T242 290T232 246Q232 221 242 202T271 173T314 162ZM47 0V732H243V371L211 252L238 132V0H47Z" />
<glyph unicode="c" horiz-adv-x="505" d="M296 -12Q216 -12 152 21T51 112T14 245Q14 320 51 378T153 470T299 504Q357 504 403 486T490 431L367 308Q354 320 338 326T299 332Q275 332 256 322T224 292T212 247Q212 221 224 202T256 171T299 160Q325 160 342 168T372
190L495 67Q452 27 405 8T296 -12Z" />
<glyph unicode="d" horiz-adv-x="610" d="M260 -10Q187 -10 133 23T48 113T17 246Q17 321 47 379T132 469T260 502Q304 502 343 488T409 447T444 387V115Q437 81 410 53T343 7T260 -10ZM296 162Q321 162 339 172T367 202T378 246Q378 271 368 289T340 319T297
330Q273 330 255 319T225 289T214 246Q214 222 224 203T254 173T296 162ZM563 0H372V132L399 252L367 371V732H563V0Z" />
<glyph unicode="e" horiz-adv-x="561" d="M303 -12Q217 -12 152 20T51 111T14 246Q14 321 49 379T147 470T287 504Q364 504 423 473T515 385T549 257Q549 242 548 226T541 187L97 184V304L468 307L377 254Q377 294 368 319T339 358T291 371Q261 371 239 356T206
313T194 245Q194 204 206 177T243 135T303 121Q338 121 364 132T413 169L511 72Q474 30 422 9T303 -12Z" />
<glyph unicode="f" horiz-adv-x="468" d="M105 0V512Q105 576 133 628T214 712T342 744Q398 744 441 726T514 678L393 557Q386 565 375 568T352 572Q329 572 315 558T301 521V0H105ZM5 332V492H436V332H5Z" />
<glyph unicode="g" horiz-adv-x="592" d="M258 -226Q175 -226 111 -199T12 -121L128 -6Q151 -31 179 -45T247 -60Q295 -60 322 -37T350 30V160L382 266L355 371V492H546V38Q546 -43 508 -102T405 -193T258 -226ZM249 20Q180 20 127 52T44 139T14 261Q14 329 44
383T127 470T249 502Q292 502 328 488T389 447T421 387V135Q414 101 390 75T329 35T249 20ZM285 187Q309 187 326 198T352 226T361 262Q361 281 352 298T327 326T286 337Q263 337 246 326T220 298T211 262Q211 245 220 228T245 199T285 187Z" />
<glyph unicode="h" horiz-adv-x="593" d="M360 0V276Q360 305 344 320T302 336Q285 336 272 329T251 309T243 276L167 310Q167 370 191 413T259 479T361 502Q421 502 465 479T532 415T556 321V0H360ZM47 0V732H243V0H47Z" />
<glyph unicode="i" horiz-adv-x="288" d="M46 0V492H242V0H46ZM144 538Q101 538 73 567T44 640Q44 683 72 712T144 742Q188 742 216 713T244 640Q244 597 216 568T144 538Z" />
<glyph unicode="j" horiz-adv-x="303" d="M38 -226Q-17 -226 -58 -207T-129 -156L-10 -37Q0 -47 8 -50T25 -54Q42 -54 51 -45T61 -13V492H257V-9Q257 -72 230 -121T154 -198T38 -226ZM159 538Q116 538 88 567T59 640Q59 683 87 712T159 742Q203 742 231 713T259
640Q259 597 231 568T159 538Z" />
<glyph unicode="k" horiz-adv-x="580" d="M364 0L227 259L363 492H574L398 229L403 293L584 0H364ZM47 0V732H243V0H47Z" />
<glyph unicode="l" horiz-adv-x="290" d="M47 0V732H243V0H47Z" />
<glyph unicode="m" horiz-adv-x="885" d="M47 0V492H243V0H47ZM350 0V282Q350 307 335 321T297 336Q281 336 269 330T250 311T243 282L167 310Q167 370 193 413T265 479T367 502Q417 502 457 478T522 412T546 311V0H350ZM653 0V282Q653 307 638 321T600 336Q584
336 572 330T553 311T546 282L431 281Q431 350 458 399T535 475T647 502Q706 502 751 477T823 405T849 292V0H653Z" />
<glyph unicode="n" horiz-adv-x="593" d="M360 0V276Q360 305 344 320T302 336Q285 336 272 329T251 309T243 276L167 310Q167 370 193 413T266 479T372 502Q425 502 466 479T532 415T556 321V0H360ZM47 0V492H243V0H47Z" />
<glyph unicode="o" horiz-adv-x="588" d="M295 -12Q214 -12 151 21T51 114T14 247Q14 321 50 379T149 470T294 504Q375 504 438 471T537 379T574 247Q574 173 538 114T439 22T295 -12ZM294 160Q319 160 337 170T366 200T376 246Q376 272 366 291T337 321T294 332Q270
332 252 321T223 291T212 245Q212 220 222 201T251 171T294 160Z" />
<glyph unicode="p" horiz-adv-x="610" d="M350 -10Q306 -10 267 4T201 45T166 105V377Q174 411 201 439T267 485T350 502Q423 502 477 470T562 379T593 246Q593 171 563 114T478 23T350 -10ZM313 162Q337 162 356 173T385 203T396 246Q396 271 386 289T357 319T314
330Q290 330 272 320T243 290T232 246Q232 222 242 203T270 173T313 162ZM47 -210V492H243V371L211 252L238 132V-210H47Z" />
<glyph unicode="q" horiz-adv-x="610" d="M252 -10Q183 -10 130 23T47 113T17 246Q17 321 47 379T130 469T252 502Q295 502 331 488T392 447T424 387V105Q417 71 393 45T332 5T252 -10ZM296 162Q333 162 355 185T378 246Q378 271 368 289T340 319T297 330Q273
330 255 319T225 289T214 246Q214 222 224 203T254 173T296 162ZM372 -210V132L399 252L372 371V492H563V-210H372Z" />
<glyph unicode="r" horiz-adv-x="462" d="M47 0V492H243V0H47ZM243 266L152 347Q190 427 240 464T367 502Q401 502 425 494T465 471L355 315Q348 323 335 328T303 334Q273 334 258 317T243 266Z" />
<glyph unicode="s" horiz-adv-x="485" d="M243 -15Q197 -15 151 -3T66 30T-1 78L102 184Q126 160 159 146T230 132Q247 132 256 136T266 149Q266 163 250 170T208 183T154 198T99 224T57 270T41 346Q41 393 67 429T142 487T255 509Q320 509 381 487T478 421L374
315Q349 343 319 352T269 362Q250 362 243 357T235 343Q235 332 251 325T292 312T346 296T399 268T441 221T457 144Q457 71 399 28T243 -15Z" />
<glyph unicode="t" horiz-adv-x="420" d="M112 0V694H308V0H112ZM7 332V492H413V332H7Z" />
<glyph unicode="u" horiz-adv-x="561" d="M281 -12Q209 -12 154 16T66 94T34 208V492H230V206Q230 191 236 179T254 161T281 154Q302 154 316 168T331 206V492H527V208Q527 143 496 94T409 16T281 -12Z" />
<glyph unicode="v" horiz-adv-x="563" d="M190 0L-3 492H205L318 73H247L359 492H566L373 1L190 0Z" />
<glyph unicode="w" horiz-adv-x="815" d="M144 0L1 492H187L266 134L211 133L314 492H499L603 133L547 134L628 492H814L671 0H484L388 340H428L329 0H144Z" />
<glyph unicode="x" horiz-adv-x="563" d="M344 0L249 174L203 199L7 492H231L327 316L372 293L566 0H344ZM-3 0L201 296L311 179L203 0H-3ZM360 199L250 316L350 492H556L360 199Z" />
<glyph unicode="y" horiz-adv-x="549" d="M191 0L-3 492H205L319 73H233L345 492H552L359 1L191 0ZM84 -210L227 113L359 1L276 -210H84Z" />
<glyph unicode="z" horiz-adv-x="510" d="M21 119L241 373H484L264 119H21ZM21 0V119L138 156H478V0H21ZM38 336V492H484V373L367 336H38Z" />
<glyph unicode="{" horiz-adv-x="357" d="M260 -96Q167 -96 116 -50T75 94L86 205Q89 232 78 242T39 252H11V387H39Q67 387 78 397T86 434L74 542Q64 637 115 684T260 732H326V595H298Q256 595 243 579T232 536L240 449Q244 407 236 378T201 330T122 299V337Q174
327 201 309T236 261T240 190L232 100Q230 73 243 57T298 41H326V-96H260Z" />
<glyph unicode="|" horiz-adv-x="317" d="M71 -130V782H246V-130H71Z" />
<glyph unicode="}" horiz-adv-x="357" d="M87 -96H21V41H49Q91 41 104 57T115 100L107 190Q103 232 111 261T146 308T225 337V299Q173 311 146 330T111 378T107 449L115 536Q118 563 105 579T49 595H21V732H87Q180 732 231 685T273 542L261 434Q258 407 269 397T308
387H336V252H308Q280 252 269 242T261 205L272 94Q283 -4 232 -50T87 -96Z" />
<glyph unicode="~" horiz-adv-x="635" d="M403 256Q368 256 345 265T304 285T269 305T228 314Q200 314 180 302T138 265L42 361Q86 415 129 440T227 466Q259 466 282 457T323 437T359 417T402 408Q430 408 452 418T496 457L593 360Q548 305 504 281T403 256Z" />
<glyph unicode="&#xa0;" horiz-adv-x="180" />
<glyph unicode="&#xa1;" horiz-adv-x="305" d="M45 -210L80 207H225L260 -210H45ZM153 281Q106 281 75 313T44 392Q44 439 75 470T153 502Q200 502 230 471T261 392Q261 346 231 314T153 281Z" />
<glyph unicode="&#xa2;" horiz-adv-x="505" d="M296 98Q216 98 152 131T51 222T14 355Q14 430 51 488T153 580T299 614Q357 614 403 596T490 541L367 418Q354 430 338 436T299 442Q275 442 256 432T224 402T212 357Q212 331 224 312T256 281T299 270Q325 270 342
278T372 300L495 177Q452 137 405 118T296 98ZM212 10V702H352V10H212Z" />
<glyph unicode="&#xa3;" horiz-adv-x="637" d="M147 0V502Q147 572 179 626T269 711T400 742Q464 742 519 717T606 648L483 525Q467 548 452 557T415 566Q394 566 379 558T355 534T347 495V0H147ZM48 0V170H583V0H48ZM48 285V425H512V285H48Z" />
<glyph unicode="&#xa4;" horiz-adv-x="602" d="M302 146Q234 146 181 173T98 247T67 356Q67 417 97 464T180 538T301 565Q370 565 422 538T505 464T535 356Q535 296 505 249T423 174T302 146ZM301 302Q317 302 329 308T349 326T356 355Q356 373 349 385T329 403T301
409Q286 409 274 402T254 383T246 354Q246 338 253 327T273 309T301 302ZM445 401L346 500L463 617L562 518L445 401ZM139 95L40 194L157 311L256 212L139 95ZM346 212L445 311L562 194L463 95L346 212ZM40 518L139 617L256 500L157 401L40 518Z" />
<glyph unicode="&#xa5;" horiz-adv-x="701" d="M275 245L44 712H254L409 331H297L452 712H657L424 245H275ZM252 0V318H452V0H252ZM242 473L264 373H62V473H242ZM62 228V328H639V228H62ZM456 373L489 473H639V373H456Z" />
<glyph unicode="&#xa6;" horiz-adv-x="317" d="M71 397V782H246V397H71ZM71 -130V255H246V-130H71Z" />
<glyph unicode="&#xa7;" horiz-adv-x="561" d="M289 148L278 264Q301 264 314 271T327 294Q327 314 309 324T262 343T201 362T140 392T93 445T74 533Q74 589 102 631T181 698T301 722Q370 722 434 696T536 619L429 508Q403 540 370 553T312 566Q288 566 278 558T267
536Q267 519 285 510T331 492T392 474T452 445T499 396T517 315Q517 268 489 230T410 170T289 148ZM260 -122Q191 -122 127 -96T25 -19L132 92Q158 60 191 47T249 34Q273 34 283 42T294 64Q294 81 276 90T230 108T169 126T109 155T62 204T44 285Q44 333 72 370T151
430T272 452L283 336Q261 336 248 329T234 306Q234 287 252 276T299 257T360 238T421 208T468 155T487 67Q487 12 459 -31T380 -98T260 -122Z" />
<glyph unicode="&#xa8;" horiz-adv-x="530" d="M150 538Q107 538 79 567T50 640Q50 683 78 712T150 742Q194 742 222 713T250 640Q250 597 222 568T150 538ZM380 538Q337 538 309 567T280 640Q280 683 308 712T380 742Q424 742 452 713T480 640Q480 597 452 568T380 538Z" />
<glyph unicode="&#xa9;" horiz-adv-x="797" d="M399 -10Q319 -10 253 18T137 97T61 214T34 360Q34 437 60 503T135 620T250 698T397 726Q478 726 545 698T661 620T736 504T763 359Q763 281 737 214T662 97T546 18T399 -10ZM397 53Q486 53 554 93T660 203T698 360Q698
445 660 513T554 622T397 663Q309 663 242 623T137 515T99 360Q99 273 137 204T242 94T397 53ZM413 150Q348 150 296 177T213 250T182 358Q182 418 213 465T297 539T416 566Q463 566 500 552T570 509L461 400Q453 408 443 411T416 415Q400 415 387 408T365 389T357
359Q357 342 365 329T387 309T416 301Q433 301 444 306T466 322L575 213Q538 179 500 165T413 150Z" />
<glyph unicode="&#xaa;" horiz-adv-x="367" d="M151 410Q110 410 78 429T28 484T10 564Q10 609 28 643T78 698T151 718Q189 718 218 699T254 650V478Q247 448 218 429T151 410ZM178 515Q200 515 213 528T226 564Q226 585 213 599T179 613Q158 613 144 599T130
564Q130 542 144 529T178 515ZM222 416V495L239 567L222 639V712H339V416H222Z" />
<glyph unicode="&#xab;" horiz-adv-x="544" d="M115 62L15 247L115 432H290L185 247L290 62H115ZM355 62L255 247L355 432H530L425 247L530 62H355Z" />
<glyph unicode="&#xac;" horiz-adv-x="579" d="M45 317V471H534V317H45ZM376 441H534V168H376V441Z" />
<glyph unicode="&#xad;" horiz-adv-x="463" d="M47 173V337H416V173H47Z" />
<glyph unicode="&#xae;" horiz-adv-x="534" d="M267 264Q201 264 150 294T70 377T40 495Q40 559 69 610T149 692T266 722Q333 722 384 692T465 610T494 494Q494 430 465 378T385 295T267 264ZM266 318Q318 318 357 341T418 404T440 495Q440 544 418 583T357 645T266
669Q215 669 177 646T117 584T95 495Q95 445 116 405T177 341T266 318ZM238 475V517H275Q287 517 293 523T300 539Q300 548 294 554T275 560H238V604H284Q317 604 338 586T359 539Q359 511 338 493T281 475H238ZM190 390V604H250V390H190ZM305 390L247 481L301
493L373 390H305Z" />
<glyph unicode="&#xaf;" horiz-adv-x="472" d="M40 691H432V554H40V691Z" />
<glyph unicode="&#xb0;" horiz-adv-x="399" d="M200 377Q148 377 109 400T47 461T24 549Q24 598 46 637T108 699T200 722Q252 722 291 699T352 637T375 549Q375 500 353 462T291 400T200 377ZM200 506Q218 506 230 518T243 549Q243 568 231 580T200 593Q181 593
169 581T156 549Q156 531 168 519T200 506Z" />
<glyph unicode="&#xb1;" horiz-adv-x="579" d="M45 337V491H534V337H45ZM211 582H369V248H211V582ZM45 67V221H534V67H45Z" />
<glyph unicode="&#xb2;" horiz-adv-x="339" d="M20 419L170 567Q173 569 175 574T177 583Q177 594 170 601T148 609Q136 609 125 600T97 568L13 645Q36 681 74 699T161 718Q229 718 267 684T306 590Q306 562 294 535T256 484L175 412L20 419ZM20 350V419L129 456H313V350H20Z"
/>
<glyph unicode="&#xb3;" horiz-adv-x="329" d="M143 343Q103 343 68 356T7 392L88 471Q95 463 110 457T141 450Q156 450 167 456T179 476Q179 488 167 495T133 502Q120 502 109 501T93 497L151 567Q171 570 187 573T214 576Q253 576 279 549T306 473Q306 415 262
379T143 343ZM93 497V565L157 643H294L228 567L93 497ZM39 605V712H294V643L201 605H39Z" />
<glyph unicode="&#xb4;" horiz-adv-x="353" d="M90 532L40 629L230 764L313 612L90 532Z" />
<glyph unicode="&#xb5;" horiz-adv-x="610" d="M71 -200V492H267V-200H71ZM367 -10Q277 -10 234 46T191 192L267 212Q267 180 283 167T318 154Q337 154 352 167T368 212V492H564V181Q564 123 537 81T466 14T367 -10Z" />
<glyph unicode="&#xb6;" horiz-adv-x="717" d="M411 250H273Q205 250 149 277T61 357T28 481Q28 554 60 605T149 684T273 712H693V568H282Q260 568 240 559T208 530T196 481Q196 452 208 433T240 404T282 394H411V250ZM443 -100H293V712H443V-100ZM633 -100H483V712H633V-100Z"
/>
<glyph unicode="&#xb7;" horiz-adv-x="217" d="M109 261Q62 261 31 293T0 371Q0 418 31 450T109 482Q156 482 186 450T217 371Q217 325 187 293T109 261Z" />
<glyph unicode="&#xb8;" horiz-adv-x="332" d="M161 -220Q118 -220 90 -211T30 -184L80 -117Q95 -126 110 -130T139 -135Q155 -135 161 -130T168 -116Q168 -108 157 -103T123 -97H111L145 11H238L209 -63L161 -22Q232 -22 267 -48T302 -121Q302 -163 264 -191T161 -220Z" />
<glyph unicode="&#xb9;" horiz-adv-x="264" d="M77 350V712H207V350H77ZM13 605V712H202V605H13Z" />
<glyph unicode="&#xba;" horiz-adv-x="353" d="M177 408Q129 408 91 428T30 483T8 563Q8 608 30 643T90 698T177 718Q226 718 263 698T323 643T345 563Q345 519 323 484T264 428T177 408ZM177 513Q199 513 211 527T224 563Q224 586 211 599T177 613Q155 613 142
599T129 562Q129 540 142 527T177 513Z" />
<glyph unicode="&#xbb;" horiz-adv-x="544" d="M254 62L359 247L254 432H429L529 247L429 62H254ZM14 62L119 247L14 432H189L289 247L189 62H14Z" />
<glyph unicode="&#xbc;" horiz-adv-x="700" d="M279 320L346 255L121 -10L10 101L279 320ZM407 392L340 457L565 722L676 611L407 392ZM115 350V712H245V350H115ZM51 605V712H240V605H51ZM366 121L462 362H590L492 121H366ZM366 53V121L398 159H677V53H366ZM541
0V206H659V0H541Z" />
<glyph unicode="&#xbd;" horiz-adv-x="700" d="M269 320L336 255L121 -10L10 101L269 320ZM407 392L340 457L565 722L676 611L407 392ZM115 350V712H245V350H115ZM51 605V712H240V605H51ZM372 69L522 217Q525 219 527 224T529 233Q529 244 522 251T500 259Q488
259 477 250T449 218L365 295Q388 331 426 349T513 368Q581 368 619 334T658 240Q658 212 646 185T608 134L527 62L372 69ZM372 0V69L481 106H665V0H372Z" />
<glyph unicode="&#xbe;" horiz-adv-x="696" d="M258 330L325 265L120 -10L9 101L258 330ZM436 382L369 447L564 722L675 611L436 382ZM170 343Q130 343 95 356T34 392L115 471Q122 463 137 457T168 450Q183 450 194 456T206 476Q206 488 194 495T160 502Q147 502
136 501T120 497L178 567Q198 570 214 573T241 576Q280 576 306 549T333 473Q333 415 289 379T170 343ZM120 497V565L184 643H321L255 567L120 497ZM66 605V712H321V643L228 605H66ZM355 121L451 362H579L481 121H355ZM355 53V121L387 159H666V53H355ZM530 0V206H648V0H530Z"
/>
<glyph unicode="&#xbf;" horiz-adv-x="493" d="M251 -222Q184 -222 133 -196T52 -125T23 -21Q23 35 48 76T114 143T206 181L153 131L161 212H307L322 54H264Q239 54 223 42T207 6Q207 -9 214 -19T233 -35T260 -41Q291 -41 318 -21T364 26L480 -91Q450 -145 393
-183T251 -222ZM234 281Q188 281 157 313T126 392Q126 439 157 470T234 502Q281 502 312 471T343 392Q343 346 312 314T234 281Z" />
<glyph unicode="&#xc0;" horiz-adv-x="755" d="M6 0L277 712H481L749 0H541L342 605H414L210 0H6ZM182 120V276H580V120H182ZM444 762L221 842L304 994L494 859L444 762Z" />
<glyph unicode="&#xc1;" horiz-adv-x="755" d="M6 0L277 712H481L749 0H541L342 605H414L210 0H6ZM182 120V276H580V120H182ZM291 752L241 849L431 984L514 832L291 752Z" />
<glyph unicode="&#xc2;" horiz-adv-x="755" d="M6 0L277 712H481L749 0H541L342 605H414L210 0H6ZM182 120V276H580V120H182ZM225 747L175 829L331 964H424L580 829L530 747L299 858H457L225 747Z" />
<glyph unicode="&#xc3;" horiz-adv-x="755" d="M6 0L277 712H481L749 0H541L342 605H414L210 0H6ZM182 120V276H580V120H182ZM452 754Q421 754 397 764T353 785T312 796Q290 796 273 786T242 755L156 841Q184 894 220 916T303 938Q335 938 358 928T402 907T443
896Q466 896 483 906T513 937L599 851Q571 799 535 777T452 754Z" />
<glyph unicode="&#xc4;" horiz-adv-x="755" d="M6 0L277 712H481L749 0H541L342 605H414L210 0H6ZM182 120V276H580V120H182ZM263 758Q220 758 192 787T163 860Q163 903 191 932T263 962Q307 962 335 933T363 860Q363 817 335 788T263 758ZM493 758Q450 758 422
787T393 860Q393 903 421 932T493 962Q537 962 565 933T593 860Q593 817 565 788T493 758Z" />
<glyph unicode="&#xc5;" horiz-adv-x="755" d="M6 0L277 712H481L749 0H541L342 605H414L210 0H6ZM182 120V276H580V120H182ZM378 658Q339 658 308 676T259 724T241 793Q241 831 259 861T308 910T378 928Q416 928 447 910T496 862T514 793Q514 755 496 725T447
676T378 658ZM378 749Q396 749 408 761T420 793Q420 812 408 824T378 837Q359 837 347 825T335 793Q335 774 347 762T378 749Z" />
<glyph unicode="&#xc6;" horiz-adv-x="1006" d="M6 0L277 712H503V546H394L210 0H6ZM182 170V326H540V170H182ZM618 0V166H970V0H618ZM456 0V712H656V0H456ZM618 282V444H933V282H618ZM618 546V712H964V546H618Z" />
<glyph unicode="&#xc7;" horiz-adv-x="695" d="M411 -12Q329 -12 259 15T135 93T53 210T23 357Q23 437 52 504T134 620T257 696T409 724Q492 724 561 698T681 626L548 492Q524 518 490 533T409 548Q369 548 336 535T278 497T241 437T227 357Q227 312 240 277T278
216T335 178T409 164Q454 164 489 178T551 219L685 85Q632 39 566 14T411 -12ZM354 -220Q311 -220 283 -211T223 -184L273 -117Q288 -126 303 -130T332 -135Q348 -135 354 -130T361 -116Q361 -108 350 -103T316 -97H304L338 11H431L402 -63L354 -22Q425 -22 460
-48T495 -121Q495 -163 457 -191T354 -220Z" />
<glyph unicode="&#xc8;" horiz-adv-x="639" d="M59 0V712H259V0H59ZM221 0V166H603V0H221ZM221 282V444H566V282H221ZM221 546V712H597V546H221ZM406 762L183 842L266 994L456 859L406 762Z" />
<glyph unicode="&#xc9;" horiz-adv-x="639" d="M59 0V712H259V0H59ZM221 0V166H603V0H221ZM221 282V444H566V282H221ZM221 546V712H597V546H221ZM253 752L203 849L393 984L476 832L253 752Z" />
<glyph unicode="&#xca;" horiz-adv-x="639" d="M59 0V712H259V0H59ZM221 0V166H603V0H221ZM221 282V444H566V282H221ZM221 546V712H597V546H221ZM187 747L137 829L293 964H386L542 829L492 747L261 858H419L187 747Z" />
<glyph unicode="&#xcb;" horiz-adv-x="639" d="M59 0V712H259V0H59ZM221 0V166H603V0H221ZM221 282V444H566V282H221ZM221 546V712H597V546H221ZM225 758Q182 758 154 787T125 860Q125 903 153 932T225 962Q269 962 297 933T325 860Q325 817 297 788T225 758ZM455
758Q412 758 384 787T355 860Q355 903 383 932T455 962Q499 962 527 933T555 860Q555 817 527 788T455 758Z" />
<glyph unicode="&#xcc;" horiz-adv-x="318" d="M59 0V712H259V0H59ZM225 762L2 842L85 994L275 859L225 762Z" />
<glyph unicode="&#xcd;" horiz-adv-x="318" d="M59 0V712H259V0H59ZM72 752L22 849L212 984L295 832L72 752Z" />
<glyph unicode="&#xce;" horiz-adv-x="318" d="M59 0V712H259V0H59ZM6 747L-44 829L112 964H205L361 829L311 747L80 858H238L6 747Z" />
<glyph unicode="&#xcf;" horiz-adv-x="318" d="M59 0V712H259V0H59ZM44 758Q1 758 -27 787T-56 860Q-56 903 -28 932T44 962Q88 962 116 933T144 860Q144 817 116 788T44 758ZM274 758Q231 758 203 787T174 860Q174 903 202 932T274 962Q318 962 346 933T374 860Q374
817 346 788T274 758Z" />
<glyph unicode="&#xd0;" horiz-adv-x="788" d="M18 430H403V285H18V430ZM213 0V170H379Q435 170 476 190T539 253T561 357Q561 419 539 460T476 521T379 542H203V712H379Q463 712 533 687T656 615T736 503T765 356Q765 275 737 210T656 97T534 25T381 0H213ZM79
0V712H279V0H79Z" />
<glyph unicode="&#xd1;" horiz-adv-x="758" d="M59 0V712H199L259 562V0H59ZM549 0L136 519L199 712L612 193L549 0ZM549 0L499 158V712H699V0H549ZM453 754Q422 754 398 764T354 785T313 796Q291 796 274 786T243 755L157 841Q185 894 221 916T304 938Q336 938
359 928T403 907T444 896Q467 896 484 906T514 937L600 851Q572 799 536 777T453 754Z" />
<glyph unicode="&#xd2;" horiz-adv-x="818" d="M411 -14Q327 -14 257 14T134 92T52 210T23 357Q23 437 51 504T132 621T254 698T409 726Q493 726 563 699T686 621T766 504T795 356Q795 277 767 210T686 92T564 14T411 -14ZM409 162Q465 162 506 186T569 254T591
357Q591 401 579 436T542 497T485 536T409 550Q353 550 312 527T249 460T227 357Q227 312 239 276T276 215T333 176T409 162ZM475 762L252 842L335 994L525 859L475 762Z" />
<glyph unicode="&#xd3;" horiz-adv-x="818" d="M411 -14Q327 -14 257 14T134 92T52 210T23 357Q23 437 51 504T132 621T254 698T409 726Q493 726 563 699T686 621T766 504T795 356Q795 277 767 210T686 92T564 14T411 -14ZM409 162Q465 162 506 186T569 254T591
357Q591 401 579 436T542 497T485 536T409 550Q353 550 312 527T249 460T227 357Q227 312 239 276T276 215T333 176T409 162ZM322 752L272 849L462 984L545 832L322 752Z" />
<glyph unicode="&#xd4;" horiz-adv-x="818" d="M411 -14Q327 -14 257 14T134 92T52 210T23 357Q23 437 51 504T132 621T254 698T409 726Q493 726 563 699T686 621T766 504T795 356Q795 277 767 210T686 92T564 14T411 -14ZM409 162Q465 162 506 186T569 254T591
357Q591 401 579 436T542 497T485 536T409 550Q353 550 312 527T249 460T227 357Q227 312 239 276T276 215T333 176T409 162ZM256 747L206 829L362 964H455L611 829L561 747L330 858H488L256 747Z" />
<glyph unicode="&#xd5;" horiz-adv-x="818" d="M411 -14Q327 -14 257 14T134 92T52 210T23 357Q23 437 51 504T132 621T254 698T409 726Q493 726 563 699T686 621T766 504T795 356Q795 277 767 210T686 92T564 14T411 -14ZM409 162Q465 162 506 186T569 254T591
357Q591 401 579 436T542 497T485 536T409 550Q353 550 312 527T249 460T227 357Q227 312 239 276T276 215T333 176T409 162ZM483 754Q452 754 428 764T384 785T343 796Q321 796 304 786T273 755L187 841Q215 894 251 916T334 938Q366 938 389 928T433 907T474
896Q497 896 514 906T544 937L630 851Q602 799 566 777T483 754Z" />
<glyph unicode="&#xd6;" horiz-adv-x="818" d="M411 -14Q327 -14 257 14T134 92T52 210T23 357Q23 437 51 504T132 621T254 698T409 726Q493 726 563 699T686 621T766 504T795 356Q795 277 767 210T686 92T564 14T411 -14ZM409 162Q465 162 506 186T569 254T591
357Q591 401 579 436T542 497T485 536T409 550Q353 550 312 527T249 460T227 357Q227 312 239 276T276 215T333 176T409 162ZM294 758Q251 758 223 787T194 860Q194 903 222 932T294 962Q338 962 366 933T394 860Q394 817 366 788T294 758ZM524 758Q481 758 453
787T424 860Q424 903 452 932T524 962Q568 962 596 933T624 860Q624 817 596 788T524 758Z" />
<glyph unicode="&#xd7;" horiz-adv-x="553" d="M137 83L25 195L417 586L529 475L137 83ZM407 91L33 465L145 577L519 203L407 91Z" />
<glyph unicode="&#xd8;" horiz-adv-x="818" d="M685 753L806 632L133 -41L12 80L685 753ZM411 -14Q327 -14 257 14T134 92T52 210T23 357Q23 437 51 504T132 621T254 698T409 726Q493 726 563 699T686 621T766 504T795 356Q795 277 767 210T686 92T564 14T411
-14ZM409 162Q465 162 506 186T569 254T591 357Q591 401 579 436T542 497T485 536T409 550Q353 550 312 527T249 460T227 357Q227 312 239 276T276 215T333 176T409 162Z" />
<glyph unicode="&#xd9;" horiz-adv-x="714" d="M358 -12Q264 -12 194 26T85 133T46 289V712H246V271Q246 237 261 213T301 177T358 164Q390 164 414 176T453 212T467 270V712H668V288Q668 200 630 133T522 27T358 -12ZM423 762L200 842L283 994L473 859L423 762Z" />
<glyph unicode="&#xda;" horiz-adv-x="714" d="M358 -12Q264 -12 194 26T85 133T46 289V712H246V271Q246 237 261 213T301 177T358 164Q390 164 414 176T453 212T467 270V712H668V288Q668 200 630 133T522 27T358 -12ZM270 752L220 849L410 984L493 832L270 752Z" />
<glyph unicode="&#xdb;" horiz-adv-x="714" d="M358 -12Q264 -12 194 26T85 133T46 289V712H246V271Q246 237 261 213T301 177T358 164Q390 164 414 176T453 212T467 270V712H668V288Q668 200 630 133T522 27T358 -12ZM204 747L154 829L310 964H403L559 829L509
747L278 858H436L204 747Z" />
<glyph unicode="&#xdc;" horiz-adv-x="714" d="M358 -12Q264 -12 194 26T85 133T46 289V712H246V271Q246 237 261 213T301 177T358 164Q390 164 414 176T453 212T467 270V712H668V288Q668 200 630 133T522 27T358 -12ZM242 758Q199 758 171 787T142 860Q142 903
170 932T242 962Q286 962 314 933T342 860Q342 817 314 788T242 758ZM472 758Q429 758 401 787T372 860Q372 903 400 932T472 962Q516 962 544 933T572 860Q572 817 544 788T472 758Z" />
<glyph unicode="&#xdd;" horiz-adv-x="701" d="M275 245L4 712H234L439 331H267L472 712H697L424 245H275ZM252 0V318H452V0H252ZM264 752L214 849L404 984L487 832L264 752Z" />
<glyph unicode="&#xde;" horiz-adv-x="652" d="M221 130V274H350Q373 274 392 283T424 312T436 361Q436 390 424 409T393 438T350 448H221V592H389Q458 592 513 565T601 486T634 361Q634 289 602 237T514 158T389 130H221ZM59 0V712H259V0H59Z" />
<glyph unicode="&#xdf;" horiz-adv-x="605" d="M346 -9Q318 -9 296 -3T255 13L293 157Q299 155 305 154T320 152Q344 152 362 162T390 190T400 230Q400 253 389 270T357 298T308 309H280V459H296Q314 459 328 466T349 488T357 519Q357 536 350 549T330 570T298
578Q270 578 254 561T237 507V0H47V494Q47 563 77 618T164 706T305 739Q383 739 436 709T516 632T543 535Q543 489 527 451T471 386L449 420Q501 402 532 372T578 304T592 220Q592 179 576 139T527 65T450 11T346 -9Z" />
<glyph unicode="&#xe0;" horiz-adv-x="610" d="M252 -10Q183 -10 130 23T47 113T17 246Q17 321 47 379T130 469T252 502Q295 502 331 488T392 447T424 387V105Q417 71 393 45T332 5T252 -10ZM296 162Q333 162 355 185T378 246Q378 271 368 289T340 319T297 330Q273
330 255 319T225 289T214 246Q214 222 224 203T254 173T296 162ZM372 0V132L399 252L372 371V492H563V0H372ZM361 542L138 622L221 774L411 639L361 542Z" />
<glyph unicode="&#xe1;" horiz-adv-x="610" d="M252 -10Q183 -10 130 23T47 113T17 246Q17 321 47 379T130 469T252 502Q295 502 331 488T392 447T424 387V105Q417 71 393 45T332 5T252 -10ZM296 162Q333 162 355 185T378 246Q378 271 368 289T340 319T297 330Q273
330 255 319T225 289T214 246Q214 222 224 203T254 173T296 162ZM372 0V132L399 252L372 371V492H563V0H372ZM208 532L158 629L348 764L431 612L208 532Z" />
<glyph unicode="&#xe2;" horiz-adv-x="610" d="M252 -10Q183 -10 130 23T47 113T17 246Q17 321 47 379T130 469T252 502Q295 502 331 488T392 447T424 387V105Q417 71 393 45T332 5T252 -10ZM296 162Q333 162 355 185T378 246Q378 271 368 289T340 319T297 330Q273
330 255 319T225 289T214 246Q214 222 224 203T254 173T296 162ZM372 0V132L399 252L372 371V492H563V0H372ZM142 527L92 609L248 744H341L497 609L447 527L216 638H374L142 527Z" />
<glyph unicode="&#xe3;" horiz-adv-x="610" d="M252 -10Q183 -10 130 23T47 113T17 246Q17 321 47 379T130 469T252 502Q295 502 331 488T392 447T424 387V105Q417 71 393 45T332 5T252 -10ZM296 162Q333 162 355 185T378 246Q378 271 368 289T340 319T297 330Q273
330 255 319T225 289T214 246Q214 222 224 203T254 173T296 162ZM372 0V132L399 252L372 371V492H563V0H372ZM369 534Q338 534 314 544T270 565T229 576Q207 576 190 566T159 535L73 621Q101 674 137 696T220 718Q252 718 275 708T319 687T360 676Q383 676 400
686T430 717L516 631Q488 579 452 557T369 534Z" />
<glyph unicode="&#xe4;" horiz-adv-x="610" d="M252 -10Q183 -10 130 23T47 113T17 246Q17 321 47 379T130 469T252 502Q295 502 331 488T392 447T424 387V105Q417 71 393 45T332 5T252 -10ZM296 162Q333 162 355 185T378 246Q378 271 368 289T340 319T297 330Q273
330 255 319T225 289T214 246Q214 222 224 203T254 173T296 162ZM372 0V132L399 252L372 371V492H563V0H372ZM180 538Q137 538 109 567T80 640Q80 683 108 712T180 742Q224 742 252 713T280 640Q280 597 252 568T180 538ZM410 538Q367 538 339 567T310 640Q310
683 338 712T410 742Q454 742 482 713T510 640Q510 597 482 568T410 538Z" />
<glyph unicode="&#xe5;" horiz-adv-x="610" d="M252 -10Q183 -10 130 23T47 113T17 246Q17 321 47 379T130 469T252 502Q295 502 331 488T392 447T424 387V105Q417 71 393 45T332 5T252 -10ZM296 162Q333 162 355 185T378 246Q378 271 368 289T340 319T297 330Q273
330 255 319T225 289T214 246Q214 222 224 203T254 173T296 162ZM372 0V132L399 252L372 371V492H563V0H372ZM295 528Q256 528 225 546T176 594T158 663Q158 701 176 731T225 780T295 798Q333 798 364 780T413 732T431 663Q431 625 413 595T364 546T295 528ZM295
619Q313 619 325 631T337 663Q337 682 325 694T295 707Q276 707 264 695T252 663Q252 644 264 632T295 619Z" />
<glyph unicode="&#xe6;" horiz-adv-x="949" d="M252 -10Q183 -10 130 23T47 113T17 246Q17 321 47 379T130 469T252 502Q295 502 331 488T392 447T424 387V105Q417 71 393 45T332 5T252 -10ZM296 162Q333 162 355 185T378 246Q378 271 368 289T340 319T297 330Q273
330 255 319T225 289T214 246Q214 222 224 203T254 173T296 162ZM372 0V132L399 252L372 371V492H563V0H372ZM701 -12Q630 -12 574 20T485 111T452 246Q452 302 471 349T524 431T600 485T687 504Q763 504 819 473T906 385T937 257Q937 242 936 226T929 187L485
184V304L856 307L765 254Q765 294 756 319T727 358T679 371Q649 371 627 356T594 313T582 245Q582 204 594 177T631 135T691 121Q726 121 752 132T801 169L899 72Q862 30 815 9T701 -12Z" />
<glyph unicode="&#xe7;" horiz-adv-x="505" d="M296 -12Q216 -12 152 21T51 112T14 245Q14 320 51 378T153 470T299 504Q357 504 403 486T490 431L367 308Q354 320 338 326T299 332Q275 332 256 322T224 292T212 247Q212 221 224 202T256 171T299 160Q325 160
342 168T372 190L495 67Q452 27 405 8T296 -12ZM253 -220Q210 -220 182 -211T122 -184L172 -117Q187 -126 202 -130T231 -135Q247 -135 253 -130T260 -116Q260 -108 249 -103T215 -97H203L237 11H330L301 -63L253 -22Q324 -22 359 -48T394 -121Q394 -163 356 -191T253
-220Z" />
<glyph unicode="&#xe8;" horiz-adv-x="561" d="M303 -12Q217 -12 152 20T51 111T14 246Q14 321 49 379T147 470T287 504Q364 504 423 473T515 385T549 257Q549 242 548 226T541 187L97 184V304L468 307L377 254Q377 294 368 319T339 358T291 371Q261 371 239 356T206
313T194 245Q194 204 206 177T243 135T303 121Q338 121 364 132T413 169L511 72Q474 30 422 9T303 -12ZM355 542L132 622L215 774L405 639L355 542Z" />
<glyph unicode="&#xe9;" horiz-adv-x="561" d="M303 -12Q217 -12 152 20T51 111T14 246Q14 321 49 379T147 470T287 504Q364 504 423 473T515 385T549 257Q549 242 548 226T541 187L97 184V304L468 307L377 254Q377 294 368 319T339 358T291 371Q261 371 239 356T206
313T194 245Q194 204 206 177T243 135T303 121Q338 121 364 132T413 169L511 72Q474 30 422 9T303 -12ZM202 532L152 629L342 764L425 612L202 532Z" />
<glyph unicode="&#xea;" horiz-adv-x="561" d="M303 -12Q217 -12 152 20T51 111T14 246Q14 321 49 379T147 470T287 504Q364 504 423 473T515 385T549 257Q549 242 548 226T541 187L97 184V304L468 307L377 254Q377 294 368 319T339 358T291 371Q261 371 239 356T206
313T194 245Q194 204 206 177T243 135T303 121Q338 121 364 132T413 169L511 72Q474 30 422 9T303 -12ZM136 527L86 609L242 744H335L491 609L441 527L210 638H368L136 527Z" />
<glyph unicode="&#xeb;" horiz-adv-x="561" d="M303 -12Q217 -12 152 20T51 111T14 246Q14 321 49 379T147 470T287 504Q364 504 423 473T515 385T549 257Q549 242 548 226T541 187L97 184V304L468 307L377 254Q377 294 368 319T339 358T291 371Q261 371 239 356T206
313T194 245Q194 204 206 177T243 135T303 121Q338 121 364 132T413 169L511 72Q474 30 422 9T303 -12ZM174 538Q131 538 103 567T74 640Q74 683 102 712T174 742Q218 742 246 713T274 640Q274 597 246 568T174 538ZM404 538Q361 538 333 567T304 640Q304 683 332
712T404 742Q448 742 476 713T504 640Q504 597 476 568T404 538Z" />
<glyph unicode="&#xec;" horiz-adv-x="290" d="M47 0V492H243V0H47ZM467 542L244 622L327 774L517 639L467 542Z" />
<glyph unicode="&#xed;" horiz-adv-x="290" d="M47 0V492H243V0H47ZM314 532L264 629L454 764L537 612L314 532Z" />
<glyph unicode="&#xee;" horiz-adv-x="290" d="M47 0V492H243V0H47ZM248 527L198 609L354 744H447L603 609L553 527L322 638H480L248 527Z" />
<glyph unicode="&#xef;" horiz-adv-x="290" d="M47 0V492H243V0H47ZM286 538Q243 538 215 567T186 640Q186 683 214 712T286 742Q330 742 358 713T386 640Q386 597 358 568T286 538ZM516 538Q473 538 445 567T416 640Q416 683 444 712T516 742Q560 742 588 713T616
640Q616 597 588 568T516 538Z" />
<glyph unicode="&#xf0;" horiz-adv-x="584" d="M292 -12Q214 -12 152 21T53 110T16 238Q16 305 49 359T139 446T265 479Q303 479 325 469T362 441T395 398L320 382L81 712H303L510 407Q568 322 568 238Q568 167 532 111T433 21T292 -12ZM292 154Q317 154 336 165T367
197T378 244Q378 270 367 290T337 322T292 334Q267 334 248 323T217 291T206 244Q206 218 217 198T247 166T292 154ZM86 468L50 561L460 712L496 619L86 468Z" />
<glyph unicode="&#xf1;" horiz-adv-x="593" d="M360 0V276Q360 305 344 320T302 336Q285 336 272 329T251 309T243 276L167 310Q167 370 193 413T266 479T372 502Q425 502 466 479T532 415T556 321V0H360ZM47 0V492H243V0H47ZM371 534Q340 534 316 544T272 565T231
576Q209 576 192 566T161 535L75 621Q103 674 139 696T222 718Q254 718 277 708T321 687T362 676Q385 676 402 686T432 717L518 631Q490 579 454 557T371 534Z" />
<glyph unicode="&#xf2;" horiz-adv-x="588" d="M295 -12Q214 -12 151 21T51 114T14 247Q14 321 50 379T149 470T294 504Q375 504 438 471T537 379T574 247Q574 173 538 114T439 22T295 -12ZM294 160Q319 160 337 170T366 200T376 246Q376 272 366 291T337 321T294
332Q270 332 252 321T223 291T212 245Q212 220 222 201T251 171T294 160ZM360 542L137 622L220 774L410 639L360 542Z" />
<glyph unicode="&#xf3;" horiz-adv-x="588" d="M295 -12Q214 -12 151 21T51 114T14 247Q14 321 50 379T149 470T294 504Q375 504 438 471T537 379T574 247Q574 173 538 114T439 22T295 -12ZM294 160Q319 160 337 170T366 200T376 246Q376 272 366 291T337 321T294
332Q270 332 252 321T223 291T212 245Q212 220 222 201T251 171T294 160ZM207 532L157 629L347 764L430 612L207 532Z" />
<glyph unicode="&#xf4;" horiz-adv-x="588" d="M295 -12Q214 -12 151 21T51 114T14 247Q14 321 50 379T149 470T294 504Q375 504 438 471T537 379T574 247Q574 173 538 114T439 22T295 -12ZM294 160Q319 160 337 170T366 200T376 246Q376 272 366 291T337 321T294
332Q270 332 252 321T223 291T212 245Q212 220 222 201T251 171T294 160ZM141 527L91 609L247 744H340L496 609L446 527L215 638H373L141 527Z" />
<glyph unicode="&#xf5;" horiz-adv-x="588" d="M295 -12Q214 -12 151 21T51 114T14 247Q14 321 50 379T149 470T294 504Q375 504 438 471T537 379T574 247Q574 173 538 114T439 22T295 -12ZM294 160Q319 160 337 170T366 200T376 246Q376 272 366 291T337 321T294
332Q270 332 252 321T223 291T212 245Q212 220 222 201T251 171T294 160ZM368 534Q337 534 313 544T269 565T228 576Q206 576 189 566T158 535L72 621Q100 674 136 696T219 718Q251 718 274 708T318 687T359 676Q382 676 399 686T429 717L515 631Q487 579 451 557T368
534Z" />
<glyph unicode="&#xf6;" horiz-adv-x="588" d="M295 -12Q214 -12 151 21T51 114T14 247Q14 321 50 379T149 470T294 504Q375 504 438 471T537 379T574 247Q574 173 538 114T439 22T295 -12ZM294 160Q319 160 337 170T366 200T376 246Q376 272 366 291T337 321T294
332Q270 332 252 321T223 291T212 245Q212 220 222 201T251 171T294 160ZM179 538Q136 538 108 567T79 640Q79 683 107 712T179 742Q223 742 251 713T279 640Q279 597 251 568T179 538ZM409 538Q366 538 338 567T309 640Q309 683 337 712T409 742Q453 742 481 713T509
640Q509 597 481 568T409 538Z" />
<glyph unicode="&#xf7;" horiz-adv-x="579" d="M45 257V411H534V257H45ZM290 35Q249 35 222 63T195 131Q195 172 222 200T290 228Q331 228 357 200T384 131Q384 91 358 63T290 35ZM290 441Q249 441 222 469T195 537Q195 578 222 606T290 634Q331 634 357 606T384
537Q384 497 358 469T290 441Z" />
<glyph unicode="&#xf8;" horiz-adv-x="588" d="M293 -12Q213 -12 150 21T50 114T14 247Q14 321 50 379T149 470T294 504Q375 504 438 471T537 379T574 247Q574 173 538 114T438 22T293 -12ZM293 129Q327 129 352 143T391 184T405 245Q405 281 391 307T352 348T293
363Q260 363 235 349T195 308T181 246Q181 211 195 185T234 144T293 129ZM91 -31L19 41L497 520L569 448L91 -31Z" />
<glyph unicode="&#xf9;" horiz-adv-x="561" d="M281 -12Q209 -12 154 16T66 94T34 208V492H230V206Q230 191 236 179T254 161T281 154Q302 154 316 168T331 206V492H527V208Q527 143 496 94T409 16T281 -12ZM347 542L124 622L207 774L397 639L347 542Z" />
<glyph unicode="&#xfa;" horiz-adv-x="561" d="M281 -12Q209 -12 154 16T66 94T34 208V492H230V206Q230 191 236 179T254 161T281 154Q302 154 316 168T331 206V492H527V208Q527 143 496 94T409 16T281 -12ZM194 532L144 629L334 764L417 612L194 532Z" />
<glyph unicode="&#xfb;" horiz-adv-x="561" d="M281 -12Q209 -12 154 16T66 94T34 208V492H230V206Q230 191 236 179T254 161T281 154Q302 154 316 168T331 206V492H527V208Q527 143 496 94T409 16T281 -12ZM128 527L78 609L234 744H327L483 609L433 527L202 638H360L128
527Z" />
<glyph unicode="&#xfc;" horiz-adv-x="561" d="M281 -12Q209 -12 154 16T66 94T34 208V492H230V206Q230 191 236 179T254 161T281 154Q302 154 316 168T331 206V492H527V208Q527 143 496 94T409 16T281 -12ZM166 538Q123 538 95 567T66 640Q66 683 94 712T166
742Q210 742 238 713T266 640Q266 597 238 568T166 538ZM396 538Q353 538 325 567T296 640Q296 683 324 712T396 742Q440 742 468 713T496 640Q496 597 468 568T396 538Z" />
<glyph unicode="&#xfd;" horiz-adv-x="549" d="M191 0L-3 492H205L319 73H233L345 492H552L359 1L191 0ZM84 -210L227 113L359 1L276 -210H84ZM188 532L138 629L328 764L411 612L188 532Z" />
<glyph unicode="&#xfe;" horiz-adv-x="610" d="M350 -10Q306 -10 267 4T201 45T166 105V377Q174 411 201 439T267 485T350 502Q423 502 477 470T562 379T593 246Q593 171 563 114T478 23T350 -10ZM313 162Q337 162 356 173T385 203T396 246Q396 271 386 289T357
319T314 330Q290 330 272 320T243 290T232 246Q232 222 242 203T270 173T313 162ZM47 -210V732H243V371L211 252L238 132V-210H47Z" />
<glyph unicode="&#xff;" horiz-adv-x="549" d="M191 0L-3 492H205L319 73H233L345 492H552L359 1L191 0ZM84 -210L227 113L359 1L276 -210H84ZM160 538Q117 538 89 567T60 640Q60 683 88 712T160 742Q204 742 232 713T260 640Q260 597 232 568T160 538ZM390 538Q347
538 319 567T290 640Q290 683 318 712T390 742Q434 742 462 713T490 640Q490 597 462 568T390 538Z" />
<glyph unicode="&#x2013;" horiz-adv-x="583" d="M47 178V332H536V178H47Z" />
<glyph unicode="&#x2014;" horiz-adv-x="873" d="M47 178V332H826V178H47Z" />
<glyph unicode="&#x2018;" horiz-adv-x="271" d="M234 694L156 548L102 533Q111 550 123 561T150 573Q185 573 213 545T241 473Q241 427 210 394T132 361Q88 361 56 393T23 473Q23 492 30 517T59 582L146 742L234 694Z" />
<glyph unicode="&#x2019;" horiz-adv-x="270" d="M36 389L114 535L168 550Q159 533 147 522T120 510Q86 510 58 538T29 610Q29 656 60 689T138 722Q182 722 214 690T247 610Q247 591 240 566T211 501L124 341L36 389Z" />
<glyph unicode="&#x201a;" horiz-adv-x="290" d="M46 -124L124 22L178 37Q169 20 157 9T130 -3Q96 -3 68 25T39 97Q39 143 70 176T148 209Q192 209 224 177T257 97Q257 78 250 53T221 -12L134 -172L46 -124Z" />
<glyph unicode="&#x201c;" horiz-adv-x="518" d="M234 694L156 548L102 533Q111 550 123 561T150 573Q185 573 213 545T241 473Q241 427 210 394T132 361Q88 361 56 393T23 473Q23 492 30 517T59 582L146 742L234 694ZM481 694L403 548L349 533Q358 550 370 561T397
573Q432 573 460 545T488 473Q488 427 457 394T379 361Q335 361 303 393T270 473Q270 492 277 517T306 582L393 742L481 694Z" />
<glyph unicode="&#x201d;" horiz-adv-x="517" d="M283 389L361 535L415 550Q406 533 394 522T367 510Q333 510 305 538T276 610Q276 656 307 689T385 722Q429 722 461 690T494 610Q494 591 487 566T458 501L371 341L283 389ZM36 389L114 535L168 550Q159 533 147
522T120 510Q86 510 58 538T29 610Q29 656 60 689T138 722Q182 722 214 690T247 610Q247 591 240 566T211 501L124 341L36 389Z" />
<glyph unicode="&#x201e;" horiz-adv-x="537" d="M293 -124L371 22L425 37Q416 20 404 9T377 -3Q343 -3 315 25T286 97Q286 143 317 176T395 209Q439 209 471 177T504 97Q504 78 497 53T468 -12L381 -172L293 -124ZM46 -124L124 22L178 37Q169 20 157 9T130 -3Q96
-3 68 25T39 97Q39 143 70 176T148 209Q192 209 224 177T257 97Q257 78 250 53T221 -12L134 -172L46 -124Z" />
<glyph unicode="&#x2022;" horiz-adv-x="359" d="M180 233Q140 233 109 251T60 301T42 371Q42 409 59 440T108 490T180 509Q220 509 251 491T299 441T317 371Q317 333 300 302T251 252T180 233Z" />
<glyph unicode="&#x2039;" horiz-adv-x="304" d="M115 62L15 247L115 432H290L185 247L290 62H115Z" />
<glyph unicode="&#x203a;" horiz-adv-x="304" d="M14 62L119 247L14 432H189L289 247L189 62H14Z" />
</font>
</defs>
</svg>
